<?xml version="1.0" encoding="utf-8"?>
<!-- Generator: Adobe Illustrator 19.0.0, SVG Export Plug-In . SVG Version: 6.00 Build 0)  -->
<svg version="1.1" id="Layer_1" xmlns:amcharts="http://amcharts.com/ammap"
	 xmlns="http://www.w3.org/2000/svg" xmlns:xlink="http://www.w3.org/1999/xlink" x="0px" y="0px" viewBox="-270 433.5 300 324"
	 style="enable-background:new -270 433.5 300 324;" xml:space="preserve">
<style type="text/css">
	.st0{fill:#4D4949;stroke:#7F7E7E;stroke-width:0.5;}
</style>
<defs>
	
	
		<amcharts:ammap  topLatitude="53.562517" projection="mercator" bottomLatitude="18.153878" rightLongitude="134.775703" leftLongitude="73.554302">
		</amcharts:ammap>
</defs>
<g>
	<path id="CN-34" class="st0" d="M539.8,334.7l0.7-0.2l2.1,2.2l-0.2,0.3l2.4,0.4l0.8,1.1l1.7-0.1l0.1,1.7l1.1,0.6l-0.4,1l1.3,1.2
		l0.8,0.4l2-0.3l0.8,1l1.2-0.6l0.8,1.2l0.6-0.7l1,2.1h0.7l-0.3,2.4h2.6l0.3-0.5l2.8,0.3l-0.9,1.9v2.1h-0.9l-1.3,3.8h0.6l0.7,1.3
		l1.4-0.5l0.3-0.6l0.4,0.2l0.5,3.1l0.9,0.5l-1,0.5l0.2,1.2l0.5-0.2l0.2,1.2l0.8,0.1v0.8l3.4-0.4l0.9,0.4l0.5-0.3l-0.1-1.6l0.8-0.1
		l0.5-1.5h2.1v0.8l1.1,1.2l1-0.1l0.6,3.4l-0.2,0.5l-0.4-0.4l-0.4,1.6l-0.8,0.6l-0.6-0.9l-0.7,0.1l-1.1-0.8l0.2-0.5h-4.2l0.3,1.6
		l1.2,0.1l0.2,2l-0.6,0.6l0.1,1.2l-2,0.4l-0.1,1l-1.3,0.6l-0.3,2.2l1.7,1.3l-0.3,0.7l0.5,0.8l1.2-0.3l0.6,0.5l-0.2,1.3l0.9,0.1
		l0.6-0.7l0.3,0.9h0.8l0.1,2.9l-2.1,1.8l1.1,1.1h3.8l1.1-1l1.3,0.8l0.8-0.2l0.2-0.5l0.4,1.8l3.1,0.6l0,0l-0.8,4.4l-1.1,0.8l-0.6,1.9
		l-0.7-0.5l-0.9,0.9l-0.9,0.1v1.1l1.1,0.1l0.9,2.4l-1.9,0.4l-0.3,0.7l-2.3-0.2l-1.1-0.8l-0.9,0.6l0.5,1.5l-0.9,0.8l0.6,0.1v3
		L570,406l-0.2,1.6l-2.4,1.7l-0.8,1.5l-1.1,0.5l-1.1-0.2l-0.1,1l-0.8-0.1l-0.6,0.6l0,0l-0.8-0.4l0.1-1.2l-1.6-1l-3.9,0.4l-0.6-0.9
		l-1.5,0.2l-0.1-0.8l-1-0.5l-0.4-2.3l-0.8,0.5l-0.3-0.5l-1,0.3l-0.1-1.1l-0.5-0.3l-1.8,1.4l0.8,0.7l-0.3,1l-1.5,0.4l-2,1.6l-1-0.4
		l-0.5,0.5l-0.9-1l0.4-0.6l-0.3-0.3l2-1.7l1.1-2l-2.9-1.8l-1,0.3l-0.7,2.3h-0.9l-2.6,1.7l-0.7-0.7l-0.9,0.1l0,0l-0.8-2l-0.1-3.5
		l-1.1-1.3l-1-0.2l-0.3-1l0.8-0.6l-0.6-0.4l0.2-1l-2-2.4l0.3-1l1.1-0.3v-1.3l2.6-1.4l-0.4-0.8l-1.3-0.4l-0.8-1.5l-1.3,0.5l-1.5-1.4
		l-1,0.9l-0.6-1.6l-0.8-0.2l-1.2-2l0,0l0.1-1.4l1.4-1.6l0.1-0.9l2.3-1.6l1.7,0.3l1.2-0.5l0.3-5.5l-0.7-4.8l-0.5-0.3l1-0.9l-1.8,1.5
		l-0.2-0.6l-0.2,0.4l-0.8-0.3l-0.4,1.3l-1.4,0.1l-1.8-2.5l-1.3,0.3v-0.5h-1.3v-4l-4-1.9l0.6-0.6l-0.3-1.6l0.4-0.5l1.2,1.1h1.4
		l1.8-0.7l0.9-2.9l-0.6-0.8l0.4-1.9h0.7l0.2-0.8l2.8-0.4l-0.9-2.9l0.6-0.1l0.2-1.3l-1.1-0.2l0.7-2.3l0.6-0.5l2-0.1l0.6,1l0.4-0.4
		l1,0.5l0.2,1.5l0.9,0.7l0.2,1.2l1.1,1.1l3.5-1.5l0.1-0.7l1.5-0.8l1,0.3l0.1-1.3l-1.5-2.2l0.6-2.5l-2.7,0.1V340l-1.9-1l-0.7-1.2
		l0.4-1.8l0,0l0.6,0.4L539.8,334.7z"/>
	<path id="CN-11" class="st0" d="M545.3,256.2l-1.3-0.1l0.1,0.5l-1.8-0.5l-2.2,1.7l0.6,1.2l-1.4-0.2l-2-2.1l-2.5-0.2l-0.3,0.4
		l-0.5-0.5l-1.5,1.4h-0.7l-0.9-1.4h-1.5l-1.1-0.9l0.1-1.4l-0.8-0.6l1.8-0.7l-0.6-0.5v-1.1l-1.2-0.7l0.3-1.2l2.1-1.5l1.8-0.3l0.4-0.7
		l0.8,0.6l0.5-1.3l1-0.7l-0.6-1.5l-1.8-1.5l0.1-0.8l-0.5-0.2l0.3-0.6l1.9-1.3l0.9,0.6l1.5-0.6l1.7-2.9l0.7,0.5l1.5-0.5l0.6,0.3
		l-1.5-2.7l1.7,0.6l-0.3-1.4h1.8l0.6-1.4l0.6,0.4l-0.2,0.9l0.6,1.3l1.6,1.1l1.9,2.3l1.9-0.1l2.1,0.8l2.4-0.2v0.5l-0.9,0.1l0.2,0.9
		h-1.8l-1.3,1.3l0.3,2l2,2.4l0,0v0.9l-2.3,1.5l0,0l-2.5,0.9h-2.8v2.1l1.7,0.9l0.4,1.1l-0.7,1.4l0,0L545.3,256.2z"/>
	<path id="CN-50" class="st0" d="M440.6,371.3l1.9,1.5h1l1.8,1.7l1.9,0.4l2,2.1l1,0.3l0.2,1.3l3.7-0.2l0,0l1.9,0.5l-0.1,2.1l1.1-0.2
		l2,0.8l-0.4,0.5l2.5,1.3l0.7,3.6l-0.9,0.8l0.6,1.6l-1.1,2.7l-0.7-0.5l-0.2-1l-2.9,0.7l-2.5,2.9l-0.5-0.3l-1,0.8l-1.4,1.9l-0.5-2
		l-2.1,1.5l-0.6-0.5l0.4-1.2l-1-0.1l-2.7,2.3h-1.1l-0.5-1.3l-0.7,0.1l0.2,0.6l-0.9,1l-1.9-0.2l-0.3,1.4l2.2,2.1l-0.9,2.8l0.4,0.9
		l-0.2,1.8l-1.1-0.2l-0.7,1h0.5l0.2,1.1l0.9,0.3l1.1-2.1l0.8,0.1l0.3,2.3l1,0.7l0.4-0.4v0.6l0.7-0.2l0.2,0.8h0.4l-0.5,1.8l0.9,0.8
		l-0.3,1.4l2-1l0.8,1.9l-0.3,0.9l1.5,1.2l0,0l1.1,1.1l-1.1,2.4l0.1,1.4l0.8,0.7l-1.5,1.6l1.7,0.4l-0.6,1.3l0,0l-1.5,1.3l-0.8,3.1
		l-0.8-0.3l-0.4,0.7l-2.3-1.2l-0.6,0.6l-0.4-1l0.6-0.7v-1.7l-0.7-0.9l-0.9,0.5l0.6,0.9l-0.2,0.9l-1.2-0.3l0.4-0.9l-0.4-1.6l0.5-0.1
		l0.3-1.4l-0.8-0.3l-1.3,0.5l-1.7-0.7l0.6-1.6l-1-4.2l-0.9,0.8l-0.5-0.6l-1.6-0.2l-0.7,0.9l-0.8-0.1l-1.3,1l-1.1-3.2l-0.9,0.6
		l-1.2-0.4l-0.3-0.7l-1,0.6l-0.4-0.4l-0.5,0.3l0.2,1l-0.6,0.2l-0.1,1.3l0.9,0.9l-1.4,1.9l-1.1,0.6l-1.4-1.7h-1.4l-0.3,1.5l-1.1-0.5
		l-0.8,0.6l-0.2,0.5l0.8,0.8l-0.8,1.3l-0.6-0.5l-0.6,2.4l-1.6-0.8l-0.4,0.3l1.1-2.5l-1-0.4l0.2-0.4l-1.5-1.7l-0.2,0.8l0.9,1.6
		l-0.7,1.3l0.4,0.6l-1.2-0.5l-0.3,0.6l0,0l-0.6-0.4l0.1-1.2l-1.5-3.7l-2.1-0.2V419l-0.8-0.4l-1,1.1l-1.3-0.5l-1-2.3l-0.3-2.7
		l-0.5,0.5l-2.5-0.5l-0.5-0.8l0.2-0.9l-0.6-0.6l-0.8,0.1l-0.1-2.3l0.3,0.2l0.9-1.3l0.7,0.1l0.1-0.6l1.1-0.2l0.6-1.5l1.5-0.3l0.2-2.5
		l-2.6-2.1l1.5-0.5l-0.4-1l1.4,0.3l0.2-1.5l1.1-1.1l0.2,0.6l0.6-0.2l3.2,1.3l1.2,1.9l0.8-0.7l1.6-0.2l0.2-0.7l1.5-0.1l1,0.5
		l-0.3,0.7l1.7,2.8l2.2-0.1l0.6-0.7l0.6,0.7l0.7-0.3l2-2.4l3.5-6l-1.1-1.5l1.1-1.4l0.9-0.2l0.7,0.6l1-1.1l0.6,1l1.4,0.1l1.4-1.4
		l-0.6-0.3l0.1-0.8l1.4-1l-0.6-0.9l1-1.5l-0.8-0.2v-0.4l2-1.2l-0.3-0.6l0.9-1.3l-0.4-0.5l1.7-0.2l1.3-1.8l0.6,0.1l0.7-0.8l-0.1-1.3
		l-2.3-1.5l-1.1-1.6l1.3-0.3l-0.2-1.3l1.3,0.1l-0.9-1.8L440.6,371.3z"/>
	<path id="CN-35" class="st0" d="M552.8,491.4l0.5,0.7l1-0.2l0.1,0.5l-0.4-0.1v0.9h-0.8l0.2,1l-1.5,0.1l1.3-1.4l-1-0.2L552.8,491.4z
		 M579,471l1.3,0.7l-0.3,0.6l-1.4-0.5L579,471z M582.9,465.4v0.8l1.3,0.6l-1,0.4v0.6l0.7,0.4l-1.3,0.4l-0.1,0.6l-1-1.1l0.9-0.5
		l-0.1-1.2l-0.3,0.3l-0.2-0.4L582.9,465.4z M562.5,479l-0.8,1.4l1.1,0.8l-0.3,1l-1.1,0.3l-0.2-1.9l-0.5,0.4l0.5,0.5l-0.8,0.3
		l0.4,0.5l-1.6-0.5l-0.3,0.7l0.2,0.5l2-0.2l-0.5,0.8l0.9-0.1l0.5,1l-1.5,1.1l-0.3-0.3l-0.2,0.6l-0.5-0.6l-0.5,0.5l0.4,0.3l-0.5,1.8
		l-0.9,0.3l-1.1,1.5l0.8-1.9l-1.4,0.4l0.2,0.9l-0.9,0.8l0.1,1.4l-0.7,1l0.2-2.5l-2.1-0.8l-0.3,0.5l0.8,0.2l0.2,1.1l-0.7,1l-0.5-0.5
		l-1.7,0.9l0.2,1.3l-1.2,0.2l0,0l-1.8-1.2l-1-2.7l0.1-1.3l-0.7-1.2l0.9-1.3l-0.7-0.6l-1.1-3.5l-1.2-1l0.5-1.8l-3.5,1l-0.4-1.4
		l-1.2-1.3l0.5-0.5l-0.3-0.5l-1.9,1.1l-0.6-1l-1.6,0.2l-0.6-0.7l-1.8-0.5l0,0l0.3-0.7l-0.4-0.5l0.7-0.5l-1-2.2l2-1.6l-0.2-1.9
		l0.8-1.5v-1.7l1.6-1.2l-0.6-1.2l3-1.5l0.3-1l1.2-1l-0.3-0.9L540,458v-1.2l1.5-1.9l1,0.4l0.5-1.3l-1.2-1.4l0.4-1.1l-0.7-0.9l0.6-0.8
		l-0.1-1l1.8-2.1l3.1-0.5l1.3-1.1l0.2-1l1.3-1.4l-0.8-0.8l0.1-2.3l-0.4-1h-0.8v-1.2l0.5-0.3l0.5,0.6l0.1-0.8h1.2l1.2-1.3l-0.2-1.4
		l0.5-0.4l0.2,0.6l2.3-1.9l1,1.7l1.6,1l1.6-2l2.2-0.6l0.8,0.4l0.4-1.3l2.8-0.6l0.3-1.3l-0.7-0.5l1.4-0.9l0,0l0.8,0.7l0.1-0.6l1-0.1
		l0.4,0.5l1.3-0.8l1.2,0.9l-0.5,0.9l0.4,0.8l-1,1l0.1,1.1l1.1,1l1,2.8l-0.2,2.8l0,0l0.3,0.7h0.7l0,0l0.6-0.5l1.4,0.2l0.1,0.7
		l1.4,0.2l1.7-1.6l1,0.3l0.5-2l0.6,0.2l0.2-0.5l1,0.1l-0.1,1.1l1,1.2l0,0l-0.2,1.1l1.2,1.4l0,0l-0.2,0.3l2.2-0.1l0.8-0.9l0.4,0.5
		l1.3-1.1l1.4-0.2l0.4,0.5l0,0l0.8-0.1l0.2,0.8l0,0l0.9,1.2l-0.3,0.2l0,0l0.2,1.2l-0.6-1.2l-0.9,0.1l0.1-0.8l-0.8-0.1l0.1,0.6
		l-0.6-0.2l-0.1,1l0.4-0.7l2,0.4l0.7,1.2l-0.7,0.6l-1.4-0.3l0.1,1.6l-1.2,0.4l0.7,0.1v0.7l-1.4-0.3l-0.3,0.8l-0.6-0.3l-0.1,1
		l1.2,0.4l-0.5,0.6l0.8,0.4l-0.7,0.5l0.4,0.6l-0.5,0.4l-0.2-0.4l-1.6,0.5l-0.9,1.3l-0.7-0.2l0.2-0.8l1.4-0.6l1.5-2.2l-1.9,0.2
		l-0.7,1.8l-0.4-0.9h-0.6l0.7-1.4l-0.6,0.3l-0.2-0.6l-0.6,1.8l-1.4-0.8l0.1-0.6l-0.5,0.3l1,0.8l-0.6,1.2l-0.6,0.1l0.4,0.5l1.7-0.2
		l0.6,0.4l-0.2,0.5l0.8,1.4l-0.7,0.4l-1.6-1l-0.7,0.8l1,0.2l0.3,1.1l1.9-1.2l0.3,1.1l1.2-0.4l-0.9,0.8l-1.2,0.1l0.1,0.5h-2l0.2,0.9
		l-1.9,2l2.6,0.9l-0.4,1.2l-0.8,0.2l-0.4,2.9l-1.6,0.7l0.4,1l1-0.3l0.3,0.4l-0.4,0.7l1,1.2v1l-0.8,0.2l-0.2-1.6l-0.7,0.7l0.6,0.1
		l-0.8,0.3l-0.9-1.3l0.2-0.4l-1.4-0.6v1.5l-0.6,0.3l-0.5-1.1l-1.4,1.4l0.8,0.4l0.1,1.2l0.4-0.8l1.4,0.9l-0.9,0.3l-0.1,0.8l-1.4,0.1
		l-0.7-0.6l-0.4,0.5l0.8,0.7l-0.8,0.3l-0.9-0.4l0.6-1.4l-1.2,0.1l0.2-0.6l0.8-0.1l-2,0.2l0.3,0.9h0.8l-0.5,0.8l0.4,0.3l-1.2-0.1
		l-0.4,0.5l1.4,1.1l0.7-0.8l-0.4,1l0.7,0.2l-1.6,0.1v0.6l0.9,0.5l-1.4-0.3l-1.7,0.6l-0.7-0.6l-0.6,0.5l0.2,0.8l0.8-0.2l0.1,0.5h0.7
		l-0.8,1.3h-0.8l0.4,1l-1,1.1l-0.4-0.9l-1.5-0.8l-0.1-0.8l-0.2,1.4h-1.7l-0.8,0.9l-0.5-0.4l0.3-1.2L562.5,479z"/>
	<path id="CN-44" class="st0" d="M495.6,518.8l-0.9,1.1l0.1,1.4l-0.5,0.3l-0.5-0.6l0.7-0.8l-1-0.3L495.6,518.8z M500.9,517.2
		l-0.2-0.7l-0.5,0.1v0.7L500.9,517.2z M467.2,526.5l-1.2,0.2l0.1,1.4L467.2,526.5z M467,531.1l0.4-0.9l-0.5-0.3l-0.5,1.2H467z
		 M492.9,520.7l-0.1-1.1l-0.8,0.3l-0.8,1.4L492.9,520.7z M548.6,493.3l0.2,1.4l1.3-1l0,0l-1.8-1.2l-1-2.7l0.1-1.3l-0.7-1.2l0.9-1.3
		l-0.7-0.6l-1.1-3.5l-1.2-1l0.5-1.8l-3.5,1l-0.4-1.4l-1.4-1.3l0.5-0.5l-0.3-0.5l-1.9,1.1l-0.6-1l-1.6,0.2l-0.6-0.7l-1.8-0.5l0,0
		l0.2,0.8l-1.1-0.3l-0.8,2.2l1,2.5l-1.5,0.3l-0.5-0.8l-1.3-0.3l-1.2-1.9l-0.8-0.3l-3.8,1.6l-0.6-0.6l-2,0.6l-0.5,1.4L519,480
		l-0.5,1.2l-0.6-0.7l-2.9,1.3l-0.9-1.4l-0.6,0.2l-0.4-0.8l-1.3-0.6l2-1l0.9-1.8l-0.1-1l1.8-1l0.4-0.9l1.1,0.1l1-0.6l-0.6-0.7
		l0.7-1.5l-2.6-1.9l-1.9,1.4l-3.3,0.1l-1.1,0.8l0.1-1.5l-1-1.3l0,0l-1,0.3l-0.8,1.5h-0.7l-0.2-0.5l-2.2,0.7l-0.5-0.7l-2.1-0.5
		l-0.8-0.6l-0.1-1l-1.7,0.5l-0.4,1l-1.4,0.9l-1.1,0.6l-0.9-0.4l0.1,1.2l1.4-0.1l0.7,0.8l-0.9,0.5l0.6,1l-0.4,0.8l0.4,1.3l-1.8,0.5
		h-1l-1.5-3.2l-1.5,0.1l-1.2-0.8l-0.6,0.5l-0.4-0.7l-1.4,0.3l-0.6-0.6l-1.2,3l0.7,1l-0.2,1l-1.7,1.4l0,0l-0.8,0.3l-0.4,1.2l1,1.1
		l-0.2,1.1l0.9,1.5l-1,1.3l-1.4,0.7l0.7,3.4l-1,0.2l-0.6,1.9l-2-0.1l-0.4,1.2l0.6,0.2l-0.6,1l-1.6,0.2l-0.1,1.2l-1,1l-0.6,2.5
		l0.5,1.6l-0.2,1l0.7,0.8l-0.9,1v1l-1.8,1.9l-2,0.3l0.4,0.5l-0.4,0.6l-3.2,1.3l-0.4-0.3l-0.3,1.6H468l0.3,1.4l0.9,1.1l-1.1,0.1
		l-0.7,1.7l-0.9-0.6l-0.8,0.6l-1.1-0.8l-0.5,0.5l-0.5-0.3l0.5,4.1l-1-0.4l-0.7,0.5h-3.3l-1,3l-1.3,0.2l-0.4-0.5l-0.2,1.4l0,0
		l0.7,1.5l1.8,0.3l-0.4,1.1l-2,0.2l0.1,1.7l-1.2,1.3l0.5,0.8l-0.6,2.2l1.3,2.6l-0.4,1l1.1,0.7v1l2.4,0.8l-0.5,0.8l-0.9-0.7l-0.6,0.4
		l0.9,0.9l-0.1,1.6l0.9-1l1.8,0.7l2.2-0.2l1.7-0.9l1.2-2l-0.9-2.7l-1.6-0.3l-0.1-0.6l0.7,0.4v-1.5l-2.4-0.5l-0.4-1.7l1.6-1.5l-1.1,2
		l3.3-0.7l0.8,0.9l0.3-1.9l-2.8-0.1l1.1-1.6l2.7-0.5l1.8-2.3l1.5,0.2l2.5-1.1l-0.9-0.1l0.2-0.7l0.9,0.9l2.4-0.4l-0.4,1l2.4-2
		l0.3,0.8l2.2-0.2l1.7-1.9l0.1-0.7l-1.1-0.8l1.2-0.1l0.8,1.5l0.7-0.3l-0.2,0.6l-0.7-0.1l-0.3,1.2h0.6l2-1l-1.1-0.2v-0.9l2.4-1.1
		l1,0.1l0.8,1.3l1.8-0.5l0.2-1.2l2.4,0.8l2.3-2.5l1,0.3l0.7,1l1.3-1.3l-0.3-2l1-0.9v-0.8l0.2,2.1l1,1.6l1-1.4l1.3,0.9l0.6-1.1
		l-0.5-0.3l0.3-1.4l1.3,1.6l0.6-0.5l-0.4-0.8l0.9-1l-0.2-0.8l0.7-1l-1-0.2v-0.5l1.4-2.4l-1.2-1.8l0.7-0.3l-0.1-0.6l0.7,0.8l1.1,0.1
		l1.2,2.4l0.7,0.4l-0.5,0.5l0.3,0.6l0.6-0.9l1.3,0.2l0,0l1.5-0.8l0.8,0.2l0,0l2.1-0.9l1.1,1.1l0.2,1.2l1.4-0.6l-0.8-1l-0.6,0.2
		l1.2-1.4l-1.2,0.1l0.3-0.8l0.7,0.3l-0.1-0.8l2.5-0.6l0.2-0.7l0.5,0.6l-1,0.6v1.8l1.8,0.2v0.7l1.1-1.9l-1-0.3l-0.3-0.8h1l0.5,1.1
		l0.6-0.2l0.3-1.1l1.2-0.3l0.4,0.5l0.4-0.8l0.5,0.1l-0.3,0.6l2.4-0.1l-0.3,0.5h-0.8v0.6l2.7,0.9l0.4-1.4h-0.6l-0.1,0.6l-0.4-0.6
		l1.5-1.6l1.5,0.3l0.7,1.4l2.2-1.3h1.8l1.9-1.6l2.7,0.3l0.8-1.2v-1.9h1.2l0.8-1.1l1,0.4l-0.5-1.8l1.3-1.2l0.3-1.7l1,0.1l-0.5-0.7
		L548.6,493.3z M547.5,495.8l-0.5,0.5l2.3,0.5l0.3-0.8l-0.3-0.5l-1.4,0.6L547.5,495.8z"/>
	<path id="CN-62" class="st0" d="M297.4,203.3l8.3,18.9l-2.9,3.4l4.6,6.1l0.4-0.2l4.4,3.7l0.2,0.8l-1.4,5.2l5-0.3l2.8-3.5l3.9-1.9
		l4.9,0.3l1.4-1.4l5.3,0.8l1.7,2.7l0.2,2l-2.8,3.4l-1.4,3.1l-3.6,2.4l-2.1,3.1l3.9-0.2l3.1,2.4l3,0.9l0.9,2.8l2.3,0.6v1.3h4.4
		l0.1,6.3l1.1-0.6l1,1.4l2.6-1.1l-0.6,1.1l0.9,1.3l1.1,0.4l-0.1,1.1l2.6,0.9l1.1,1l0.8-0.5l1.3,0.4l1-0.2l0.1-0.7l2.7-2.8l-3.4-3.3
		l4.9-1.1l3.2-1.4l1.9,1.2l5,1.3l4.5-4l6-1.8l1.3-0.1l1.9,0.8l-0.5,2l1.9,3.3l-0.4,2.5l-1.8,0.8l-2,4l-5.9,3.8l0.9,1.3l0.8,2.8
		l-2.3,1l0.6,3.9l3.3,1l6.4,6l1.3-0.3l0,0l5.8,0.1l-0.8,0.9l0.5,0.4l-1.5,1l0.4,0.8l1,0.4l1-0.8l0.8,0.5l1.6,2.7l2.5,0.9l0.2,1.6
		l1.1,0.3l0.7,1.2l-1.6,1.2l0.8,2.2l-0.2,0.5l1.3,0.5l0.7,2.3l0.9,1.1l0.4,2.3l-0.2,0.7h-0.8l-1.2,1.3l0.1,1.9l0.8,0.5l-0.3,0.8
		l0.6-0.2l0.4,1l1.3,0.4l0.2,0.6l1-0.9l1.3,0.1l-0.7,0.7l1.6,1.8l0.3,1.2l0.6-0.9l2.5,0.8l-0.5,0.7l0.1-0.5l-1.9,0.4v0.8l2.2-0.7
		l-0.3,0.5l0.7,1.1l0.8-1.2l0.8,0.4l0.2,1.1l1.4,1.6l1.7-1.9l-0.8-5.2l1.3-0.8l2.5,1l0.2-0.7l0.8,0.2l1.4-1.4l-1-1.3l1.1-0.7
		l-0.5-0.3l0.7-0.6v-2.2l-0.4,0.2l-1.1-1.7l-0.8,0.2l-2.4-1.2l-0.2,0.6l-0.7-0.2l0.3-3.2l-2-1.4l1.2,0.1l-0.2-0.9l1-1.7l0.8-0.3
		l0.8,0.5V300l-0.6-0.1l-0.7-1.3l0.5,0.6l0.7-0.3l-0.4-2.7l1.8,0.7l0.4-1l1.4,0.8l0.1-0.7l1.5,0.6l1.9-0.6l1.4,1.1l0,0l0.4,2.6
		l2.2,0.2l0.7,1.2l1.8-0.1l2.8,1.1l0.6,1.6l0.8-0.4l-0.2,0.7l0.6,0.6l1.4,0.6l0.8-1.1v1l1.7,0.2l1.1,1.9l1-0.6l2.5,1.7l-0.8,1.7
		l0.8,1.9l-0.3,1.8l-0.5,1.1H442l-1,1l0.3,3.7l1.2,1.4l-0.2,3.2l-1.5,0.9l-1.8-0.4l-1.3,0.7l-0.8-0.7l-2.7,1l-2.9-1l-0.2,0.8
		l-0.8,0.1l2.6,3.8l-0.7,0.6l-2.1,0.4l-0.9-0.7l-0.5,0.9l-3-0.4l-1.2,0.8l-0.4-0.8l-1-0.5l-0.1-0.8l-2.1-1.1l-4.7,0.1l-0.8,1.3
		l1,2.9l-0.2,1l-1.3,0.9l0.2,0.9l-1.9,0.9l0.4,0.9l1.6-0.1l1.3,0.6l0.9,1.5l0.9,0.3l-0.6,1.9l-1.9-0.7l-0.4,0.6l0.7,0.2l0.5,1.6
		l-1.1,0.5l-1,3.2l0.9,0.7l-0.4,0.8l0.3,1.3l0.7,0.2l0.6,1.6l-0.8,1.2l-0.9-0.5l-0.3-1.3l-1.8,0.3l-1.3,0.8l-1-0.3l-0.1-0.6h-1.8
		l-1.5,1.7l-0.2,1.7h-1.5l1.1,1.8l2.1,0.8v0.9l-0.4-0.7l-0.5,0.7l0.4,0.1l-0.2,2.2l-0.7,0.8l-2.8,0.9l-1.8-0.4l0,0l-0.8-0.3
		l-0.7,0.8l1,2l-4.3,2.2l-0.9-0.8l-2,0.7l-0.7-1l-1.2,0.4l-0.5-0.5l-0.8,0.2l-0.8-1l-3.4-1.5l-0.2-1.6h1l0.8-1.1L388,359l0.5-1
		l-0.9-2.9l1.2,0.3l0.4-0.5l-1.7-0.2l-1-1l-0.8-2.1l0.2-1l-1.6-1.2l-3.5,0.4l-2.3-0.8l-1.1,0.5v-2l-0.9,0.9l-1,0.1l-2.5-1l0.4-1.4
		l-0.8-0.9l0.5-0.6l-0.4-0.8l0.6-0.5l-0.8-1.3l-1.6-0.3l-0.4-1.5l-0.7-0.3l-0.6,0.6l-1.4,0.1l-0.5,1l-1.1,0.6l0.6,1.2l-2.9-0.1
		l-0.5,1.8l-1.5-0.3l-1.1,0.6l0.9,1.5l-0.2,0.9l1,0.4l-0.3,0.7l0.6-0.3v1.7l1.4,0.6l0.4,1.7l-1.5,1.1l-1.2-0.4l-1,1.3l0.5,0.4
		l-0.2,1.3l-1.2-0.7l-0.5,1.1l-1.1-0.1L357,358l-0.6-0.2l0.2-1.2l-0.8-0.8l1.3-0.9l0.9-2l-1.3-2.5l-0.5-0.1l-0.3,1.1l0,0l-0.5,0.7
		h-1.3l-0.5-2.6l-1.1-0.5l-0.9,0.1l-0.4,0.7l-2-0.5l-0.9,0.4l0.3-2l-0.5-0.8L346,346l-2.8-4.2l0.7-2.1l1-0.9l1.1,0.1l0.9,0.8
		l2.6,0.4l0.8,0.8l3.8,1l0.4,1l1.1,0.7l1.4-1.1l1.2,0.7l1.5-2.7l1,0.3l0.5-1.4h0.9l-1.2-2.3l-2.8-1.3l-0.2-1.3l-1.1,0.7l-1.4-1.2
		l1.6-1.1l0.9,0.5v-2.1l2.7-2.1l1.9-0.6l0.7-1.6l0.7-0.2l-0.6-1.7l-1.5-0.7l0.4-0.5l-0.2-1.4h1.7l1.4-2.1l2.3,0.6l0.5-1.4l-0.9-2.8
		l1.2-0.9l2.1,0.4l0.2-3.2l-1.1-0.7l1.4-1.7l0.9-0.2l-2.9-2.1l-1.4-4.3l-1.1-0.5l-0.5-0.9l1.6-1l-3.4-3.3l0.4-1.8l1.3-1.2l-2-1.9
		l-0.9,0.1l-0.2-0.8l-1.8-1.5l-2.5-0.8l0.8-1.6l-1-0.6l-0.3-2.4l-1.4,1.5l-0.4,2.5l-1-0.2l-0.5-1l-6.6-4.2l-1.3-1.5l-5.9-2.5
		l-0.5-2.3l-3.3-1.2l-1.4-2.2l-1.3-0.6l-0.4,1.3l1,1.3l0.2,1.8l-6.3-3.5l-1.9-1.8l-0.3-1.1l-0.8,0.1l-1.1-1.8l-3.7-2.9l0.5-0.9
		l-1.1-0.5l-0.3,0.4l-2.2-2h-0.7l-2.3,2.3l-1.6-0.3l-0.9-1.2l-1.2-0.1l-0.2,1.3l-2.1,2.8l-0.9-1l-4-1.7l-0.3-0.8l-4.2-2.5l-4-0.6
		l-1,1.6l0.7,0.8l-0.5,2.8l0.4,0.5l-0.1,2.4l-0.6,0.4v0.9l0.7,0.5l-0.4,4l-5.3-1.7l-0.2-1.4l-2.6-1.6l-1.2,0.3l-1.1-0.9l-0.6,0.4
		l-0.6-1.5l-1.8-0.4l-1.6-1.7l-0.1,0.4l-0.9-0.4l-1.5-2.1l-1.9-0.9l-1.6-2.1l-1.7,0.4l-3-1.1h-2.4l-1.3-1.1h-4.4l-0.3-0.5l-3.2,1.2
		l-1.6,0.1l-0.5-0.4l-1.7,0.5l-2.7-0.8l-0.7,1.1l-5,1.2l-1.1-0.3l0,0l-0.1-4.6l-0.9-1.5l-1.4-5.4l1.9-3.7l-0.1-6.5l5.6,0.4l3.6-2.3
		l2.1-4.4l2.5-3.5l8.6-8.9l5.1-2.6l5.8-1.3l1.9,0.5l2.2-0.3l1.6-0.9l0.8-2l-0.4-1.7l0.9-8.3l3.4-2l0,0l3.9-0.4l3.3,0.5L297.4,203.3z
		"/>
	<path id="CN-45" class="st0" d="M452.8,460.3l0.6,0.5l1.4-0.7l1,0.9l-0.8,1.5l1.6,0.2l0.5-0.7l-0.4-1.4l1-0.2l1.2-2.3l0.8,0.5
		l0.7-0.2l-0.2,1.8l1.1,0.4l0.5-0.7l0.7,1.5l0.9-0.2l0.6-1.7l1.6-1.2l1.3-2.2l1.2,0.6l0.4-0.3l0.2,0.9l2-0.1l0.6-1.8l0.3,0.9
		l3.4,0.8v1.9l-0.8,1.8l0.2,1.5l0.8,0.6l0.6-0.7l2,0.5l-0.9,0.4l0.2,0.9l-1.7,0.8l0.4,1.5l-0.5,2.2l-2.5,2.2l0.1,1l-1.1,0.7
		l-0.5,2.2l0.5,1.1l0.6-0.1l0.6-0.2v-1.2l2.1-1.6l1,0.7l0.6-0.5l0.5,0.4L477,474l0.6,0.3l-0.5,0.6l0.6,2.4l-0.5,1.8l1.6,0.4l1.8-2
		l4,0.6l0,0l-0.8,0.3l-0.4,1.2l1,1.1l-0.2,1.1l0.9,1.5l-1,1.3l-1.4,0.7l0.7,3.4l-1,0.2l-0.6,1.9l-2-0.1l-0.4,1.2l0.6,0.2l-0.6,1
		l-1.6,0.2l-0.1,1.2l-1,1l-0.6,2.5l0.5,1.6l-0.2,1l0.7,0.8l-0.9,1v1l-1.8,1.9l-2,0.3l0.4,0.5l-0.4,0.6l-3.2,1.3l-0.4-0.3l-0.3,1.6
		h-0.7l0.3,1.4l0.9,1.1l-1.1,0.1l-0.7,1.7l-0.9-0.6l-0.8,0.6l-1.1-0.8l-0.5,0.5l-0.5-0.3l0.5,4.1l-1-0.4l-0.7,0.5h-3.3l-1,3
		l-1.3,0.2l-0.4-0.5l-0.2,1.4l0,0v1.5l-1.3-0.8l0.2-1.1l-0.4,0.5l-0.3-0.2l-0.4-2.2l-0.4,0.1l0.4,2.1l-0.4,0.9l-3.6,1.1l-0.2-0.6
		l-0.2,0.8l-0.9,0.1l-1.5-0.6l1.5-0.9l-0.3-0.8l-1.1-0.5l-1.8,0.1l-0.8-1l0.2-1.3l-0.4,1.2l0.4,0.9l-1.6,0.3l-1.3-2.1l-0.5,0.6
		l-0.5-0.5l0.1-1.5l-0.4-0.4l-0.8,0.8l1.2,2.2l-1.1,1.4l-1.1,0.1l0.2-1.5l-0.7,0.9l0.1-0.7h-0.6v1.1l-1.3,1.1l0.4-1.6l-1.2,0.7
		l0.5,0.5l-0.8,0.2l-0.4-0.5l-1.7,0.2l-1.2-1.6l-4.2,0.9l-0.8-1l-1.3,0.9l-0.8-1.9l-0.9,0.5l-2.6-1.5l0.4-1.5l-1.2,0.2l-2.4-1.3
		l-1.1,0.4l0.1-4l-0.5-0.9l-1.2-0.1l0.4-0.4l-0.4-0.9l0.6-2.1l1.6,0.1l0.4-2l0.9-0.9l-3.9-2l-0.3,0.6l-1.9,0.7l-0.9-0.2l-1-1.6h-2.5
		l-0.1,0.7l-1.6,0.2l-1.7-1.9l-2-0.1l0.2-1l-0.7-0.6l0,0l-0.2-0.7l0.8-0.9l0.8-0.5l0.5,0.3l-0.5-1l2-0.9l0.2-0.7l2,0.4l0.2,0.6
		l1.8-1.7l-0.1-3.1l0.8-1l-1.3-2.2l-1.2-1.4l-1,0.1l-0.2,1l-0.7,0.3l-0.7-0.8l-1.4,0.4l-0.7-1.3l-0.9,0.1l-0.6,1.5l-2.1-1.3
		l-0.8,0.7l-1-1l0.7-0.7l-0.7-1.3l0.2-0.7l-1.9-1.4l-1.3,0.5l-2.9-0.5l-0.3,1.7l-1.1-0.8l-1.3-2.7l-0.3-1.1l0.6-1.1l0,0l2.5,1.5
		l1.4-0.8l0.4-0.9l2-0.7l0.5-1.7l1.7-1.1l0.8,0.9h1.9l1,1.8h1.1l2.7,1.4l1.5-0.3l1.1,1.2l1.9-1.8l0.3-1.4l-0.6-1.3l3.7-0.9l1.8-0.9
		l0.9-1.1l3-0.2l0.4-0.9l0.8,0.1l0.3-1.5l-0.6-1.2l1.4-1.1l-0.1-0.6l2.1-0.6v0.7l1.4,1l-0.4,0.8l1.4,0.5l0.1,1.5l0.6-0.2l-0.1,1.2
		l2.4-1.4l0.4,1.6l0.7-0.6l0.3,1.7h0.9l1.9-1h1.3l0.4-2.5l0.6-0.4l-0.5-0.5l1.1,0.2l1-1.5l1.2,1.3l1-0.1l1.4,1.8v-2l1.1-0.8
		l-0.2-0.7l0.6-0.7l0.9-0.1l0.3,1.4l1.6-0.4l1.3,0.5l0.4-0.4l-0.5-1.4l0.5-1.2l-0.9,0.1l-0.8,0.8l-0.6-0.5l0.9-0.3l0.3-0.7l1.5-0.3
		l0.3,0.8l0.6-0.2l-0.1-0.6l0.9,1.1l1.2-0.2v-1.3L452.8,460.3z"/>
	<path id="CN-52" class="st0" d="M453.7,450.6L453.7,450.6L453.7,450.6l0.4-0.6v0.5l0,0L453.7,450.6z M413.5,425l0.3-0.6l1.2,0.5
		l-0.4-0.6l0.7-1.3l-0.9-1.6l0.2-0.8l1.5,1.7l-0.2,0.4l1,0.4l-1.1,2.5l0.4-0.3l1.6,0.8l0.6-2.4l0.6,0.5l0.8-1.3l-0.8-0.8l0.2-0.5
		l0.8-0.6l1.1,0.5l0.3-1.5h1.4l1.4,1.7l1.1-0.6l1.4-1.9l-0.9-0.9l0.1-1.3l0.6-0.2l-0.2-1l0.5-0.3l0.4,0.4l1-0.6l0.3,0.7l1.2,0.4
		l1-0.6l1.1,3.2l1.3-1l0.8,0.1l0.7-0.9l1.6,0.2l0.5,0.6l0.9-0.8l1,4.2L438,423l1.7,0.7l1.3-0.5l0.8,0.3l-0.3,1.4L441,425l0.4,1.6
		l-0.4,0.9l1.2,0.3l0.2-0.9l-0.6-0.9l0.9-0.5l0.8,0.9v1.7l-0.6,0.7l0.5,1l0.6-0.6l2.3,1.2l0.4-0.7l0.8,0.3l0.8-3.1l1.5-1.3l0,0v2.6
		l0.3,0.6l1.1,0.1l-1,3l1,0.4l-0.9,1.1l0.5,1.7l-0.4,0.7l1.5,0.6l0.3,2.3l-1.9,1.4l-0.1,0.8l-1.2-0.4l-0.6,0.5l-0.2-0.4l-0.4,1.3
		l-0.8,0.4l0.2,0.5l-2,1.1l-0.3,1.5l-1.2,0.4l1.1,1.2l3-1.8l-0.2,0.7h0.8l1-1.1l2.8,0.3l-0.2,1l0.7-0.1l0.5,1.8l-1.5,1l1,0.1v1.6
		l-3,0.9l0.9,0.6l0.7,1.7l-1.7,2.9l0.8,1l1.8-0.6l-0.5,0.8l0.9,1.6l-0.5,0.6l0.2,0.7l0,0l-1.9,2.8v1.3l-1.2,0.2l-0.4-1.5l0.1,0.6
		l-0.6,0.2l-0.3-0.8l-1.5,0.3l-0.3,0.7l-0.9,0.3l0.6,0.5l0.8-0.8l0.9-0.1l-0.5,1.2l0.5,1.4l-0.4,0.4l-1.3-0.5l-1.6,0.4l-0.3-1.4
		l-0.9,0.1l-0.6,0.7l0.2,0.7l-1.1,0.8v2l-1.4-1.8l-1,0.1l-1.2-1.3l-1,1.5l-1.1-0.2l0.5,0.5l-0.6,0.4l-0.4,2.5h-1.3l-1.9,1h-0.9
		l-0.3-1.7l-0.7,0.6l-0.4-1.6l-2.4,1.4l0.1-1.2l-0.6,0.2l-0.1-1.5l-1.4-0.5l0.4-0.8l-1.4-1v-0.7l-2.1,0.6l0.1,0.6l-1.4,1.1l0.6,1.2
		l-0.3,1.5l-0.8-0.1l-0.4,0.9l-3,0.2l-0.9,1.1l-1.8,0.9l-3.7,0.8l0.6,1.3l-0.3,1.4l-1.9,1.8l-1.1-1.2l-1.5,0.3l-2.7-1.4h-1.1l-1-1.8
		h-1.9l-0.8-0.9l-1.7,1.1l-0.5,1.7l-2,0.7l-0.4,0.9l-1.4,0.8l-2.5-1.5l0,0l0.2-1.3l2.1-2.4l-0.4-0.9l-0.7-0.1l0.6-0.1l0.9-2l0.9,0.7
		l0.1-1.2l-2.1-0.6l-0.1-0.9l-1.2-0.6l0.2-1.6l-1.6,0.6l-0.1-1.4l-1.2-0.3l-0.2-0.7l0.1-1.3l0.7,0.2l0.8-1.9l0.2-2.8l0.8-0.3
		l0.3-2.2l1.8-1.7l-0.2-0.8l-1.2-1.3l-0.1-0.8l-1.4-0.3l-0.6-1.5l-0.9,1.3l-2.7-0.3l-1.5,1.8l-2.5-0.3l-0.8-1.2l0.3-1.5l-0.5,0.1
		l-0.4-1.1l0.9-0.9v-1.1l-1-1.4l-1.1,0.6l-0.2-0.9l0.7-0.1l-0.4-0.6l1-0.3l2.1-2.4l0.8-1.9l1,0.1v0.8l2.1,1.5l0.9-0.5l1.3-2.3
		l1.9,0.9l0.3,0.9l1,0.4l1.5-0.5l0.5,0.4l0.5-0.5l0.6,0.9l2.6-1.8l1.5,0.6l0.9-2l-0.4-0.4l1-1.1v-1.2l0,0l2.3-1l1.9,1.6l5.6-1.7
		l1.5,0.4l1.8-1l-0.2-2.1l-0.8-0.6l-0.1-1.1l-1.2-1l-1.4,0.3l-0.1,0.5l-1-0.5l-0.9,0.2v-1.7l-0.9-0.9l-0.5-0.4l-0.6,0.9l-1.1-0.6
		l-0.2-2.4l1.5-1.8l2,0.2v-0.8l1-1.4l4.4,3.7l0.7,0.2L413.5,425z"/>
	<path id="CN-46" class="st0" d="M468,540.5l1.2,2l2,0.1l1.2,4.7l-2.2,1.7l-0.5-1l0.8-0.2h-1.1l0.5,1l-1,1.6l-1,0.5l0.1,0.8
		l-1.6,2.3l0.2,1.5l-0.7,1.4l0.3,2l-0.9,0.3l-0.6,1.4l-1.6-0.1l-1.1,0.7l-1.2,1.2l-0.6,1.9l-1.5-0.4l-2.1,0.3l-0.5,2.4l-1.2-0.2
		l-0.5,0.9h-0.1l-0.1-0.6l-0.8-0.2L453,567l0.2-0.8l-0.5-0.4h-3.6l-0.9-1l-1.5,0.1l-0.4-0.6l-3.4-1.4l0.1-3l-0.9-1.4l0.5-1.3
		L442,555l0.8-0.9l-0.6-0.5l0.1-1.1l0.7-1.1h0.6l3.4-2.8l3.4-1.9v-0.6l-1.1,0.5l-0.4-0.7l1.3-1.5l0.6-0.2l2.4,1.1l0.5-1.5l1-0.6
		l1.1-0.1l1.3,1l0.2-0.7l0.4,0.5l1.1-0.7l1,0.6l1.3-0.7l0.4-0.8l1.5,0.5l1.2-0.8l2.7,1.2l0.3,1l-0.5-2.3L468,540.5z"/>
	<path id="CN-13" class="st0" d="M550.3,248.5l-0.8,2.6l0.3,0.7l1.3,0.5l-1.3,0.4l0.5,0.8l-0.5,2.4l-2.3-0.3l-0.3-1.1l-0.7,0.2l0,0
		l0.7-1.4l-0.4-1.1l-1.7-0.9v-2.1h2.8L550.3,248.5z M511.5,237.7l-1.2-1.5l0.4-0.5l-1.3-2.1l-1.9-1.9l1.2-1.2l0.9-0.2l0.4-0.9
		l-1.2-0.9l0.2-1.6l-0.9-0.9l2-1.4l2.8,0.2l-0.5-4.9l1.6-2.1l2-0.8l0.1-2.4l0.8-0.4l2.4,0.5l0.8-1l0.6,0.7l-0.6,1.2l1,0.9l0.6,2.8
		l-0.9,0.5l0.4,1.8l-0.4,1.8l3.2-0.6l1.6,0.9l0.5-0.8l0.3,0.5l0.8-0.3l-0.7-1l0.3-0.6l4-2l2.3-1.9l1.2-0.1l0.9,2.7l0.7,0.1l0.7-0.2
		l0.1-1.1l1.1-0.2l0.3-1.1l1.4-1.2l1,0.2l-0.2,0.9l1.3-0.6l0.7,0.9l2.2-0.1l0.2-0.8l1.7-0.6l0.1-1.6l-1.2-1.5h1.6l0.1-3.6l2.2-1.3
		l3.6,0.4l1.1-1.1l0.1-1h0.8l0.2-0.4l0.7,0.8l2.5-0.8l2.8,3.7l-0.1,0.8l0.6,0.8l-1.2,0.9l1.7,1.2l-0.2,1.1l0.8,0.5l-0.5,0.8l1.1,0.1
		l0.2-0.8l0.6-0.1l0.3,0.8l-0.6,0.2l0.9,0.7l-0.6,1l0.9,1.2l-0.7,1.4l-1.4-0.8l-0.5,1.2l1.2,2.6l1.2,0.4v0.9l-0.9,0.5l1,0.8l0.2,1.8
		l2.1-0.6l2.9,0.5l1.1-0.8l0.6,1.2l0.7-0.3l3.2,0.6l0.5-0.5l0,0v1l-0.9,0.6l0.2,0.6l-1.3,0.9L574,232l-1.6,0.3l-0.1,0.6l1.1,0.5
		l-0.4,0.7h-1.2l-0.6,2.7l2.6,2.2l1.6-0.4l-0.3,1.5h1l-0.1,0.6l0.7,0.6l3.8-0.1l0.3,3.2l0.7,1.2l-0.3,0.6l1.5,0.7l0.4,2.4l0.9-0.1
		v0.9l0,0l-3.5,1.4l-0.5,0.3v1.2h-0.8l-1.3,1.1l-1.3,3.6l0.6,1.6l-0.5,0.9l-0.8-0.2l-2.6,3l-3.2,1l-1.8-0.5l-3.4,2.4l-1.4-0.5
		l-2-2.6l0,0l-0.7-2.3l-0.9-0.7L559,260l0.8-3l-2.1-0.4l-0.7,0.9l-0.2-0.7l-0.9-0.2l0.6-1.2l-1.5-1.8l-0.5-1.8l0.4-1.6l2.1-0.1
		l0.7,0.4l0.3-0.8l-0.7-0.2l0.1-0.9l-1.3-0.4l-1.2-2.1h-2l0,0l-2-2.4l-0.3-2l1.3-1.3h1.7l-0.2-0.9l0.9-0.1v-0.5l-2.4,0.2l-2.1-0.8
		l-1.8,0.1l-1.9-2.3l-1.7-1.1l-0.6-1.3l0.3-0.9l-0.7-0.4l-0.6,1.4H541l0.2,1.4l-1.7-0.6l1.5,2.7l-0.6-0.3l-1.5,0.5l-0.7-0.5
		l-1.7,2.9l-1.5,0.6l-1-0.6l-1.9,1.2l-0.3,0.6l0.5,0.2v0.8l1.8,1.5l0.6,1.5l-1,0.7l-0.5,1.3l-0.7-0.6l-0.4,0.7l-1.8,0.3l-2.1,1.5
		l-0.3,1.2l1.2,0.7l0.1,1.1l0.6,0.5l-1.8,0.7l0.8,0.6l-0.1,1.4l1.1,0.9h1.5l0.9,1.4h0.7l1.5-1.4l0.5,0.5l0.3-0.4l2.5,0.2l2,2.1
		l1.4,0.2l-0.6-1.2l2.2-1.7l1.8,0.5l-0.1-0.5l1.3,0.1l0,0v2.5l0.8,0.5l-0.4,1.4l0.4-0.3l0.4,0.5l-0.4,2.1l1,1l-0.4,1.2l-1.8,0.6
		l-0.6,1.5l0.6,3.1h1.1l1,0.8l1.3-0.2l1,1.9l1.6-0.7l0.4,0.9l3.7-0.6l0.2-0.8l0,0l1.8,4.4l2,2l0,0l-2.1,2.9l-1.6,0.1l-1.8,3.5
		l-8,0.3l-4.5,5.7l-1.4-1.6l-0.7,1.8l-0.6-0.1v0.7l0.7,0.4l-0.5,0.6l-1-0.3l-2.3,0.7l-0.2,1.6l-0.7,0.5l-0.5,2l-1.1,1.2l-1.2,2.8
		l-2.5,0.8l-1.8,2.3l-0.7,1.9l1,2.9l0.8-0.2l0.6,1l0.1,1.4l0,0l-1.9,1.3l-1-1.6l-1.5-0.4l-0.2,0.6h-0.7l-0.6,1.5l-1.1,0.4l-0.4-1.4
		l-3.8,0.2l-2.4-1.6l-4.3-0.8l-0.6-1.3h-0.6l0.1,0.6l-0.3-0.6l-1.4,0.4l-1.4-0.4l0,0l-0.3-1l-1.9-1.1l0.4-1l-0.5-1l-0.8-0.3l0.4-1
		h-0.5l2.7-1.3l0.2-1.5l0.7,0.5l0.5-0.4l-0.3-4.2l1.5-1.5l3.2-6.9l-0.9-0.7l-0.9,0.2l0.6-1l-0.9-0.8l-1.2-3.9l-0.8-0.8l0.2-0.7
		l-3.2-1.1l-0.5-0.7l-0.2-1.8l0.7-1.3l-0.3-1.5l0.6-1.4l1.2-0.1v-0.9l0.6,0.1l0.5-1l0.5,0.1l0.2-1.1l-1-0.9l-0.1-1.4l1.5-1.5l2-1.2
		l0.8,1.4h1.1l1-1.2l0.9,0.6l0.4-1.3l1-0.7l-0.6-0.5v-0.9l1.7-4.1l-1.8-1.7l0.4-2.3l-0.6-1.2h-2.2l-2-0.9l-0.5-1.2l-1.4-0.3l0.8-0.5
		l0.3-1.4l0.5,1.1l0.6-0.2v-1.9l0.6,0.2l1.3-0.4l0.3-0.7l2.5-0.4l1-1.2l-1-0.7l-1.7,0.1l-0.6-1.9l0.2-1.7l-1-0.6L511.5,237.7z"/>
	<path id="CN-41" class="st0" d="M506.4,308.1l1.4,0.4l1.4-0.4l0.3,0.6l-0.1-0.6h0.6l0.6,1.3l4.3,0.8l2.4,1.6l3.8-0.2l0.4,1.4
		l1.1-0.4l0.6-1.5h0.6l0.2-0.6l1.5,0.4l1,1.6l1.9-1.3l0,0l-0.4,2.4l-1.2,0.7l0.1,2.8l1.6-1.5V315l0.8,0.3l3.3-1.8l2.5-0.7l0.7-0.8
		l0.5-0.1l0.1,0.5l-0.9,1.8l-1.5-0.1l-0.7,1.1l0.2,0.6l-2,0.3l-0.8,1.6l-2,0.2l-1.6,2.6l-0.5-0.2l0.3,1.4l-1.7,1.1l-0.5-0.5
		l-1.9,1.1l-1.1,2.6l-1.1,0.5l-0.5,2.3l1.4,0.8l2.5-0.6l1.3,0.7l-0.2,0.7l0.7,0.2l-0.1,0.9l0.6-0.2l1.7,1.1l0.2,1.9l1.2,1.4l1.8,0.3
		l0.3-0.6l1.7,0.6l1.8-0.4l0.4-0.5l0.4,0.5l0.8-0.2l0.4,0.7l0.7-0.3l0,0l-0.4,1.8l0.7,1.2l1.9,1v0.7l2.7-0.1l-0.6,2.5l1.5,2.2
		l-0.1,1.3l-1-0.3l-1.5,0.8l-0.1,0.7l-3.5,1.5l-1.1-1.1l-0.2-1.2l-0.9-0.7l-0.2-1.5l-1-0.5l-0.4,0.4l-0.6-1l-2,0.1l-0.6,0.5
		l-0.7,2.3l1.1,0.2l-0.2,1.3l-0.6,0.1l0.9,2.9l-2.8,0.4l-0.2,0.8h-0.7l-0.4,1.9l0.6,0.8l-0.9,2.9l-1.8,0.7h-1.4l-1.2-1.1l-0.4,0.5
		l0.3,1.6l-0.6,0.6l4,1.9v4h1.3v0.5l1.3-0.3l1.8,2.5l1.4-0.1l0.4-1.3l0.8,0.3l0.2-0.4l0.2,0.6l1.8-1.5l-1,0.9l0.5,0.3l0.7,4.8
		l-0.3,5.5l-1.2,0.5l-1.7-0.3l-2.3,1.6l-0.1,0.9l-1.4,1.6l-0.1,1.4l0,0l-0.8,0.3l-1.1-0.6l0.2-1.9l-1-0.8l-0.7,1.3l-1-0.1l-0.3,0.8
		l-0.3-0.4l-1.7,0.6l-2.6-1.9l-0.9,0.5l0.2-3.1l-1.6,0.5l-2-0.3l-0.7-1.2l-0.8-0.3l-2.5,1.4l-0.3-1.5l-0.5-0.3l-0.9,0.5l-0.4-1.8
		l-0.7-0.4l0.4-0.7l-0.7-1.2h0.4l0.2-1.1L507,371l0.4-1.7l-0.5-0.8l-0.8-0.1l-0.5,0.9l-2.6,1.3l-2.7-2.3l-0.9,0.7l-1.4-0.7l-0.5,0.8
		l-1.5-0.4l-1.3,0.8l-2.7-0.9l-1.4,0.7l-1-0.2l-0.5,0.6l-1.2-1l-1,0.1l-1.1-1.3l-0.7,0.2l-0.7-0.9l-0.8,0.2l-2.1-1.5h-1l-0.1-0.4
		l-0.9,0.6l-1.9-2l0.6-0.7l-0.7,0.2l-1.6-2.1l-0.5,0.2l0.3-1.3l-0.4-1h-1.1l0.5-0.7l-1.2-1.4l-0.7,0.4l0.2-0.5l-0.9-1l0,0l0.6-1.2
		l-0.3-3.5l-2.6-1.7l-0.7-1.9l-2.1-0.9l-0.1-0.6l1-0.8l-1.1-1.2l0.7-2l-2.5-1.2l-0.2-0.6l0.9-0.7l-0.2-1.2l-0.6,0.1l-0.8-1.5
		l0.5-0.8l-0.2-0.6l0,0l3.8,0.2l0.9-1l1.8-0.1l0.4-1.1l0.5,0.4l2.4-1.6l0.9,0.2l4.4-0.9l1.3-1.5v-0.7l1.7-0.6l0.3-0.6l1.6-0.1l1,0.7
		l0.4-3.8l2,0.8l0.9-0.4v0.5l0.6,0.1l0.8-0.5l2.8,0.4l0.4-0.7l0.3,0.7l1,0.3l0.8-0.8l1.4,0.1l0.9-0.8l-0.1-0.7l1.6,0.3l1.2-1.7
		l1.1,0.2V322l2.5-0.8l0.7-1.8l0.9,0.2l-0.6-2.8l1-0.3l-0.2-2.3h0.6l0.2-0.6l-0.5-0.2L506,312l0.7-0.2l-0.6-0.4l0.5-0.2l-0.3-0.3
		L506.4,308.1z"/>
	<path id="CN-91" class="st0" d="M512.9,511.9l0.3,1.1l-0.5-0.3l-0.1,0.5l-1.2-1.1L512.9,511.9z M510.5,511.1l-0.5,1.8l-0.4-0.3
		l-1.7,0.4l0.7-1.1L510.5,511.1z M508.8,510.3l1.6-1.4l0,0l1.5-0.8l0.8,0.2l0,0l-0.2,0.3l0.6-0.3l0.2,0.6h0.8l-2,0.9l1.1,0.3
		l0.7-0.8l1,0.6l-0.5,1.2l-1-0.6L513,511l0.8,0.7l-0.2,0.5l-2.5-1.5h-2.3V510.3z"/>
	<path id="CN-23" class="st0" d="M629.4-0.4l0.4,0.1l0.2-1.1l0.2,1.2l0.7-1.1l1.2,1.2l2.3,0.1l3.3,3l1.6-0.5l2.6,3.3l3.2,0.4
		l0.2,0.8l1.4,0.4l0.5,0.8l0.2-1.4l1.2-0.7l2.8,0.1l3.3,1.9l0.6,1.1l1.2-0.6l1.7,1.9l-0.2,1.1l-0.8,0.5l0.2,1.1l2-0.8l1.7,2.8l1-0.7
		l0.7,0.5l-0.8,0.7l0.2,1.4l-1.1,0.3v1l0.4,0.6l0.8-0.4l1.6,1.4l-0.1,1.4l0.9-0.1l1.1,1.5l-0.2,1.9l1.4,0.4l-1.8,1.6l3.3,1.8
		l-0.5,1.8l-0.9,0.2l0.2,1.6l2.5,4.4l0.8,0.3l0.1,1.6l-0.7,0.8l2,1.4l-0.5,2l1.6,0.8v0.9l-1.2,0.4l0.3,1.3l0.8,0.2l-0.4-1.3l1.3-0.2
		l-0.9,2.4l0.2,2.8l2.4,2.6l1.5,3.1l0.8,0.6l-0.2,1.2l1,2.1l-0.9,2.1l0.9,1l-0.2,2.1l3.2,1.8l-0.1,1.3l-1.3,2.7l0.7,1.8l-0.2,2.1
		l1.6,0.8l0.4,2l1.5,1.6l1.3,0.3l0.6-0.7l1.4,1.4l2.1,0.4l0.2,0.4l1.7-1.7l1.9-0.3l2.2,0.7l0.4-0.5l0.7,0.5l-0.6,1.7l3.1,0.5
		l1.1,1.9l1.5-0.9l1.7,0.9l0.5-1.5h1.1l0.6,0.4l0.4,2.3l2.1,0.2l0.4,1.5l1.3,0.6v0.9l0.9,0.4l0.1,1.1l3.8,3.3l2.5-0.7l1.2,0.9
		l1.9-0.4l-1.8,4.9l1,0.7l0.2,1.8l1.7-0.1l-0.3,1.3l1.2,2.3l-2.2,3.8l0.3,1.1l2.7,2.8l1.1,3.7l1.4,0.3l2-1l2.4-0.1l2.2,1.5l1-0.9
		l1.3,0.7l2,0.1l0.4-0.8h3.1l0.9-0.9l3.1,0.7l1.4-4.3l1.7,0.4l0.9-1.4l1.7-0.3l0.3-0.7l1.6-0.9h2.3l1.7,0.7l3.8-2.5l1.1,0.2l0.3-1.4
		l1.5-0.3l0.5-1l4.3-1l1.5,0.7l0.7-0.4l0.8,1.3l1,0.4l-2,5.3l0.5,1.6l0.9,0.2l0.2,1.3l1.2,1.3l-0.2,1.4l-3.3,4.4l-2,0.1l-1.9,2.1
		l-0.4,1.4l0.8,0.9l0.1,1.4l-1.4,1l-1.2,4.4l0.4,0.9l-0.4,2.2l-1.3,1.3l-0.8,2l1.2,1.4l-0.9,0.9l0.7,0.3l-0.1,1l-0.8,1.2l-0.5-0.4
		l-1.6,1.4l0.6,1.8l-0.9,2h-0.7l-0.3,1.3l-0.8-0.5l-0.5,0.6l-0.2,1.1l0.5,0.3l-0.9,1.6l0.7,0.2l-0.4,0.6l0.3,0.6l-0.8,0.1l0.1,0.6
		l-0.9,0.4l-0.3,1l-0.7-0.5l-1.4,1l-0.9,4.1l0.6,2.1l-2,1.8l-1.5-0.6l-2,6.5l-1.7,2.4l-3.1-1.1l-2.6-2.2l0.9-3.8l-1.6-5l-1.6-0.8
		l-0.5-1l-0.8,0.5l-0.6,1.7l-1.2-0.1l-0.4,1.1l0.5,0.8l-2.7,2.1l0.2,0.5l-1.9-0.2l-0.8,1l-2.2-0.1l-0.2,0.7l-1.6,0.6l1.9,2.9
		l2.4,10.8l-1.1,4.5l0.3,3.9l-0.4,1.3l1,0.8l0,0l-1.7,1.2l-1.6-1.6l-2,1.2l-0.6-1.2l-2.4-1.5v-0.5l-1.4-0.1l-2.4-5.6l0.2-1.7
		l-3.2,3.6l-0.9-0.3l-0.3-2.4l-0.8-0.6l-2.1,1.2l0.1,1l-0.6,0.4h-3l-1.8,1.4l-1.3-0.3l-0.4,0.5l-0.1,3.6l-2.5,1l-0.7-0.5l-0.9,0.1
		l-1.3-3.2l-0.6-0.2l0.4-0.4l-0.9-2.2l-0.5-0.1l-2.3-4.7v-3.8l-1.3-2.4l-2,1.5l-0.5,1.5l-1.4-0.2l0.6,1.2l-0.5,0.6l0.5,0.5l-0.7,0.6
		l0.7,0.9l-2.5,1.2l-1.5-0.1l-0.6-0.5l-0.2-1.7l-0.4,0.5l-1.1-0.7l0.2-1.3l-1.7-2.1l0.3-0.7l-0.6-1.2l1.1-0.3l0.1-0.9l-1.7-1.1
		l-1.6-0.1l-0.2,0.6l-1.1-0.8l-1.6,1.4l-0.8-4.5l1.2-2.3l-1.5-2.2l-0.1-1l-2.1-0.1l-2.9-2l-1.7,0.3l-0.9,0.9l-0.8-0.1l-0.6,0.9
		l-3.5-0.5l-1.9-1.1l-1.5-1.9l-0.1-3.1l-1.1-0.1l-1.4,0.8l-0.7-0.3l0.2,0.5l-1.3,1.1l-0.7-0.6l-0.1,0.6l-0.5-0.5l-2.1,0.7l-0.7-0.9
		v-1.1l-1.2,0.1l-0.4-0.8l-0.9,1.8H646l-0.2-0.5l-1.7,0.6l-0.6-0.3l-0.5,0.8l-0.9-0.9l-1,0.3l-0.5-1.9l-1.1-0.1l-0.5-1.4l-0.9,0.2
		l-0.3-1.3l-1.6-1.2l0.8-1.7l-1.4-1.7l0.7-0.7l-0.2-0.6l0.6-0.2l-0.5-0.7v-1.7l-0.5-0.1l-0.1-2.2l-0.7,0.6V140h-0.7l-3.5,1.3
		l-0.8-0.5l-1.7,0.6l-1.6-0.9l-0.9,0.4l0,0l-2-3.1l-0.2-2.8l0.6-0.2v-0.7l2.2,0.5l0.7-1.3l4.1-0.5l0.5-2.2l-0.8,0.8l0.5-0.3
		l-0.2-0.9l-0.4-0.1l-0.2,1.2h-0.7l-0.3-0.5l0.7-1.9l-1.5,0.2l-1.2-1.1v0.8l0.8,0.6l-0.2,1.3l-1.9,0.3l-0.7,1.9l-1.9,0.5l-1.5-1.8
		V129l-1.2,0.4l-0.4-0.7l1-1.4l-3-1.3l-2.7-4.1l1.3-1.2l0.9-2.4l7.7-5l1.6-3l3.4-1.5l5.3-6.3l3.4-2.9l0.6,0.9l-0.1,2.3l0.5,1.5
		l0.9,0.8l-0.2,1l0.8,0.5l-0.7,1.5l1-0.7l0.9-3.3l-0.8-1.4l0.5-1.7l-0.4-1.6l1-1.6l0.2-2.2l0.5-1.4l0.6-0.3l0.1-1.5h0.5l0.9-2.4
		l-0.2-1.3l1.2-1.3l1.8,0.1l1,1l1.3-1.2l0.6-5.1l-0.8-1.6h0.4v-1.1l-1.3-1l0.6-1.1l0.5,0.9l0.3-0.7l0.1-2.6l-0.6-0.6l0.6-0.1
		l0.2-0.7l-0.8-1.7l1.4-0.9l-0.5-0.9l1.1-0.2l-0.8-0.4l0.1-1l1.2-0.2l-0.5-0.5l1.6-1.2l-0.1-1.3l0.8-0.3l0.3-0.9l-0.5-1l0.8,0.1
		l-0.2-0.8l0.9-0.1l0.9-0.8l-0.3-0.3l1.9-1l-0.5-2.6l0.5-0.5l-0.9-1l0.4-0.4l0.7,0.3l-0.2-0.6l1.2-0.9l-0.3-0.5h0.8l0.1-0.8l0.5,0.5
		l1-1.9l-0.6-0.7l0.3-0.6l-1-1l0.2-0.8l-0.7,0.2l-1-0.7l-0.1-1.3l-1.3-0.4l-0.7-2l-4.4-5.9l-2.7-0.2l-0.2-0.6l-0.6,0.6l-0.2,1.9
		l-1.7,0.8l0.2,1l-0.8,1.3l-1.3-0.1l-0.5,0.9l-1.2,0.4l-0.7-0.9l-1.1-0.2l-0.7,0.5l-0.4,1.7h-0.7l-1.6-1.6l-3.8,1l-1.1-1.3l-0.6,0.1
		l-1-0.8l-0.7,1.6l-4.7,1.4l-2.8-1.4l-0.9,0.2l-0.5-1.6l-1.4-1.7l0.4-1.3l-1.7-4.1l0.3-0.7l-0.8-2.2l0.2-1.8h-0.6l-0.7-1.8l0.1-1.4
		l1.3-0.4l0.6-2l-3.9-0.9l-0.4-2l-0.5,0.3l-1.2-2l-1.3,0.1l-0.5-0.9L610,25l-1.4,0.3l-1.5-0.7l-0.8-2.6l-1.6-0.3l-2.5-2.4l-1.7-0.5
		l5.2-5l0.1-1.1l2.7-3.7l-0.8-1.7l-1.2-0.7l0.2-1.4l-2.2-1.8l0,0l4.7-1.9h2.8l0.8-1l1.3,0.1l1-0.7l1.5,1.2l5.1-0.2l2.6-1.2l1.3,0.2
		l1.5-1.2l2.3,0.6L629.4-0.4z"/>
	<path id="CN-43" class="st0" d="M449.6,416.5l0.5-0.2l-0.2-1.3l1.2-0.9l-0.1-0.9l0.9-2l0.4,0.1l-0.1-0.6l0.4,0.2l0.7-1.5l2.5,0.2
		l-0.3-0.9l0.8-0.3l0.1-1l1.2-0.3l3.1-0.2l3.2,2.2l1.2-1.1l0.9,0.2l1.4-1.1l-1.7-2l0.6-1.1l-0.7-0.6l1.9-0.7l1.2,0.5l0.1-1.1
		l0.9-0.1l1.2,0.2l0.1,0.7l4.1,0.4l1.8,1.8l1.7-0.2l0.3,0.5h1.4l1.1-0.4l2.7,1.2l0.2,0.7l1.1,0.7l0.1-0.4v1.3l1.6,0.8l0.6-0.5
		l-0.1,0.6l0.9,0.5l-0.2,1.3l2-2l3,0.5l2.6-3l0.6,1.6l1.1-1.2l-0.2,1l-1.3,1l0.4,2.3l1.2-0.5l0.5,1.1l0.7-0.1l5.5-5.9l-0.3,2.4h1.5
		l0.9,1.5l-1.4,0.8l1.5,1l-1.8,2.7l1.2,0.4l-0.5,1l0.4,1.1l0.5-0.3l0.2,0.7l1-0.6l0.8,1l0.9-0.1l0,0l0.2,1.4l0.5-0.1l0.8,1.6
		l1.1,0.3l-0.3,3.1l-0.6,0.8l1.6,0.9l-0.5,0.7l1,0.6v1l-2.1,2l-1.2,0.1l0.5,1.8l-1.5,0.8l-0.8-0.2l-1.2,1l-0.4,0.8l0.4,1.2l-1.9,2.4
		l-0.4,1.4l0.6,0.4l-0.5,0.6l0.3,1.7l1,0.2l2.2-0.7l-0.1,1.4l-1.3,2.6l2,2.1l-0.9,1.9l0.3,2.1l0.6,0.5l2.7,0.4l-0.4,2.5l-0.7,0.4v1
		l-1.2,2l1.2-0.3l0.5,0.4l1.1-0.6l0.8,0.8l-1.7,1.2l-0.7-0.1l-0.4,0.8l0.2,1.3l-1.5,2.8l1,2.3L509,468l0.3,0.3l0,0l-1,0.3l-0.8,1.5
		h-0.7l-0.2-0.5l-2.2,0.7l-0.5-0.7l-2.1-0.5l-0.8-0.6l-0.1-1l-1.7,0.5l-0.4,1l-1.4,0.9l-1.1,0.6l-0.9-0.4l0.1,1.2l1.4-0.1l0.7,0.8
		l-0.9,0.5l0.6,1l-0.4,0.8l0.4,1.3l-1.8,0.5h-1l-1.5-3.2l-1.5,0.1l-1.2-0.8l-0.6,0.5l-0.4-0.7l-1.3,0.5l-0.6-0.6l-1.2,3l0.7,1
		l-0.2,1l-1.7,1.4l0,0l-4-0.6l-1.8,2l-1.6-0.4l0.5-1.8l-0.6-2.4l0.5-0.6l-0.6-0.3l0.2-0.8l-0.5-0.4l-0.6,0.5l-1-0.7l-2.1,1.6v1.2
		l-0.6,0.2l-0.6,0.1l-0.5-1.1l0.5-2.2l1.4-0.8l-0.1-1l2.5-2.2l0.5-2.2l-0.4-1.5l1.7-0.8l-0.2-0.9l0.9-0.4l-2-0.5l-0.6,0.7l-0.8-0.6
		l-0.2-1.5l0.8-1.8v-1.9l-3.4-0.8l-0.3-0.9l-0.6,1.8l-2,0.1l-0.2-0.9l-0.4,0.3l-1.2-0.6l-1.3,2.2l-1.6,1.2l-0.6,1.7l-0.9,0.2
		l-0.7-1.5l-0.5,0.7l-1.1-0.4l0.2-1.8l-0.7,0.2l-0.8-0.5l-1.2,2.3l-1,0.2l0.4,1.4l-0.5,0.7l-1.6-0.2l0.8-1.5l-1-0.9l-1.4,0.7
		l-0.6-0.5l0,0l-0.2-0.7l0.5-0.6l-0.9-1.6l0.5-0.8l-1.8,0.6l-0.8-1l1.7-2.9l-0.7-1.7l-0.9-0.6l3-0.9v-1.6l-1-0.1l1.5-1l-0.5-1.8
		l-0.7,0.1l0.2-1l-2.8-0.3l-1,1.1h-0.8l0.2-0.7l-3,1.8l-1.1-1.2l1.2-0.4l0.3-1.5l2-1.1l-0.2-0.5l0.8-0.4l0.4-1.2l0.2,0.4l0.6-0.5
		l1.2,0.4l0.1-0.8l1.9-1.4l-0.3-2.3l-1.5-0.6l0.4-0.7l-0.5-1.7l0.9-1.1l-1-0.4l1-3l-1.1-0.1L451,428v-2.6l0,0l0.6-1.3l-1.7-0.4
		l1.5-1.6l-1.6-0.7l-0.1-1.4l1.1-2.4L449.6,416.5z M453.6,450.6l0.5-0.6v0.5l0,0L453.6,450.6z"/>
	<path id="CN-42" class="st0" d="M454,378.4l0.7-1.2l-0.7-1.3l0.6-0.6l-0.6-1.2l0.4-1.1l-0.2-1.5l-1.4-1.4l0.4-2l1.4-1.6l-0.2-0.8
		h3.7l1.4,0.7l0.9-1l0.9,0.3l0.5-0.6l-0.7-0.9l-0.2-1.8l-1.5-1l-2-0.6l-0.9,0.5l-0.4-0.4l0.3-2.4l-4.4-1.2l0.9-1.2h1.2l0.4-0.6
		l1,0.6l1.7-0.2l2.3,0.8l1.7-0.3l0.9,0.8l2.4-0.2l1.7-1.2l0.5,1.5h0.7l0.7,0.9l0.4-0.8l0.9-0.1l0.2-0.9h1l0.9-0.8l0,0l0.9,1
		l-0.2,0.5l0.7-0.4l1.2,1.4l-0.5,0.7h1.1l0.4,1l-0.3,1.3l0.5-0.2l1.6,2.1l0.7-0.2l-0.6,0.7l1.9,2l0.9-0.6l0.1,0.4h1l2.1,1.5l0.8-0.2
		l0.7,0.9l0.7-0.2l1.1,1.3l1-0.1l1.2,1l0.5-0.6l1,0.2l1.4-0.7l2.7,0.9l1.3-0.8l1.5,0.4l0.5-0.8l1.4,0.7l0.9-0.7l2.7,2.3l2.6-1.3
		l0.5-0.9l0.8,0.1l0.5,0.8l-0.4,1.7l0.5,0.7l-0.2,1.1h-0.4l0.7,1.2l-0.4,0.7l0.7,0.4l0.4,1.8l0.9-0.5l0.5,0.3l0.3,1.5l2.5-1.4
		l0.8,0.3l0.7,1.2l2,0.3l1.6-0.5l-0.2,3.1l0.9-0.5l2.6,1.9l1.7-0.6l0.3,0.4l0.3-0.8l1,0.1l0.7-1.3l1,0.8l-0.2,1.9l1.1,0.6l0.8-0.3
		l0,0l1.2,2l0.8,0.2l0.6,1.6l1-0.9l1.5,1.4l1.3-0.5l0.8,1.5l1.3,0.4l0.4,0.8l-2.6,1.4v1.3l-1.1,0.3l-0.3,1l2,2.4l-0.2,1l0.6,0.4
		l-0.8,0.6l0.3,1l1,0.2l1.1,1.3l0.1,3.5l0.8,2l0,0l-1.1,1.1l-1.5,0.4l-3.2-1.9l-2.1,0.2l-0.5,1.4l-2.3,1.7l-0.3-0.5l-2-0.3l0.3,1.2
		l0.5,0.1l-0.2,1.1l-2-0.8l-0.6,0.6l0.1,0.5l-0.7-0.4l-0.4,0.7l0.3,0.5l0.6-0.3l-0.7,1.1l-1.7,0.4l-1-0.5l-2,1.1l-3.1-0.4l-0.2,1.7
		l-2.3,0.4l-1.5,2.4l0,0l-0.9,0.1l-0.8-1l-1,0.6l-0.2-0.7l-0.5,0.3l-0.4-1.1l0.5-1l-1.1-0.4l1.9-2.7l-1.5-1l1.4-0.8l-0.9-1.5h-1.5
		l0.3-2.4l-5.5,5.9l-0.7,0.1l-0.5-1.1l-1.2,0.5l-0.4-2.3l1.3-1l0.2-1l-1.1,1.2l-0.6-1.6l-2.6,3l-3-0.5l-2.1,2l0.2-1.3l-0.9-0.5
		l0.1-0.6l-0.6,0.5l-1.6-0.8v-1.3l-0.1,0.4l-1.1-0.7l-0.2-0.7l-2.7-1.2l-1.1,0.4h-1.4l-0.3-0.5l-1.7,0.2l-1.8-1.8l-4.1-0.4l-0.1-0.7
		l-1.2-0.2l-0.9,0.1l-0.1,1.1l-1.2-0.5l-1.9,0.7l0.7,0.6l-0.6,1.1l1.7,2l-1.4,1.1l-0.9-0.2l-1.2,1.1l-3.2-2.2l-3.1,0.2l-1.2,0.3
		l-0.1,0.9l-0.8,0.3l0.3,0.9l-2.5-0.2l-0.7,1.5l-0.4-0.2l0.1,0.6l-0.4-0.1l-0.9,2l0.1,0.9l-1.2,0.9l0.2,1.3l-0.5,0.2l0,0l-1.5-1.2
		l0.3-0.9l-0.8-1.9l-2,1l0.3-1.4l-0.9-0.8l0.5-1.8h-0.4l-0.2-0.8l-0.7,0.2v-0.6l-0.4,0.4l-1-0.7l-0.3-2.3l-0.8-0.1l-1.1,2.1
		l-0.9-0.3l-0.2-1.1H439l0.7-1l1.1,0.2l0.2-1.8l-0.4-0.9l0.9-2.8l-2.2-2.1l0.3-1.4l1.9,0.2l0.9-1l-0.2-0.6l0.7-0.1l0.5,1.3h1.1
		l2.7-2.3l1,0.1l-0.4,1.2l0.6,0.5l2.1-1.5l0.5,2l1.4-1.9l1-0.8l0.5,0.3l2.5-2.9l2.9-0.7l0.2,1l0.7,0.5l1.1-2.7l-0.6-1.6l0.9-0.8
		l-0.7-3.6l-2.5-1.3l0.4-0.5l-2-0.8l-1.1,0.2l0.1-2.1L454,378.4z"/>
	<path id="CN-22" class="st0" d="M625.8,141.9l0.9-0.4l1.6,0.9l1.7-0.6l0.8,0.5l3.5-1.3h0.7v0.8l0.7-0.6l0.1,2.2l0.5,0.1v1.7
		l0.5,0.7l-0.6,0.2l0.2,0.6l-0.7,0.7l1.4,1.7l-0.8,1.7l1.6,1.2l0.3,1.3l0.9-0.2l0.5,1.4l1.1,0.1l0.5,1.9l1-0.3l0.9,0.9l0.5-0.8
		l0.6,0.3l1.7-0.6l0.2,0.5h0.8l0.9-1.8l0.4,0.8l1.2-0.1v1.1l0.7,0.9l2.1-0.7l0.5,0.5l0.1-0.6l0.7,0.6l1.3-1.1l-0.2-0.5l0.7,0.3
		l1.4-0.8l1.1,0.1l0.1,3.1l1.5,1.9l1.9,1.1l3.5,0.5l0.6-0.9l0.8,0.1l0.9-0.9l1.7-0.3l2.9,2l2.1,0.1l0.1,1l1.5,2.2l-1.2,2.3l0.8,4.5
		l1.6-1.4l1.1,0.8l0.2-0.6l1.6,0.1l1.7,1.1l-0.1,0.9l-1.1,0.3l0.6,1.2l-0.3,0.7l1.7,2.1l-0.2,1.3l1.1,0.7l0.4-0.5l0.2,1.7l0.6,0.5
		l1.5,0.1l2.5-1.2l-0.7-0.9l0.7-0.6l-0.5-0.5l0.5-0.6l-0.6-1.2l1.4,0.2l0.5-1.5l2-1.5l1.3,2.4v3.8l2.3,4.7l0.5,0.1l0.9,2.2l-0.4,0.4
		l0.6,0.2l1.3,3.2l0.9-0.1l0.7,0.5l2.5-1l0.1-3.6l0.4-0.5l1.3,0.3l1.8-1.4h3l0.6-0.4l-0.1-1l2.1-1.2l0.8,0.6l0.3,2.4l0.9,0.3
		l3.2-3.6l-0.2,1.7l2.4,5.6l1.4,0.1v0.5l2.4,1.5l0.6,1.2l2-1.2l1.6,1.6l1.7-1.2l0,0l0.4,1.5l-1.5,3.2l0.1,1.2l-1.3,2l0.4,1.5
		l-1.5,0.2l0.1,1l-2.5-0.3l-0.6,0.7l-1.1-0.2l-3.5,2.1l0.7,0.7l0.9-0.3l1.2,1.3l-0.1,1.3l-0.7,0.2l0.7,1.9l-0.6-0.2l-0.6-3l-0.5-0.1
		v1l-0.5,0.2v-0.9h-0.6l-1.7-1.9l0.1-3.2l-1.9-0.2l0.5-1.1l-0.5-0.3l-1.2,0.4l-1.5-0.6l-1.7,4.9l0.2,1.9l-0.8,3h-0.9l-0.3-0.6
		l-1.1,1.6l-1.1-1.2l-1.3-0.1l-0.4,1.1l-1,0.2l0.2,0.9l-0.9,1.2l0.4,0.9l-3.3,2.1l-0.1,1l-2.5-0.4l-0.7,0.5l-0.8-0.4l-1.4,0.7
		l-2.6-0.7l-3.1,1l0.2,2.8l0.7,1.5l2.1,2.1l-2.1,3.8l-0.5,0.2L686,226l-0.8,0.6l-2.9-0.1l-1.3-1.1l-1.6,0.3l-0.2-0.4h-1.7l0.2-0.6
		l-2.1-0.4l1-0.9l-1.8-1.3l0.5-0.5L675,221l-1.5-0.6v-0.6l-1.1,1.4l-0.5-0.3l-0.2,0.8l-1.4-0.9l0.6,0.7l-0.6,0.7h-0.9l-0.6,0.9
		l0.3,1l-1,2.1l0.2,1.3h-1l-2,3.3l-2.2,1.4l0.3,0.5l-0.8,1.4l-1.2,0.8l0.5,0.3l-1.1,0.4l-0.3-0.6l0,0l-1.3,0.7l-0.4-0.6l-1,0.6
		l-0.7-0.8l-1.1,0.2l1.3-1.2l0.8-1.7l-0.4-0.5l1.1-1.1l-0.7-0.2l0.2-0.9l-1.4-0.5l-0.1-1.2l-1.4-1.5l0.1-0.8l-1.1-2.1l0.1-1.2
		l-1.6-0.2l0.3-1.3l-0.7-1.4l0.6-1.5l-0.6-0.6l2.4-2.9l-1.5-0.6l-0.7,0.6l-0.2-2.5l-0.4-0.5H651l0.1-1.9l-1.3-1.4l0.3-1.8l-1-0.1
		l-0.6-1v-2l-1.4-0.1l0.1-3.1l-0.4-0.7l0.7-1.9l-2.5,1.2l-0.5,1.5l-2.4,2.5l-0.2-0.7l-1-0.5l0.8-1.2l-1.1-0.6l1-1.4l-1.6-1.4l-0.1-1
		l-0.8-0.6l-1.2,0.1l-0.4-0.8l-0.8,0.1l-2.9-3.6l-1.2,2l0,0v0.1l0,0h-1.4l-1.4-1.7l-0.6,0.8l-1.4-1.3l0.1-1.1l1.3,0.2L629,189
		l1.2,0.1l0.4-0.5l-1-2.2l0.2-1.8l-1.9-3.7l0.7-1.6l-1-0.5l-1.1-2.5l-1-0.6l0.1-2.7l-1.5,0.3l-1.9,1.8l-4.9,2.9l-2.7-0.5l0.3-3.6
		l-0.8-0.1l-0.3-1.3l-1.2-0.6l0.1-2.6l-0.5-0.4l1.1-0.5l-0.8-0.1l-0.9-2l0.7-0.3l0.4-4.3l1.5-1.2v-0.8l-1.2-0.6l0.2-2.4l-1.7-0.9
		l-0.7-1.4l0.4-1.4l-0.4-1l-1.5-0.4l-1.6,0.6l-1.2-1.2l1.5-0.7l1-2.4l-0.6-1.3l0.8-0.5l1.5,0.8l0.5-0.2l1.2,2l2,1.4l1.4-1.2l0.1-0.7
		h0.6l1.5,2.5l2.2,1.5l1.1-1.6l0.2-1.7l-0.5-3.5l3.3-0.5l0.9-0.7l-0.2-0.7L625.8,141.9z"/>
	<path id="CN-32" class="st0" d="M539.8,334.7l-0.1-1.6l0.5-0.2l0.6-2.2l2.2-0.6l1.8,0.3l0.2-0.4l2.4,1.1l1.4,2.5l-0.3,0.8l0.8,0.2
		l1,2.8l0.6-0.1l0.2-1.1l1.1-0.9l1.4,1.5l1.2,0.4l1.5-1.2l1.5,0.3l0.1-2l1.8-0.4l1.8,0.4l-0.2,1.4l1.2,0.1l-0.5,1l0.5,0.5l-0.1,0.9
		l0.5,0.1l2.5-0.8l0.3-2.6l1.2-1.6l2.1,0.5l1.1-0.7l-0.7-0.5l1.8-2.9v-1.3l0.7-0.5l2.4,0.1l1.1-0.9l1.3,0.3l0,0l-0.9,0.6l-0.7,3.1
		l0.8,1.1l0.9,0.6l0.5-0.4l1.7,0.6l-0.4,0.8l2.5,1.8l0.1,0.6l4.6,1.5l3.3,2l0.8,3.1l4.4,9.7l-0.8-0.2v1l0.5,1l0.6-0.4v1.2l1.3,1.7
		l0.4,1.5l-0.4,0.3l0.9,0.4l0.3,2.1l-0.7,1.7l0.6,2.2l1.3,0.6l-0.1,0.7l4.8,2l0.6,2.2l-0.5,0.7l0.7,1.2l3.7,1.4l1.5,1.7l1,2.6
		l-0.7,0.8l-3-0.8l-4.1-2.2l-2.6,1.5l-0.2,1l3,3.2l0,0l-2.2,1v0.7l-0.6,0.2l0.5,1.4l-1.1,0.2l-0.2,1.9l-2.2,0.1l0.2,1.8l0,0
		l-2.5,0.6v1.1l-1.6,0.6l-0.9,1.4l-1-2.3l-0.9,0.5l0.1-1l-2.7,0.3l-2-1.3l-1-2.2l-1.6-0.1l-1.9,0.6l0,0l-3.1-0.6l-0.4-1.8l-0.2,0.5
		l-0.8,0.1l-1.3-0.8l-1.1,1h-3.8l-1.1-1.1l2.1-1.8l-0.1-2.9h-0.8l-0.3-0.9l-0.6,0.7l-0.9-0.1l0.2-1.3l-0.6-0.5l-1.2,0.3l-0.5-0.8
		l0.3-0.7l-1.7-1.3l0.3-2.2l1.3-0.6l0.1-1l2-0.4l-0.1-1.2l0.6-0.6l-0.2-2h-1.2l-0.3-1.6h4.2l-0.2,0.5l1.1,0.8l0.7-0.1l0.7,0.9
		l0.8-0.6l0.4-1.6l0.4,0.4l0.2-0.5l-0.6-3.3l-1,0.1l-1.1-1.2v-0.8h-2.1l-0.5,1.5l-0.9,0.1l0.1,1.6l-0.5,0.3l-0.9-0.4l-3.4,0.4v-0.7
		l-0.8-0.1l-0.2-1.2l-0.5,0.2l-0.2-1.2l1-0.5l-0.9-0.5l-0.5-3.1l-0.4-0.2l-0.3,0.6l-1.2,0.6l-0.7-1.3h-0.6l1.3-3.8h0.9v-2.1l0.9-1.9
		l-2.8-0.3l-0.3,0.5h-2.6l0.3-2.4h-0.7l-1-2.1l-0.6,0.7l-0.8-1.2l-1.2,0.5l-0.8-1l-2,0.3l-0.8-0.4l-1.3-1.2l0.4-1l-1.1-0.6l-0.1-1.7
		l-1.7,0.1l-0.8-1.1l-2.4-0.4l0.2-0.3l-2.1-2.2L539.8,334.7z"/>
	<path id="CN-36" class="st0" d="M536.8,406.3l0.9-0.1l0.7,0.7l2.6-1.7h0.9l0.7-2.3l1-0.3l2.9,1.8l-1.1,2l-2,1.7l0.3,0.3l-0.4,0.6
		l0.9,1l0.5-0.5l1,0.4l2-1.6l1.5-0.4l0.3-1l-0.8-0.7l1.8-1.4l0.5,0.3l0.1,1.1l1-0.3l0.3,0.5l0.8-0.5l0.4,2.3l1,0.5l0.1,0.8l1.5-0.2
		l0.6,0.9l3.9-0.4l1.6,1l-0.1,1.2l0.8,0.4l0,0l0.2,0.6l-0.5,0.8l-1.2,0.1l-0.4,2.8l0.7,1.5l1.1,0.2l0.4,0.6l-0.3,0.5l0.8-0.2
		l0.5,1.3l1,0.7l0.7,1.6l-0.2,2.5l0.6,0.3l-0.4,0.9l0.5,1l-0.7,0.8l0,0l-1.4,0.9l0.7,0.5l-0.3,1.3l-2.8,0.6l-0.4,1.3l-0.8-0.4
		l-2.2,0.6l-1.6,2l-1.6-1l-1-1.7l-2.3,1.9l-0.2-0.6l-0.5,0.4l0.2,1.4l-1.2,1.3h-1.2l-0.1,0.8l-0.5-0.6l-0.5,0.3v1.2h0.8l0.4,1
		l-0.1,2.3l0.8,0.8l-1.3,1.4l-0.2,1l-1.4,1.1l-3.1,0.5l-1.9,2.1l0.1,1l-0.6,0.8l0.7,0.9l-0.4,1.1l1.2,1.4l-0.5,1.3l-1-0.4l-1.5,1.9
		v1.2l0.9,0.1l0.3,0.9l-1.2,1l-0.3,1.1l-3,1.5l0.6,1.2l-1.6,1.2v1.7l-0.8,1.5l0.2,1.9l-2,1.6l1,2.2l-0.7,0.4l0.4,0.5l-0.3,0.7l0,0
		l0.2,0.8l-1.1-0.3l-0.8,2.2l1,2.5l-1.5,0.4l-0.5-0.8l-1.3-0.3l-1.2-1.9l-0.8-0.3l-3.8,1.6l-0.6-0.6l-2,0.6l-0.5,1.4l-1.6-0.7
		l-0.5,1.1l-0.6-0.7l-2.9,1.3l-0.9-1.4l-0.6,0.2l-0.4-0.8l-1.3-0.6l2-1l0.9-1.8l-0.1-1l1.8-1l0.4-0.9l1.1,0.1l1-0.6l-0.6-0.7
		l0.7-1.5l-2.6-1.9l-1.9,1.4l-3.3,0.1l-1.1,0.8l0.1-1.5l-0.9-1.3l0,0l-0.3-0.3l0.6-1.1l-1-2.3l1.5-2.8l-0.2-1.3l0.4-0.8l0.7,0.1
		l1.7-1.1L512,458l-1.1,0.6l-0.6-0.3l-1.2,0.3l1.2-2v-1l0.7-0.4l0.5-2.5l-2.7-0.4l-0.6-0.6l-0.4-2.3l1.1-2.1l-2-2.1l1.3-2.6l0.1-1.4
		l-2.2,0.7l-1-0.2l-0.3-1.7l0.5-0.6l-0.6-0.4l0.4-1.4l1.9-2.4l-0.4-1.2l0.4-0.8l1.2-1l0.8,0.2l1.5-0.8l-0.5-1.8l1.2-0.1l2.1-2.1
		v-0.9l-1-0.6l0.5-0.7l-1.6-0.9l0.6-0.8l0.3-3.1l-1-0.3l-0.8-1.6l-0.5,0.1l-0.2-1.4l0,0l1.5-2.4l2.3-0.4l0.2-1.7l3.1,0.4l2-1.1
		l1,0.5l1.7-0.4l0.7-1.1l-0.6,0.3l-0.3-0.5l0.4-0.7l0.7,0.4l-0.5-0.3l0.7-0.5l2,0.8l0.2-1.1l-0.5-0.1l-0.4-1.1l2,0.3l0.3,0.5
		l2.3-1.7l0.5-1.4l2.1-0.2l3.2,1.9l1.5-0.4L536.8,406.3z"/>
	<path id="CN-21" class="st0" d="M607.5,258.6h-0.4v0.8l-1.2-0.2l-0.8,0.8l-1.2-2.1l-0.8-0.3l-0.9,0.7l-1-0.4l1-1.4l2-0.5l1.1,0.6
		l-0.3-1.7l-0.3,0.3l-0.5-0.9l0.5-0.6l-0.2-0.5l2.8-2l0.9,0.3l1.6-1.4l-1-0.7l2.2-1.7v-0.9l1.2-0.9l-0.2-1l1.4-1.1l0.1-1l1.7-1
		l-0.1-0.8h-0.7l-1.5-1.3l0.1-1.3l-2.7-1.6l-0.4-0.9l-0.8,0.1l-0.6-2.3l-1,1.9l-2.2,0.1l-0.9-0.8l-3.9-0.6l-1.3,1v0.7l-1.2-0.6
		l-0.4,0.9l0.5,0.2l-0.7,0.8l1,0.3l-2.2,0.7l-0.4,1.3l-1.6,1.1v0.9l-1,0.4l0.1,1.5l-1.2,0.6v1.2l-0.7,0.9l-1.8,0.2l-5.8,3.2l0,0
		v-0.9l-0.9,0.1l-0.4-2.4l-1.5-0.7l0.3-0.6l-0.7-1.2l-0.3-3.2l-3.8,0.1l-0.7-0.6l0.1-0.6h-1l0.3-1.5l-1.6,0.4l-2.6-2.2l0.6-2.7h1.2
		l0.4-0.7l-1.1-0.5l0.1-0.6l1.6-0.3l0.1-0.8l1.3-0.9l-0.2-0.6l0.9-0.6v-1l0,0l0.9-0.6l0.2,0.3l-0.3-1.2l1.2-1.2l-0.5-1.2l0.7-0.6
		l-0.7-0.3l-0.7-1.7l0.4-3.9l0,0l0.4-1.1l0,0l0.3-1.6l-1.8-2.1l0.6-0.9l2.2-1.1l0.5-0.9l1.3,2.2l1.8,0.8l1.2-0.1l-0.1,1.9l2.5,4.9
		l-0.2,1.6l0.9,0.4l2.5-4.2l2.3-1.3l-0.1-1.4l1.5-1.1l0.5,0.2l3.3-1.9l2,0.3l2.9-2.1l0.8-1.4l1.9-0.7l1.4-0.4l0.9,1.4l0.7-0.2
		l1.8-1.4l1-2.7l1.5-0.6l1.4,0.6l0.5-0.7l2.3,0.8l0.8-1.4l-1.1-0.2l-0.3-0.8l0.4-0.4l2.2,0.3l0.9,0.9l1.3-0.2l1.4,1l0.7-0.7l2.3-0.1
		l2.2-1l-0.7-0.4v-1.2l0.8-1.1l3-0.9l1.3,0.7l1.1-3.3l-0.2-1.1l0.6-0.4v-1.6l0,0v-0.2l0,0l1.2-2l2.8,3.6l0.8-0.1l0.4,0.8l1.2-0.1
		l0.8,0.6l0.1,1l1.6,1.4l-1,1.4l1.2,0.6l-0.8,1.2l1,0.5l0.2,0.7l2.4-2.5l0.5-1.6l2.5-1.2l-0.7,1.9l0.4,0.7l-0.1,3.1l1.4,0.1v2l0.6,1
		l1,0.1l-0.3,1.8l1.3,1.4l-0.1,1.9h1.1l0.4,0.5l0.2,2.5l0.7-0.6l1.5,0.6l-2.4,2.9l0.6,0.6l-0.6,1.5l0.7,1.4l-0.3,1.3l1.7,0.2
		l-0.1,1.2l1.1,2.1l-0.1,0.8l1.4,1.5l0.1,1.2l1.4,0.5l-0.2,0.9l0.7,0.2l-1.1,1.1l0.3,0.5l-0.8,1.6l-1.3,1.2l1.1-0.2l0.7,0.8l1-0.6
		l0.4,0.6l1.3-0.7l0,0L659,235l-0.4-0.4l-0.8,0.5l-0.9,0.8l0.6,0.8h-1.6l-0.2,0.7l-1.6,0.9l0.1,0.6l-1.9-0.4l-0.4,0.7l-2.8,1.2
		l0.3,1.2l-1.4,0.1l-0.3-0.5l-2,1.8l-0.1,0.8l-1.6,0.8l-2.8,2.5l-0.7,1l0.5,1l-1.8,1.4l-0.8,1.6l-2,0.2l-0.5-0.6l-1.1,0.1l-0.1-0.5
		l-1.9,0.5l-1.4-0.3l-2.5,1.9l-0.1-1.4h-1.6l-0.5,1.2l0.5,0.8l-3.4,0.2l-0.5,0.9l-2,0.6l-0.7-0.3l0.3,0.6l-1.2,0.8l-0.3-0.6
		l-1.1,1.5L616,258l-1.8,1.8v0.9l-1.6,1l0.3,1.1l-0.8,0.7l-0.6-0.2l0.4,1l-0.8-0.2l-0.5,0.7l-0.7-0.7l-1,0.5l0.9,0.7l-0.3,0.8
		l-1.4-1.4h-0.6l0.1,0.5l-0.7-0.4l-0.1,0.8l-1,0.5l1.7,0.7l-0.2,0.6l-1.4-0.2l-1.4,1l-3.1,0.2l-0.4,1.3l-0.8-0.1l-0.3-2l0.8-0.6
		l-1.1-0.1l0.1-0.6l0.6-0.4l1,0.4l1.5-0.7l-0.2-0.6l0.6-0.8l0.9,0.7l2.8-1.1l0.3-0.9l-1.3-1l1-0.5l-1-0.7h1.7l0.3-1.3h1.5l1.1-0.7
		l-0.3-0.7l-0.5,0.2l0.2,0.5l-1.8,0.2L607.5,258.6z"/>
	<path id="CN-92" class="st0" d="M504.4,513.5l0.4,0.5l-0.4,0.3V513.5z"/>
	<path id="CN-15" class="st0" d="M604.5,3.3l2.2,1.8l-0.2,1.4l1.2,0.7l0.8,1.8l-2.7,3.6l-0.1,1.1l-5.2,5l1.7,0.5l2.5,2.4l1.6,0.3
		l0.8,2.6l1.5,0.7l1.4-0.3l2.8-4.5l0.5,0.9l1.3-0.1l1.2,2l0.5-0.3l0.4,2l3.9,0.9l-0.6,2l-1.3,0.4l-0.1,1.4l0.7,1.8h0.6l-0.2,1.8
		l0.8,2.3l-0.3,0.7l1.7,4.1l-0.4,1.3l1.4,1.7l0.5,1.6l0.9-0.2l2.8,1.4l4.7-1.4l0.7-1.6l1,0.8l0.6-0.1l1.1,1.3l3.8-1l1.5,1.6h0.7
		l0.4-1.7l0.7-0.5l1.1,0.2l0.7,0.9l1.2-0.4l0.5-0.9l1.3,0.1l0.8-1.3l-0.2-1l1.7-0.8l0.2-1.9l0.6-0.6l0.2,0.5l2.7,0.2l4.4,5.9l0.7,2
		l1.3,0.4l0.1,1.3l0.9,0.7l0.7-0.2l-0.2,0.8l1,1l-0.3,0.6l0.6,0.7l-1,1.9l-0.5-0.5l-0.1,0.8h-0.8l0.3,0.5l-1.2,0.9l0.2,0.6l-0.7-0.3
		l-0.4,0.4l0.9,1l-0.5,0.5l0.5,2.6l-1.9,1l0.3,0.3l-0.6,1l-0.9,0.1l0.2,0.8l-0.8-0.1l0.5,1l-0.3,0.9l-0.8,0.3l0.1,1.3l-1.7,1.2
		l0.5,0.5l-1.2,0.2l-0.1,1l0.8,0.4l-1.1,0.2l0.5,0.9l-1.4,0.9l0.8,1.7l-0.2,0.7l-0.6,0.1l0.6,0.6l-0.1,2.6l-0.3,0.7l-0.5-0.9
		l-0.4,0.6l1.3,1v1.1h-0.4l0.8,1.6l-0.6,5.1l-1.3,1.2l-1-1l-1.8-0.1l-1.2,1.3l0.2,1.3l-0.9,2.4H645l-0.1,1.5l-0.6,0.3l-0.5,1.4
		l-0.2,2.2l-1,1.6l0.4,1.6l-0.5,1.7l0.8,1.4l-0.9,3.3l-1.1,0.7l0.7-1.5l-0.8-0.5l0.2-1l-0.9-0.8l-0.5-1.5l0.1-2.3l-0.6-0.9l-3.4,2.9
		l-5.3,6.3l-3.4,1.5l-1.6,3.1l-7.7,5l-0.9,2.4l-1.3,1.2l2.7,4.1l3,1.3l-1,1.4l0.3,0.7l1.2-0.3v2.6l1.5,1.8l1.9-0.5l0.7-1.9l1.9-0.3
		l0.2-1.3l-0.8-0.6v-0.8l1.2,1.1l1.5-0.1l-0.7,1.9l0.3,0.5h0.7l0.2-1.2l0.4,0.1l0.2,0.9l-0.5,0.4l0.7,0.3l-0.5,2.2l-4.1,0.5
		l-0.7,1.3l-2.2-0.5v0.7l-0.6,0.2l0.2,2.8l2,3.1l0,0l-0.9,1.4l0.1,0.7l-0.9,0.7l-3.3,0.5l0.5,3.5l-0.2,1.7l-1.1,1.6l-2.2-1.5
		l-1.5-2.5h-0.6l-0.1,0.7l-1.5,1.2l-2-1.4l-1.2-2l-0.5,0.2l-1.5-0.8l-0.8,0.5l0.6,1.3l-1,2.4l-1.5,0.7l1.2,1.3l1.6-0.6l1.5,0.4
		l0.4,1l-0.4,1.4l0.7,1.4l1.7,0.9l-0.2,2.4l1.2,0.6v0.8l-1.5,1.2l-0.4,4.3l-0.7,0.3l0.9,2l0.8,0.1l-1.1,0.5l0.5,0.4l-0.1,2.6
		l1.2,0.6l0.3,1.3l0.8,0.1l-0.3,3.6l2.7,0.5l4.9-2.9l1.9-1.8l1.5-0.3l-0.1,2.7l1,0.6l1.1,2.5l1,0.5l-0.7,1.6l1.9,3.7l-0.2,1.8l1,2.2
		l-0.4,0.5l-1.2-0.1l0.2,0.9l-1.3-0.2l-0.1,1.1l1.4,1.3l0.6-0.8l1.4,1.7h1.4l0,0v0.1l0,0v1.6l-0.6,0.4l0.2,1.1l-1.1,3.3l-1.3-0.7
		l-3,0.9l-0.8,1.1v1.2l0.7,0.4l-2.2,1l-2.3,0.1l-0.7,0.7l-1.4-1l-1.3,0.2l-0.5-1l-2.2-0.3l-0.4,0.4l0.3,0.8l1.1,0.2l-0.8,1.4
		l-2.3-0.8l-0.5,0.7l-1.4-0.6l-1.5,0.6l-1,2.7l-1.8,1.4l-0.7,0.2l-0.9-1.4l-1.4,0.4l-1.9,0.7l-0.8,1.4l-2.9,2.1l-2-0.3l-3.3,1.9
		l-0.5-0.2l-1.5,1.1l0.1,1.4l-2.3,1.3l-2.5,4.2l-0.9-0.4l0.2-1.6l-2.5-4.9l0.1-1.9l-1.2,0.1l-1.8-0.8l-1.3-2.2l-0.5,0.9l-2.2,1.1
		l-0.6,0.9l1.8,2.1l-0.3,1.6l0,0l-0.4,1.1l0,0l-0.4,3.9l0.7,1.7l0.7,0.3l-0.7,0.6l0.5,1.2l-1.2,1.2l0.3,1.2l-0.2-0.3l-0.9,0.6l0,0
		l-0.5,0.5l-3.2-0.6l-0.7,0.3l-0.6-1.2l-1.1,0.8l-2.9-0.5l-2.1,0.6l-0.2-1.8l-1-0.8l0.6-0.6v-0.9l-1.2-0.4l-1.2-2.6l0.5-1.2l1.4,0.8
		l0.7-1.4l-0.9-1.2l0.6-1l-0.9-0.7l0.6-0.2l-0.3-0.8l-0.6,0.1l-0.2,0.8l-1.1-0.1l0.5-0.8l-0.8-0.5l0.2-1.1l-1.7-1.2l1.2-0.9
		l-0.6-0.8l0.1-0.8l-2.8-3.7l-2.5,0.8l-0.7-0.8l-0.2,0.4h-0.8l-0.1,1l-1.1,1.1l-3.6-0.4l-2.2,1.3l-0.1,3.6h-1.6l1.2,1.5l-0.1,1.6
		l-1.7,0.6l-0.2,0.8l-2.2,0.1l-0.7-0.9l-1.3,0.6l0.2-0.9l-1-0.2l-1.4,1.2l-0.3,1.1l-1.1,0.2l-0.1,1.1l-0.7,0.2l-0.7-0.1l-0.9-2.7
		l-1.2,0.1l-2.3,1.9l-4,2L526,222l0.7,1l-0.8,0.3l-0.3-0.5l-0.5,0.8l-1.6-0.9l-3.2,0.6l0.5-1.6l-0.4-1.8l0.9-0.5l-0.6-2.8l-1-0.9
		l0.6-1.2l-0.6-0.7l-0.8,1l-2.4-0.5l-0.8,0.4l-0.1,2.4l-2,0.8L512,220l0.5,4.9l-2.8-0.2l-2,1.4l0.9,0.9l-0.2,1.6l1.2,0.9l-0.4,0.9
		l-0.9,0.2l-1.2,1.2l1.9,1.9l1.3,2.1l-0.4,0.5l1.2,1.5l0,0l0,0l0,0l-0.9,0.4l-0.1,3.1l-1.3,0.1l-1.2,1l-0.9-1l-3,2.8l-3.1,0.4
		l-0.8-1.5l-3.3,0.9l-1.2,0.5l-0.6,2l-1.2,0.6l-3.6-2.2l-1.9,0.8l-4.1,7.3l-0.6,3.1l-2.1,0.4l-1.4-0.8l-2.7-0.1l-0.1,2.1l-1,1.4
		l-2.4,0.2l-0.3,0.8l0,0l-0.5,0.1l-0.5-0.9l1.1-2.1l-0.2-0.6L470,258l-2,3.4l-1.2,0.6l-1.2-2.2l-1.3,0.4l-0.4,0.8l-1.8-2.1l-1.2-0.3
		l-0.2,1l1.1,1.9l-3.3,1.6l-1.1,1.5l-1.9,0.5l-0.5,2.2l-1.4,1.9l-0.7-0.3l-1.1,0.4l-0.3,1.5l-0.9,0.1l0.2,1.4l-0.9-0.1l-1.4,1.1
		l-0.3,1.3l-1,0.6l-1,1.7l-0.5,2.5l1.5,1.5v0.9l-1.4,1.8l-1.2-1.5h-0.7l0.4,0.5l-0.6,0.7v4.1l-2.6,0.5v-0.5l-0.6-0.1l-2,0.3
		l-0.6,0.6l-0.8-0.5l-1.5,0.8l-1.5-0.8l-0.6-2l-4-1.3l0,0l-3.1-1.2l0.2-0.8l-1.3-1.5l-2-1.1l-2.1,0.6l-2.5-0.6l-4-2.6l2.3-3.6l0.4-3
		l3.4-4.2l-0.2-1.2l-1.4-0.5l-0.7-4.4h-2.4l-1.3,1.1l-2.5,0.3v2l-1.8-0.1l-0.8,2.8l-1.4,1.2l0.2,0.7l-1,1.3l-0.7,2.4l-0.3,3.5
		l0.5,2.3l-1,1.1l-0.2,1.1l0.9,2.1l-1,3.3l-1.5,0.3l-0.5,1.3l-2.5-0.2l-2.2,0.5l-2.9,2.1l-3.5,0.6l-1.7-0.5l-2.1,0.4l-0.2,0.8
		l-1.5,0.6l0,0l-1.3,0.3l-6.4-6l-3.3-1l-0.6-3.9l2.3-1l-0.8-2.8l-0.9-1.3l5.9-3.8l2-4l1.8-0.8l0.4-2.5l-1.9-3.3l0.5-2l-1.9-0.8
		l-1.3,0.1l-6,1.8l-4.5,4l-5-1.3l-1.9-1.2l-3.4,1.6l-4.9,1.1l3.4,3.3l-2.7,2.8l-0.1,0.7l-1,0.2l-1.3-0.5l-0.8,0.5l-1.1-1l-2.6-0.9
		v-1.1l-1.1-0.4l-0.9-1.3l0.5-1.1l-2.6,1.1l-1-1.5l-1.1,0.6l-0.1-6.3H339v-1.3l-2.3-0.6l-0.9-2.8l-3-0.9l-3.1-2.4l-3.9,0.3l2.1-3.1
		l3.6-2.4l1.4-3.1l2.8-3.4l-0.2-2l-1.7-2.7l-5.3-0.8l-1.4,1.4l-4.9-0.3l-3.9,1.9l-2.8,3.5l-5,0.3l1.4-5.2l-0.2-0.8l-4.4-3.7
		l-0.4,0.2l-4.6-6.1l2.9-3.4l-8.3-18.9l0,0l13.4,2.3l15.8,1.2l6.3-1.3l3.6,0.3l0.5-0.9l7.4,0.6l11.4,2.9l3.1,4.3l4.4,1.2l4.1,0.1
		l7.4,3.8l6.8,1.7l8.6-1.3l-0.1,3.7l5.2,0.3l1.1,1.3l2.9-2.9l6.8-3.7l11.1-5.1l7.4-1.7l0.4-0.9l2-0.9l0.9-0.1l0.4,0.7l4.5,0.2
		l4.1-0.9l0.7,0.4l3-0.3l3.6,1.2l2-1.2l3.8,0.6l3.5-0.8l3.6-2.6l4-0.2l2.3-1.5l1.5-1.2v-1.1l2.1-1.2l1-2.2l4.3-4.9l4.8-2.2l1.9-0.3
		l2.4-3.6l2.5-0.6l0.6-0.7v-0.9l-1.9-3l-2.8-1.3l-3.1-5l2.2-6.6l2.3-4.2l1.9-2l6.7,0.2l4.1,3.3l2,0.2l2.8,1.2l4.3,0.1l2,0.9l5.4-3.7
		l4.2-3.8l1.4-2.2l0.3-1.6l1.7-1l1.4-0.4l3.1,0.9v0.7l9.1-1.3l2.7-3.1l1.7-1.1l2-0.5l0.8-2.2l-0.3-2.2l4.1-6.1l2.3-0.5l1.2-1.2
		l1.5,0.6h4.8l0.9-4.2l2-0.1l0.9,1.3l1.8-0.1l0.8-1.1l4.8-2.9l0.2-0.9l2.3,0.1l0.8-0.5l1,0.8l1-0.8l1.7,0.4l2.2-0.7l-0.1,0.6
		l1.5,0.1l0.4,1.1l1.1-0.2l2.4,1.9l0.7,1.3l-0.7,0.4l-0.2,1.1l1.6,1l1.1-2.4l2.2-1.3l1.9-2.4l-1.5-3.1l-0.2-2.1l0.6,0.1l0.1-1.7
		l-1.8-1.3l0.8-0.5l0.6,1.2l0.7-0.1l-0.5-1.8l-1.5-1.2l-3-0.3l-1.9-1.8l-0.1-2.1l-1.4,0.5l-0.7-0.4l-0.3-3.1l-4.4-1.9l-3.8-3.6h-2.8
		l-0.8-0.6l-1,0.2l0.1-0.3l-3.5,0.2l-4.7,5.2l-1.2,2.1l-3.4-3.2l-3.8-1.7l-2,0.2l-1.9,0.9l-3.6-0.4l-3.5,3.6l-6-6l1.2-0.1l-0.5-3.4
		l4-1.7v-4.9l3.7-5l-0.7-1.7l8.1-18.5l3.1,2.3l4.1,1.7l2.6,0.1l4.8,2.4l3.2-3h0.6l1-1.4l1.8-0.8l0.1-0.9l1-0.2l1.2-1.8l8-1.7
		l1.3-1.7l0.8-1.6l-0.6-2l0.7-0.8l-0.3-0.6h-2.1l-0.8-0.8l0.5-0.7l0.6,0.2l0.9-3.8l2.6-2.7l0.4-3.3l2.9-3.7l0.2-2.6h0.6v-1.3
		l1.5-1.5l-0.3-0.6l1.1-1.4l-0.2-0.8l0.9-1.2l0.6-2.5l1-0.1l3.5-3.3l0.2-0.8l0.8,0.1l0.2-0.7l1.1-0.3L594,31l-0.4-0.9l0.8-0.7
		l0.5-1.6l-0.5-1l0.2-0.9l-1.7-1.3l-0.1-0.6l1.4-4.1l-3.4-2l-2.3,0.5l-1.1,0.9l-1.5-0.1l-0.5-1l0.4-1.5l-0.4-1.4l3.2-2l3.1-4.3
		l1.1-0.6l0.8-1.6l1.8-1.4l0.1-0.7l3-0.6l0.7,0.6l1.2-0.2l1.3-0.9L604.5,3.3z"/>
	<path id="CN-64" class="st0" d="M387,291.3l1.5-0.6l0.2-0.8l2.1-0.4l1.7,0.5l3.4-0.6l2.9-2.1l2.2-0.5l2.5,0.2l0.5-1.2l1.5-0.3
		l1-3.3l-0.9-2.1l0.2-1.1l1-1.1l-0.5-2.3l0.3-3.5l0.7-2.4l1-1.3l-0.2-0.7l1.4-1.2l0.8-2.8l1.8,0.1v-2.1l2.5-0.3l1.5-1.2h2.3l0.7,4.4
		l1.4,0.5l0.2,1.2l-3.4,4.2l-0.4,3l-2.3,3.6l4,2.6l2.5,0.6l2.1-0.6l2,1.1l1.3,1.5l-0.2,0.8l3.1,1.2l0,0l-0.3,1.5l-1.6,0.3l-0.3,1.1
		l-1.2,0.1v0.6l-1,0.6l0.8,0.9l-1,1.2l-0.3,1.8l0.6,2.1l-0.4,0.1l0.7,0.9l-0.4,1l-0.4-0.4v0.8l0,0l-1.4-1.1l-1.9,0.6l-1.5-0.5
		l-0.1,0.7l-1.4-0.8l-0.4,1l-1.8-0.7l0.4,2.7l-0.7,0.3l-0.5-0.6l0.7,1.3l0.6,0.1v2.6l-0.8-0.6l-0.8,0.3l-1,1.7l0.2,0.9l-1.2-0.1
		l2,1.4l-0.3,3.2l0.7,0.2l0.2-0.6l2.4,1.2l0.8-0.2l1.1,1.7l0.4-0.2v2.2l-0.7,0.6l0.5,0.3l-1.1,0.7l1,1.3l-1.4,1.4l-0.8-0.2l-0.2,0.7
		l-2.5-1l-1.3,0.8l0.8,5.2l-1.7,1.9l-1.4-1.6l-0.2-1.1l-0.8-0.4l-0.8,1.2l-0.7-1.1l0.3-0.5l-2.2,0.7v-0.8l1.9-0.4l-0.1,0.5l0.5-0.7
		l-2.5-0.8l-0.6,0.9L406,320l-1.6-1.8l0.7-0.7l-1.3-0.1l-1,0.9l-0.2-0.6l-1.3-0.4l-0.4-1l-0.6,0.2l0.3-0.8l-0.8-0.5l-0.1-1.9
		l1.2-1.3h0.8l0.2-0.7l-0.4-2.3l-0.9-1.1l-0.7-2.3l-1.3-0.5l0.2-0.5l-0.8-2.2l1.6-1.2l-0.7-1.2l-1.1-0.3l-0.2-1.6l-1.8-0.7l-1.6-2.7
		l-0.8-0.5l-1,0.8l-1-0.4l-0.4-0.8l1.5-1l-0.5-0.4l0.8-0.9L387,291.3z"/>
	<path id="CN-63" class="st0" d="M243.9,263.4l1.1,0.3l5-1.2l0.7-1.1l2.6,0.6l1.7-0.5l0.5,0.4l1.6-0.1l3.2-1.2l0.3,0.5h4.4l1.3,1.1
		h2.4l3,1.1l1.7-0.4l1.6,2.1l1.9,0.9l1.5,2.1l0.9,0.4l0.1-0.4l1.6,1.7l1.8,0.4l0.6,1.5l0.6-0.4l1.1,0.9l1.2-0.3l2.6,1.6l0.2,1.4
		l5.3,1.7l0.4-4l-0.7-0.5v-0.9l0.6-0.4l0.1-2.4l-0.4-0.5l0.5-2.8l-0.7-0.8l1-1.6l4,0.6l4.2,2.5l0.3,0.8l4,1.7l0.9,1l2.3-2.6l0.2-1.3
		l1.2,0.1l0.9,1.2l1.6,0.3l2.3-2.4h0.7l2.2,2l0.3-0.4l1.1,0.5l-0.5,0.9l3.7,2.9l1.1,1.8l0.8-0.1l0.3,1.1l1.9,1.8l6.3,3.5l-0.2-1.8
		l-1-1.3l0.4-1.3l1.3,0.6l1.4,2.2l3.3,1.2l0.5,2.3l5.9,2.5l1.3,1.5l6.6,4.2l0.5,1l1,0.2l0.4-2.5l1.4-1.4l0.3,2.5l1,0.6l-0.8,1.6
		l2.5,0.8l1.8,1.5l0.2,0.8l0.9-0.1l2,1.9l-1.3,1.2l-0.4,1.8l3.4,3.3l-1.6,1l0.5,0.9l1.1,0.5l1.4,4.3l2.9,2.1l-0.9,0.2l-1.4,1.7
		l1.1,0.7l-0.2,3.2l-2.1-0.4l-1.2,0.9l0.9,2.8l-0.5,1.4l-2.3-0.6l-1.4,2.1H362l0.2,1.4l-0.4,0.5l0.9,0.4l0.6,1.7l-0.7,0.2l-0.7,1.6
		L360,329l-2.7,2.1v2.1l-0.9-0.5l-1.6,1.1l1.4,1.2l1.1-0.7l0.2,1.3l2.8,1.3l1.2,2.3h-0.9l-0.5,1.4l-1-0.3l-1.5,2.7l-1.2-0.7
		l-1.4,1.1l-1.1-0.7l-0.4-1l-3.8-1l-0.8-0.8l-2.6-0.4l-0.9-0.8l-1.1-0.1l-1,0.9l-0.7,2.1l2.8,4.2l2.1,0.9l0.5,0.8l-0.3,2l0.9-0.4
		l2,0.5l0.4-0.7l0.9-0.1l1.1,0.5l0.5,2.6h1.3l0.5-0.7l0,0v1.4l-0.8,0.1l-0.7,1.2l-0.1,0.6l1.1,0.7l-1.1,2.5l-2.2-1.7l-1,0.1
		l-0.1,1.1l-0.6-0.9l-2.3,0.9l-0.5,3.6l1.5,1.3l-0.5,2.1l-1,0.8v-0.6l-0.6-0.1l-1.7,1.1l-3.2-1.1l0.5,1l-0.7-0.1l0.1,1.5l-1.9,1.7
		l-0.9-1l1.5-1.3l-1.3-2l-0.9-0.9l-0.8,0.5l-1-0.3l-0.6,2.1l-1.2-0.5l-0.4-0.5l0.6-0.9l-0.3-1.9l-1-0.6v-0.7h-0.8l-0.9-1.7l-0.4,1.8
		l-1.2-0.1l0.3,1.1l-0.6,2.3l-4.8-2.9l-1.1,0.3l-1-2.2l-4.2-1.8l-0.5-1.6l-0.6-0.3l0.3-1.2l-0.6-0.8l0.1-1l-1.1-0.9l-0.4-1.2
		l0.5-0.4l-2.5-3l-0.7-0.3l-1.9,0.4v-1l-3-0.6l-3.2,1.3l-0.3-0.4l0.5-1.2l-1.5-0.6l-0.4,1.4l-3.1,0.4l-0.2,0.9l0.7,2.2l-0.3,1
		l1.4,0.6l0.5,1.8l2.7,0.7l-1.8,1.1l-0.3,1.3l-1.4,1.4l0.7,1.8l-0.5,0.3l0.2,0.5l-1.6,0.4l-0.4,0.8l0.9,3.1l3.8,2.6l0,0l-0.7,0.8
		l-3.8-0.8l-0.4,1.2l1,1.4l-0.7,0.2l0.7,0.4l-1.6,0.4l-0.3,1.5l0.6,1.5l-1.1-0.4l0.2,0.8l-0.9,0.4l-2.7-0.5l0.1,1l-0.8-0.3l-0.5,0.6
		l-1.7-0.7l1.1,2l-0.6,0.6l1,1.9l-0.4,0.8l-0.9-0.1l-0.7-0.8l-1.7,0.1l-1.3-0.9l-1.6-2.3l-1.6,0.7l0.2,0.6h-0.7l-0.2,0.6l1.1,0.9
		l0.4,1l-0.4,1.2l0.5,0.2l-0.7,0.7l-1.2-2.5l-2.9-0.1l-0.6,0.6l-0.8-1.2l-1.6-0.3l-1.4,0.5l-1.9-3.1l0.9-0.7l-0.4-0.5l0.5-0.4
		l-0.2-1.3l-1-0.2l-0.6-1.2l-2.9,0.1l-0.8-1l-1.4-0.6l0.4-0.5l-0.5-1.1l-1-0.3l-0.7-0.7l0.3-0.3l-2.1-1.8l-2.1,1.6l-0.7-0.5
		l-0.4,1.2l-2,0.1l-0.9,1.2l-1-0.5l-0.6,0.4l-0.6-0.6l-1.3,0.2l-0.6-1.2l-1.1-0.4l-0.9,0.1l-1.7,1.4l-0.8-1.2l-1,0.4l-1.7-2
		l-2.3,0.5l-0.6-1.7l-1.8,0.7l-2.3-1l-0.6,0.7l-2.4-0.6l-2.4,0.7l-0.8-0.5l0.3-1.3l-1.1-0.7l-2.2,1l-1.6-1.9l-2-0.7l-2.6-1.8l-1.3-2
		l0.5-0.6l-0.3-0.5l-2.1-0.1l-0.7,1.3h-2.3l-1.8,2L216,358l-2.6-1.9l-1.5-0.1l-1.7-2l-0.1-1.5l-3.1-1.9l0.3-0.9l-1.2-0.7l0.2-1
		l-1.7-1l-1.9-2.8l0.6-1.1l1.5-0.6l0.2-2l0.5-0.6l-0.9-1l-0.1-3.4l-0.7-0.3l-0.2-1.2l1.8-1.4l-0.8-1.5l-2.7,0.3v-3.3l-0.9-0.3
		l-0.8-1.5l1-0.8l-0.4-0.1v-1.2l2.4-0.9l0.9-0.9l-0.8-1l0.8-0.7l-0.5-1l0.9-3.1l-3.4-0.2l-1.4-0.9l-0.2-1.2l0.3-0.7l0.9,0.2l2.9-0.9
		l0,0l2.8,0.1l0.7-3.1l1.6,0.5l-0.1,0.5l1.3,0.7l5.7,0.5l2.1,1.7l1.1-0.3l0.6-1l1.6,0.2l-0.1-1.9l-0.7-0.7l0.4-0.6L220,309l0.1-3.2
		l-3.8-0.9l-0.3-1.5l0.5-0.7l-0.4-1l1.7-2l2.1-0.1l2-1.6h1.7l-0.4-1.9l-1.2-0.9l-1.3-4.1l-1.9-0.2l-1.8-2.5l-4.7-2.3l0.3-0.4
		l-0.5-1.2l1-1.1l-4.2-6.9v-0.8l3.4-1l0.4-1l1.9-0.7l0.2-1.2l1.8,0.2l4.4-0.8l4.1-1.6l5.4-1.1l2.5-1.2l4.1-0.7l1.4-1.7L243.9,263.4z
		"/>
	<path id="CN-61" class="st0" d="M429.7,284.2l4,1.3l0.6,2l1.5,0.8l1.5-0.8l0.8,0.5l0.6-0.6l2-0.3l0.6,0.1v0.6l2.6-0.5v-4.1l0.6-0.7
		l-0.4-0.5h0.7l1.2,1.5l1.4-1.8v-0.9l-1.5-1.5l0.5-2.5l1-1.7l1-0.6l0.3-1.2l1.4-1.1l0.9,0.1l-0.2-1.4l0.9-0.1l0.3-1.5l1.1-0.4
		l0.7,0.3l1.4-1.9l0.5-2.2l1.9-0.5l1.2-1.5l3.3-1.6l-1.1-1.9l0.2-1l1.2,0.3l1.8,2.1l0.4-0.8l1.3-0.4l1.2,2.2l1.2-0.6l2-3.4l3.2-1.4
		l0.2,0.6l-1.1,2.1l0.5,0.9l0.5-0.1l0,0l1.4,1.1l-0.5,0.4l-1.1,3.6l-1.8,1.2l0.5,1.6l-1.6,3.7l0.4,1.1l-0.6,1.9l-1.2,0.2l-1.6,2.3
		h-1l-0.2,1.3l-0.7,0.6l0.1,3.5l3,3.3l-0.6,0.7l1.2,0.9l-0.5,0.2l0.4,1.4l-0.5,1.5l-1.3,0.5l-0.1,1l0.9,0.4l-0.2,1l-2,2.8l-1.4,1.1
		l0.5,0.4l-1-0.1l0.7,0.8l-0.6,1.4l0.6,0.2v0.9l-0.5,0.5l0.9,0.6l-0.2,0.7l-0.6,0.1l1.4,1.5l-0.7,6.5l2.1,8.3l-4.3,10.2l0.1,2.8
		l-0.5,1.4l0.6,1.2l1.1,0.2l0,0l0.2,0.6l-0.5,0.8l0.8,1.5l0.6-0.1l0.2,1.2l-0.9,0.7l0.2,0.6l2.5,1.2l-0.7,2l1.1,1.2l-1,0.8l0.1,0.6
		l2.1,0.9l0.7,1.9l2.2,1.5l0.3,3.5l-0.6,1.2l0,0l-0.7,1.3h-1l-0.2,0.9l-0.9,0.1l-0.4,0.8l-0.7-0.9h-0.7l-0.5-1.5l-1.7,1.2l-2.4,0.2
		l-0.9-0.8l-1.7,0.3l-2.3-0.8l-1.7,0.2l-1-0.6l-0.4,0.6h-1.2l-0.9,1.2l4.4,1.2l-0.3,2.4l0.4,0.4l0.9-0.5l2,0.6l1.5,1l0.2,1.8
		l0.7,0.9l-0.5,0.6l-0.9-0.3l-0.9,1l-1.4-0.7h-3.7l0.2,0.8l-1.4,1.6l-0.4,2l1.4,1.4l0.2,1.5l-0.4,1.1l0.6,1.2l-0.6,0.6l0.7,1.3
		l-0.7,1.2l0,0l-3.7,0.2l-0.2-1.3l-1-0.3l-2-2.1l-1.9-0.4l-1.8-1.7h-1l-1.9-1.5l0,0l-0.5-0.9l-1.9,0.5l-1.1-0.6l-0.6,0.8l-2.1,0.1
		l-0.6,1.1l-1.6-0.9l-2.4-2.9l-1.7,0.3l-0.9-0.5l-0.3-1.7l-0.6-0.1l-1.4,2l-0.5-0.1l-1.8-1.7l0.2-1.8l-1-1.1l-3,0.5v-0.7h-0.5
		l-4.1,1.8l-0.9-0.8l-2.9-0.9l-0.6-0.6l0.4-0.7l-0.6-0.8l-0.5,0.6l-2.3,0.1l-0.4,1.1l-0.5-0.3l-2,1l-1.2-3.1l0,0l1.8,0.4l2.8-0.9
		l0.7-0.8l0.2-2.2l-0.4-0.1l0.5-0.7l0.4,0.7v-0.9l-2.1-0.8l-1.1-1.8h1.5l0.2-1.7l1.5-1.7h1.8l0.1,0.6l1,0.3l1.3-0.8l1.8-0.3l0.3,1.3
		l0.9,0.5l0.8-1.2l-0.6-1.6l-0.7-0.2l-0.3-1.3l0.4-0.8l-0.9-0.7l1-3.2l1.1-0.5l-0.5-1.6l-0.7-0.2l0.4-0.6l1.9,0.7l0.6-1.9l-0.9-0.3
		l-0.9-1.5l-1.3-0.6l-1.6,0.1l-0.4-0.9l1.9-0.9l-0.2-0.9l1.3-0.9l0.2-1l-1-2.9l0.8-1.3l4.7-0.1l2.1,1.1l0.1,0.8l1,0.5l0.4,0.8
		l1.2-0.8l3,0.4l0.5-0.9l0.9,0.7l2.1-0.4l0.7-0.6l-2.6-3.8l0.8-0.1l0.2-0.8l2.9,1l2.7-1l0.8,0.7l1.3-0.7l1.8,0.4l1.5-0.9l0.2-3.2
		l-1.2-1.4l-0.3-3.7l1-1h0.9l0.5-1.1l0.3-1.8l-0.8-1.9l0.8-1.7l-2.5-1.7l-1,0.6l-1.1-1.9l-1.7-0.2v-1l-0.8,1.1l-1.4-0.6l-0.6-0.6
		l0.2-0.7l-0.8,0.4l-0.6-1.6l-2.8-1.1l-1.8,0.1l-0.7-1.2l-2.2-0.2l-0.4-2.6l0,0v-0.8l0.4,0.4l0.4-1l-0.7-0.9l0.4-0.1l-0.6-2.1
		l0.3-1.8l1-1.2l-0.8-0.9l1-0.6v-0.6l1.2-0.1l0.3-1.1l1.6-0.3L429.7,284.2z"/>
	<path id="CN-51" class="st0" d="M355.4,351.3l0.3-1.1l0.5,0.1l1.3,2.5l-0.9,2l-1.3,0.9l0.8,0.8l-0.2,1.2l0.6,0.2l1.4-1.4l1.1,0.1
		l0.5-1.1l1.2,0.7l0.2-1.3l-0.5-0.4l1-1.3l1.2,0.4l1.5-1.1l-0.4-1.7l-1.4-0.6v-1.7l-0.6,0.3l0.3-0.7l-1-0.4l0.2-0.9l-0.9-1.5
		l1.1-0.6l1.5,0.3l0.5-1.8l2.9,0.1l-0.6-1.2l1.1-0.6l0.5-1l1.4-0.1l0.6-0.6l0.7,0.3l0.4,1.5l1.6,0.3l0.8,1.3l-0.6,0.5l0.4,0.8
		l-0.5,0.6l0.8,0.9l-0.4,1.4l2.5,1l1-0.1l0.9-0.9v2l1.1-0.5l2.3,0.8l3.5-0.4l1.6,1.2l-0.2,1l0.8,2.1l1,1l1.7,0.2l-0.4,0.5l-1.2-0.3
		l0.9,2.9l-0.5,1l1.1,0.4l-0.8,1.1h-1l0.2,1.6l3.4,1.5l0.8,1l0.8-0.2l0.5,0.5l1.2-0.4l0.7,1l2-0.7l0.9,0.8l4.3-2.2l-1-2l0.7-0.8
		l0.8,0.3l0,0l1.2,3.1l2-1l0.5,0.3l0.4-1.1l2.3-0.1l0.5-0.6l0.6,0.8l-0.4,0.7l0.6,0.6l2.9,0.9l0.9,0.8l4.1-1.8h0.5v0.7l3-0.5l1,1.1
		l-0.2,1.8l1.8,1.7l0.5,0.1l1.4-2l0.6,0.1l0.3,1.7l0.9,0.5l1.7-0.3l2.4,2.9l1.6,0.9l0.6-1.1l2.1-0.1l0.6-0.8l1.1,0.6l1.9-0.5
		l0.5,0.9l0,0l-1.8,0.3l0.9,1.8l-1.3-0.1l0.2,1.3l-1.3,0.3l1.1,1.6l2.3,1.5l0.1,1.3l-0.7,0.8l-0.6-0.1l-1.3,1.8l-1.7,0.2l0.4,0.5
		l-0.9,1.3l0.3,0.6l-2,1.2v0.4l0.8,0.2l-1,1.5l0.6,0.9l-1.4,1l-0.1,0.8l0.6,0.3l-1.4,1.4l-1.4-0.1l-0.6-1l-1,1.1l-0.7-0.6l-0.9,0.2
		l-1.1,1.4l1.1,1.5l-3.5,6l-2,2.4l-0.7,0.3l-0.6-0.7l-0.6,0.7l-2.2,0.1l-1.7-2.8l0.3-0.7l-1-0.5l-1.5,0.1l-0.2,0.7l-1.6,0.2
		l-0.8,0.7l-1.2-1.9l-3.2-1.3l-0.6,0.2l-0.2-0.6l-1.1,1.1l-0.2,1.5l-1.4-0.3l0.4,1l-1.5,0.5l2.6,2.1l-0.2,2.5L403,406l-0.6,1.5
		l-1.1,0.2l-0.1,0.6l-0.7-0.1l-0.9,1.3l-0.3-0.2l0.1,2.3l0.8-0.1l0.6,0.6l-0.2,0.9l0.5,0.8l2.5,0.5l0.5-0.5l0.3,2.7l1,2.3l1.3,0.5
		l1-1.1l0.8,0.4v0.6l2.1,0.2l1.5,3.7l-0.1,1.2l0.6,0.4l0,0v0.7l-0.7-0.2l-4.4-3.7l-1,1.4v0.8l-1.9-0.2l-1.5,1.8l0.2,2.4l1.1,0.6
		l0.6-0.9l0.5,0.4l0.9,0.9v1.7l0.9-0.2l1,0.5l0.2-0.5l1.4-0.3l1.2,1l0.1,1.1l0.8,0.6l0.2,2.1l-1.8,1l-1.5-0.4l-5.6,1.7l-1.9-1.7
		l-2.3,1l0,0l0.1-1.5l-0.7-0.2l-0.2-0.8l0.6-0.6l-0.2-1l-0.9,0.1l-0.1-1l-1.7-0.5l-0.9,0.5l-1.2,2.1l-3.8,0.9l-1-0.6l-2.5-2.3l1-0.2
		l0.7-0.9l0.2-0.9l-0.7-0.2l0.8-0.8l-0.8-0.3l-0.3-0.9l-1,0.2l-0.5-1l-0.1-1.9l1.4-0.4l0.8-1l-1.4,0.1l-0.8-0.7l-1.9,0.9l-1.9,0.1
		l-1.4-0.9l-0.8,2.1l1,3.1l-2,1.4l-1-0.8l-2.3,1.9l-0.1,1.4h0.6l0.2,0.9l0.7-0.1l-0.7,0.8l-0.2,1.5l-2.7,2.6l0.2,0.9h-0.8l-1.1,2.1
		l-1.9,0.7l-0.6-0.6l-0.7,1.6l0.3,2.5l-0.5,1.3l2.4,6.9l-0.8,0.7l-0.1,1.9l-1.4-0.2l-2.6,2.2l-0.9-0.6l0.4-1.2l-0.9-0.4l-3.8,2
		l-2,2.1l-2.2-0.6l-1.1,0.9l-1.2-2.4l-0.6-0.4l-0.9,0.5l-0.4-1l0.8-0.4l-0.3-1.2l-3-2.2v-0.6l0.9-0.1l0.3-0.9l-0.4-0.4l0.8-0.8
		l-0.8-0.3l0.1,0.7l-0.9,0.2l-0.3-2.3l-1.2-0.3V447l-1.6-1l0.3-2.5l-1.5-0.2l0.1-0.9l-1.5-2.6h-0.7v-1.9l-0.6-0.1l0.2-0.8l-0.7-0.1
		l-1-1.7l-0.3-1.6h-0.6l-1.1,1.5l-1.5-0.8l-1.3,2.1l-0.2-2l-1.7-0.6l0.2-0.7l-1.3-1.2l-0.7-1.6l0.1-0.5l1.7-0.5l0.1-1.5l-1.5-0.7
		l0.2-0.9l-1-0.6l-0.6-1.5l-0.7-0.3l-0.7,0.4v-1.3l-1.1-0.7l-0.3-1.8l-1.2,0.5l-1.3,3.3l-1.8,0.7l0.5,3.7l-0.3,1.6l-1.1-0.8
		l-1.8-2.8l0.1-2.5l-0.9-3.1l0.1-6.4l0,0l-1.5-6.1l1-3.7l-0.4-2.2l-0.7-1.1l-1-7.8l0.7-1l-2.3-1.9l0.2-1.7l-2.5-2.7l0.4-2.2h0.7
		l1.2,1.2l1.3-1.8l-3.3-3.1l-2.6-3.6l0.2-2.7l-2.6-3.3l-0.4-1.9l-2.9-1.7l-3-0.8l0,0l-3.8-2.6l-0.9-3.1l0.4-0.8l1.6-0.4l-0.2-0.5
		l0.5-0.3l-0.7-1.8l1.4-1.4l0.3-1.3l1.8-1.1l-2.7-0.7l-0.5-1.8l-1.4-0.6l0.3-1l-0.7-2.2l0.2-0.9l3.1-0.4l0.4-1.4l1.5,0.6l-0.5,1.2
		l0.3,0.4l3.2-1.3l3,0.6v1l1.9-0.4l0.7,0.3l2.5,3l-0.5,0.4l0.4,1.2l1.1,0.9l-0.1,1l0.6,0.8l-0.3,1.2l0.6,0.3l0.5,1.6l4.2,1.8l1,2.2
		l1.1-0.3l4.8,2.9l0.6-2.3l-0.3-1.1l1.2,0.1l0.4-1.8l0.9,1.7h0.8v0.7l1,0.6l0.3,1.9l-0.6,0.9l0.4,0.5l1.2,0.5l0.6-2.1l1,0.3l0.8-0.5
		l0.9,0.9l1.3,2l-1.5,1.3l0.9,1l1.9-1.7l-0.1-1.5l0.7,0.1l-0.5-1l3.2,1.1l1.7-1.1l0.6,0.1v0.6l1-0.8l0.5-2.1l-1.5-1.3l0.5-3.6
		l2.3-0.9l0.6,0.9l0.1-1.1l1-0.1l2.2,1.7l1.1-2.5l-1.1-0.7l0.1-0.6l0.7-1.3l0.8-0.1L355.4,351.3z"/>
	<path id="CN-37" class="st0" d="M558.8,278.1l2.1,1.2l0.2,0.8l5.3,0.3l0.7,0.7l1.1-1.2l2.9-0.1l1.3,0.8l0.6,2.2l1.1,0.7v1.2
		l1.2,0.7l-0.2,0.5l1.2-0.8l0.1,0.4l-0.8,0.4l1.3,1.9l-2.4-0.9l-0.8,0.2l-1.5,2.5l0.5,3.9l1.9,1.3l0.3,1.2l0.1-0.5l0.6,0.7l0.8-0.1
		l-0.1,1.1l3.6-1l0.5,1.1l0.2-0.9l2-0.2l1.8-2l0.1-0.8l-0.8-1.1l3.1-1.1l2.6-2.2l0.3-1.2l-1.3-0.5l1.8-0.1l4.8-2.2l2.6,0.3l-0.2,0.6
		l0.9,1l1.7,0.1l-0.1,1.6l0.5,0.5h2l0.4-0.4l-0.3-0.4l1.1,0.5l-0.8,0.4l1.1,1.5l1.5,0.8h1.2l0.1-0.4l1.2,0.7l-0.1-0.6l2.2-0.3v0.8
		h0.6l-0.3-1l1.4-1.1h0.9l0.2,0.6l-0.5,0.2l0.6,1.2l0.9-0.5l1,0.9l2-0.4l-0.2,0.7l0.5,0.2L617,292l1.7-0.3l1,0.4l-1.9,0.8l0.4,0.3
		l-0.5-0.1v0.9l1,1.3l-0.8,0.2l0.2,0.6L617,296l-1.1,2v0.4l1.6-0.3l-0.3,2.1h-0.4l0.2-0.6l-0.9,0.1l-0.1,1l-0.8,0.4h-2.4l0.3-1
		l-0.7-0.7l-1.3,0.7l-0.4-1l-0.6,0.1l-4.2,2.4l0.1,1.2l-0.5-0.6H604l1.5-1.1l-1.4,0.5l0.1-0.5l-0.6,1.3l-3.6,1.3l-1.9,1.5l-1.1-0.1
		l-0.4-0.9h-0.5l-0.6,0.7l1.9,0.7v1.3l-0.7,0.4l-0.3,1.2l-0.9-1.5l-0.9,0.1l-0.7,1l0.5,1l-0.9-0.1l-0.2,0.8l0.5,0.2l0.4,2.2
		l-2.1,0.3l-2.6,1.1l-0.7-0.3l0.9-2.2l-0.5-0.5l-0.5,0.2l0.3,0.5l-1.7-0.2l-0.8,1.6l0.9,0.6l-0.1,0.5l0.8-0.5l-0.7,1.3l0.7-0.5v0.6
		l0.7-0.8l0.1,0.7l-1.5,1.2l0.4-0.9l-2,1.1l-0.5,2.4l-1.2-0.6l0.4,0.7l-0.9,1.6L583,320l0.3-0.6l-0.4-0.2l-0.8,1.3l-0.3-1.2l-0.8,1
		l-0.6-0.1l-0.8,3.1l-2,2.1l-0.5,2.5h-0.9l0,0l-1.3-0.3l-1.1,0.9l-2.4-0.1l-0.7,0.5v1.3l-1.8,2.9l0.7,0.5l-1.1,0.7l-2.1-0.5
		l-1.2,1.6l-0.3,2.6l-2.5,0.8l-0.5-0.1l0.1-0.9l-0.5-0.5l0.5-1l-1.2-0.1l0.2-1.4l-1.8-0.4l-1.8,0.4l-0.1,2l-1.5-0.3l-1.5,1.2
		l-1.2-0.4l-1.4-1.5l-1.1,0.9l-0.2,1.1l-0.6,0.1l-1-2.8l-0.8-0.2l0.3-0.8l-1.4-2.5l-2.4-1.1l-0.2,0.4l-1.8-0.3l-2.2,0.6l-0.6,2.2
		l-0.5,0.2l0.1,1.6l0,0l0,0l0,0l-1.7,1.4l-0.6-0.4l0,0l-0.7,0.3l-0.4-0.7l-0.8,0.2l-0.4-0.5h0.1l-1.8,0.4l-1.7-0.6l-0.3,0.6
		l-1.8-0.3l-1.2-1.4l-0.2-1.9l-1.7-1.1l-0.7,0.2l0.1-0.9l-0.7-0.2l0.2-0.6l-1.3-0.7l-2.5,0.5l-1.4-0.8l0.5-2.3l1.1-0.5l1.2-2.6
		l1.9-1.1l0.5,0.5l1.7-1.1l-0.3-1.4l0.5,0.2l1.6-2.5l2-0.2l0.8-1.6l2-0.3l-0.2-0.6l0.7-1l1.5,0.1l0.9-1.8l-0.1-0.5l-0.5,0.1
		l-0.7,0.8l-2.5,0.6l-3.3,1.8l-0.8-0.3v0.6l-1.6,1.5l-0.1-2.8l1.2-0.7l0.4-2.4l0,0l-0.1-1.4l-0.6-1l-0.8,0.2l-1-2.9l0.7-1.9l1.8-2.3
		l2.5-0.8l1.2-2.8l1.1-1.2l0.5-2l0.7-0.5l0.2-1.6l2.3-0.7l1,0.3l0.5-0.6l-0.7-0.4v-0.7l0.6,0.1l0.7-1.8l1.4,1.6l4.5-5.7l8-0.3
		l1.8-3.5l1.6-0.1l2.1-2.9l0,0L558.8,278.1z"/>
	<path id="CN-31" class="st0" d="M616.6,392.7l1,0.9h-1.3L616.6,392.7z M608.4,383.6l1,0.4l-0.2,0.9l-0.7-0.4L608.4,383.6z
		 M604.8,381.9l3.2,1.6l0.3,1L604.8,381.9z M602.5,381.8l1.1,0.3l4.2,3.2l1.5,2.2l0.9,2.7l-0.5,1.2l-4.6,0.4l-3.3,2l0,0l-0.1-0.8
		l-0.6-0.6H600l-0.3-1l-1.5,0.4l0.1-2.6l-1.3-0.1l0,0l-0.2-1.8l2.2-0.1l0.2-1.9l1.1-0.2l-0.5-1.4l0.6-0.2v-0.7L602.5,381.8
		L602.5,381.8L602.5,381.8z M602.1,376.4l4.7,3.3l2.9,0.9l0.9,0.7l-0.1,0.8l-1.7,0.7l-5.7-2.7l-2.8-2.5L602.1,376.4z"/>
	<path id="CN-14" class="st0" d="M511.5,237.7l0.8,1.8l1,0.6l-0.2,1.7l0.6,1.9l1.7-0.1l1,0.7l-1,1.2l-2.5,0.4l-0.3,0.7l-1.3,0.4
		l-0.6-0.2v1.9l-0.6,0.2l-0.5-1.2l-0.3,1.4l-0.8,0.5l1.4,0.3l0.5,1.2l2,0.8h2.2l0.6,1.2l-0.4,2.3l1.8,1.7l-1.7,4.1v0.9l0.6,0.5
		l-1,0.7l-0.4,1.3l-0.9-0.6l-1,1.2h-1.1l-0.8-1.4l-2,1.2l-1.5,1.5l0.1,1.4l1,0.9l-0.2,1.1l-0.5-0.1l-0.5,1l-0.6-0.1v0.9l-1.2,0.1
		l-0.6,1.4l0.3,1.5l-0.7,1.3l0.2,1.8l0.5,0.7l3.2,1.1l-0.2,0.7l0.8,0.8l1.2,3.9l0.9,0.8l-0.6,1l0.9-0.2l0.9,0.7l-3.2,6.9l-1.5,1.5
		l0.3,4.2l-0.5,0.4l-0.7-0.5l-0.3,1.7l-2.7,1.3h0.5l-0.4,1l0.8,0.3l0.5,0.9l-0.4,1l1.9,1.1l0.3,1l0,0l-0.7,2.5l0.3,0.3l-0.5,0.2
		l0.6,0.4l-0.7,0.2l0.1,1.4l0.5,0.2l-0.2,0.6h-0.6l0.2,2.3l-1,0.3l0.6,2.8L504,319l-0.7,1.8l-2.5,0.8v0.8h-1l-1.2,1.7l-1.6-0.3
		l0.1,0.7l-0.9,0.8l-1.4-0.1L494,326l-1-0.3l-0.3-0.7l-0.4,0.7l-2.8-0.4l-0.8,0.5l-0.6-0.1v-0.5l-0.9,0.4l-2-0.8l-0.4,3.8l-1-0.7
		l-1.6,0.1l-0.3,0.6l-1.7,0.6v0.7l-1.3,1.5l-4.1,1l-0.9-0.2l-2.4,1.6l-0.5-0.4l-0.4,1.1l-1.8-0.1l-0.9,1l-3.8-0.2l0,0L463,335
		l-0.6-1.2l0.5-1.4l-0.1-2.8l4.3-10.2l-2.1-8.3l0.7-6.5l-1.4-1.5l0.6-0.1l0.2-0.7l-0.9-0.6l0.5-0.5v-0.9l-0.6-0.2l0.6-1.4l-0.7-0.8
		l1,0.1l-0.5-0.4l1.4-1.1l2-2.8l0.2-1l-0.9-0.4l0.1-1l1.3-0.5l0.5-1.5l-0.4-1.4l0.5-0.2l-1.2-0.9l0.6-0.7l-3-3.3l-0.1-3.5l0.7-0.6
		l0.2-1.3h1l1.6-2.3l1.2-0.2l0.6-1.9l-0.4-1.1l1.6-3.7l-0.5-1.6l1.8-1.2l1.1-3.6l0.5-0.4l-1.4-1.1l0,0l0.3-0.8l2.4-0.2l1-1.4
		l0.1-2.1l2.7,0.1l1.4,0.8l2.1-0.4l0.6-3.1l4.2-7.3l1.9-0.8l3.6,2.2l1.2-0.6l0.6-2l1.2-0.5l3.3-0.9l0.8,1.5l3.1-0.4l3-2.8l0.9,1
		l1.2-1l1.3-0.2l0.1-3.1L511.5,237.7z"/>
	<path id="CN-12" class="st0" d="M552.6,246.1h2.1l1.2,2.1l1.3,0.4l-0.1,0.9l0.7,0.2l-0.4,0.8l-0.7-0.4l-2.1,0.1l-0.4,1.6l0.5,1.9
		l1.5,1.7l-0.6,1.2l0.9,0.2l0.2,0.7l0.7-0.9l2.1,0.4l-0.8,3l0.9-0.2l0.9,0.7l0.7,2.3l0,0l-1.9,0.2l-2.3,1.9l0.7,1.9l-0.9,0.1
		l-1.1,1.7l-0.8,3.4l0,0l-0.2,0.8l-3.7,0.6l-0.4-0.9l-1.6,0.7l-1-1.9l-1.3,0.2l-1-0.8h-1.1l-0.6-3.1l0.6-1.5l1.8-0.6l0.4-1.2l-1-1
		l0.4-2.1l-0.4-0.5l-0.4,0.3l0.4-1.4l-0.8-0.5v-2.5l0,0l1.2-1.4l0,0l0.7-0.2l0.3,1.1l2.3,0.2l0.5-2.4l-0.5-0.8l1.3-0.4l-1.3-0.5
		l-0.3-0.7l0.8-2.6l0,0l2.3-1.5v-1.3L552.6,246.1L552.6,246.1z"/>
	<path id="CN-71" class="st0" d="M605.5,514.6l0.3,1.2l-1.2-1.1L605.5,514.6z M581.3,493.8l0.6,0.8l-1.6,0.6l-0.4-0.4l0.3-0.6
		L581.3,493.8z M580.4,492.9l0.3,0.6l-0.5-0.4l-0.7,0.5v0.9l-0.6,0.1l0.6-1.3L580.4,492.9z M565.8,481.2l0.4,1.4l-2.1,0.4v-1.1
		l1.1,0.2L565.8,481.2z M588.7,505.6l-1-3l-1.7-1.5l0.7-0.7l0.2-2.3l0.8-1.3l-0.1-1.4l-0.5-0.1l0.8-4.2l1.2-0.4l-0.3-0.4l2.1-3.1
		l-0.5-0.2l1.3-1.4v-0.8l2.9-4.7l2.4-2.1l0.2-1.4l1.7-2.6l4.3-1.5l0.8-1.4l1.9-0.6l1.6,1.8l2.5,0.7l0.2,1.2l0.8,0.2l-2.3,2.3
		l0.6,4.2l-3.3,6.2l0.4,1.1l-0.5,0.6l-1.2,6.6l-1.5,3.8l0.1,1.2l-2.7,3.6l-0.2,1.2l-1.8,1.2l-1.7,4.5l0.1,4l-0.7,0.6l0.3,1.2
		l-1.3-0.8l-0.7,0.3l-0.3-1.3l0.4-1l-0.9-2.7l-3.6-2.8l-1.4-2L588.7,505.6z"/>
	<path id="CN-65" class="st0" d="M179.2,87.1l0.4,1.1l-0.4,1.4l1,1.2l-1.9,1l-0.2,1l0.9,0.7l-0.2,0.7l1.5,1h0.9l1.1,1.1l-0.9,1
		l-0.4,2.8l0.3-1.2l4.3,1.8l0.9,1.6l1.3-0.4l1.1,1.5l-0.2,2l2.2,1.8l2.8,1.1l0.7,0.9v1.6l2.1-0.1l2.1-1.7l2.5-0.1l0.7,1.9l2.3,2.4
		h1.9l0.2-1.3l1.3,0.4l0.1,1.8l3.3,2l-0.1,0.8l1.6,2.4l0.8,4.5l2.7,4.5l2.3,0.9l0.6,2.5l1.3,2.1l-0.4,2l0.6,0.5l-2.1,4.7l0.3,1.9
		l1.1,1.6v1.6l-4,5.7l-0.5,3.5l1.7,2.5l0.2,1.7l1,0.4l-0.2,1.3l3.2-0.2l3.1,1.7l1.1-0.7l1.7,1.5l5.4-0.1l2,0.7l2.6-0.3l1.8,0.7
		l7-0.2l5.5,0.9l8.7,5.4l1.4,1.3l0.2,1.1l3.2,1.4l1.5,1.8l3.7,1.6l5.5-0.6l-1,4.3l2.6,1l1.8,5.4l2.4,4.8l0.2,2.4l5.4,6.6l0.5,2.8
		l0,0l-3.4,2l-0.9,8.3l0.4,1.7l-0.8,2l-1.6,0.9l-2.2,0.3l-1.9-0.5l-5.8,1.3l-5.1,2.6l-8.6,8.9l-2.5,3.5l-2.1,4.4l-3.6,2.3l-5.6-0.4
		l0.1,6.5l-1.9,3.7l1.4,5.4l0.9,1.5l0.1,4.6l0,0l-5.7,1l-1.4,1.7l-4.1,0.7l-2.5,1.2l-5.4,1.1l-4.1,1.6l-4.4,0.8l-1.8-0.2l-0.2,1.2
		l-1.9,0.7l-0.4,1l-3.4,1v0.8l4.2,6.9l-1,1.1l0.5,1.2l-0.3,0.4l4.7,2.3l1.8,2.5l1.9,0.2l1.3,4.1l1.2,0.9l0.4,1.9h-1.7l-2,1.6
		l-2.1,0.1l-1.7,2l0.4,1L216,303l0.3,1.5l3.8,0.9l-0.1,3.2l0.6,0.5l-0.4,0.6l0.7,0.7l0.1,1.9l-1.6-0.2l-0.6,1l-1.1,0.3l-2.1-1.7
		l-5.7-0.5l-1.3-0.7l0.1-0.5l-1.6-0.5l-0.7,3.1l-2.8-0.1l0,0l-3.1-1l-3.2-2.2l-1.3,0.6l-2.6-1.7l-2,1l-1.8-1.4l-0.4-1l-1.1,0.1
		l-0.4-0.6l-2.8,0.2l-1.4,0.7l-1.9-0.2l-1.1,1l-2-0.2l-2,0.7l-1.2-0.3l-0.2-0.8h-1l-0.9,0.8l-1.4,0.2l-0.6,0.8l-1.9-0.2l-1.2,0.7
		l-0.4-0.6l-1.4,0.2l-1.1,0.9l-2.1,0.5l-0.7-0.3l-2.6,1l-0.7,0.5l-0.2,1.5l-1.6,2.9l-1.2,1l-3.2,0.5l-1.3,1.6l-0.9-0.2v-0.8
		l-3.3-1.1l-3,0.5l-2.5,1.6l-4.9,1.4v1.1l-3.4,1.9l-2.4-1l-1.5,0.9l-3.2,0.4l-1-0.1l-0.6-0.8l-1.3,0.2l-1.9-0.6l-1.5,0.3l-1.6-1.3
		l-0.5-2.9l-2.1-0.3l-0.8,0.8l-1.3-0.9l-2.2-0.4l-0.8,1l-0.7,0.1l-0.2,1.5l-3.4,1.6l-0.4,1.9l-1.1,0.1l0.2,0.4l-1,0.5l-2.4,0.4
		l-1.5-0.2l-1.5-1.8l-2.8,0.6l-1.5-1.4l-0.8,0.4l-0.1,1.1l-3.9-0.4L89,323h-1.2l-0.3-0.8l-0.9-0.2l-2.2,1.5l-0.3,2l-1.5,2l-1.2,0.6
		l-0.7,3l-1.3,0.2l-0.2,1.6l0.7,0.8l-0.7,0.5v2.1l-0.8,0.8l-2,0.5l-1.3-0.5l-4,1l-1-0.4l-0.9,0.4l-0.5,1.2l-1-0.8l-0.4,0.2l0,0
		l-4.5-3.7l-1.9,0.1l-0.2-0.7l-1.5-0.3l-0.7-0.8l-1.9-5.6l0.5-0.8l-1-1l-0.6-2.2l1.4-2.1l-1.8,0.1l-0.7,0.8l-1.1-1.4l-1.5,0.6
		l-3.7,0.2l-1.1-1h-1.6l-4.2-2.2h-1.3l-2-1.7l-0.4-2.1l-2.8,1.3h-2.2l-0.2-1.5l-0.9-1.3l-1.1-0.1l-0.7-0.8l-0.1-1l1-0.5l-0.2-0.8
		l0.6-0.1l-0.9-1l0.3-2.5l-2-3.5l-2.5-1.5h-1.3l-0.7,0.8h-1l-0.7-3.5l-2.1-0.2l-1.1-1l-1.5,0.1l-1.3,1.2l-0.9-0.8L15,297l-1.1,0.6
		l-0.7-1.1h-0.5l-0.9,0.9l-1.7-1.3l0.7-0.8v-1.2l2,0.3l1-0.7l0.8,1l1.1-0.1l0.6-1.1l2.3-0.5l0.3-1.8l-1-1.5l-1.6-0.5l-0.4-1.6
		l1.3-1.7l-1.1-1.1l0.1-2.8l-0.7-0.3l-0.9-2.5l-0.1-2.6l1.1-0.7V274l-0.5,0.3l-2.4-1.6l-3.3-1.2l-3.1-0.2l-0.7,2.2l-1.8-0.1l-2.1-1
		l0.3-0.6l-1.3-3.5l0.6-1.1l1.1-0.1l0.1-0.6l-0.3-0.9H1.3l-0.9-2.2l-1.6-1.5l1.4-1.6l-0.1-1.7h2.3l1.2-2.1l-0.3-2.2l-1-0.7l1.9-3.8
		l-0.5-0.4l1.2-1.1l0.9,0.2l1.5-0.8l1.4,0.7l3.1-3.1l1.2,0.1l0.2-1.3l1.2-0.1l0.7,0.6l0.5-0.3l-1.4-1.8l0.5-1.3l2,1.2l2.9,0.1
		l3.1-2.8l1.7-0.8l0.6,2.5l1,0.5l-1,1.6l0.7,1.8l1.6-1l1.2,0.9l0.6-1.5l1.6-0.5l1.2,0.4l1.3-1.3l0.5,1.7l2.4-1.7l0.2-1.2l1.4-1.6
		l-0.2-2.1l1.9-1.6V234l1-1l2.3-0.6l1.3,0.7l2.6-0.3l2.4,0.7l5.5-1.4l1,0.8l1.7-0.8l1-2.2l1.4-1l0.1-2.3l3.1-1l0.9-1.4l1.6-0.4
		l7.3-4.5h0.8l0.1,1.1l2.4-0.2l2.7-4.2l5.1-0.4l-0.5-2.7l0.5-0.9l-1-2.7l0.1-0.9l0.8-0.6l-1.1-0.9l-0.2-1.5l1.1-2.9h1.8l2.4-1.2
		l-2.4-1.6l-0.1-1.1l2.5-1.5l2.3-0.3l0.3-0.5l-0.5-2l-1.2-0.3l1.1-2.5l-2.9-6.5l-2.2-11.4l0.8-2.3l-0.5-0.8l1.6-0.9l-0.1-0.5
		l-2.6-1.9l-3.2,0.7l-0.9-1.4l-1.4-0.4l3-2v-0.7l1.7,0.3l1.1-0.6l0.9,0.4l1.1-1.3l1.7,0.1l1.5-1.1l2.1,0.8l0.8-0.7l1.6-0.1l0.4-0.8
		l0.8,0.2l3.2-1.4l0.9,0.2l2.6-1.6l1.2,1.1l0.4,1.8l1-0.1l0.7,0.9l3.8-1.4l2.9,2.1l1.3-2l0.5-2.3l-0.3-1.3l-2.4-0.7l-1.8-1.8
		l2.9-7.4l0.3-3.6l2.7-6.1l0.9-4.2l1.6-4.9l0.7-0.8l0.5-2.9l1.8-0.2l0.9,0.9l1.3,0.1l0.7,1l0.6-0.2l1.5,1.4l5.8,1.7l2.2-0.6l2.7-0.2
		l1,0.6l2.3-0.5l1.3,1.8l-1.2,1.3l1.4,0.2l2-0.8l0.2-0.8l1.2-0.3l1.9-2.2l3.9-0.1l0.6-2.4l1.5-0.8l0.1-2.7l-1.3-2.7l0.2-1.6l-1-6.2
		l0.9-4.1l1.6-4l1.4-1.1l2.1-0.4l2.5,0.3l1.3-1.2l1.5,0.1l2-0.9L164,98l1.6-1.7l-0.2-1.3l0.8-1.2l-1-1.4l-0.1-1.5l1.3-1.2l0.5-1.2
		l1.3,0.2l2.1-1l3.6,1.3l1.1-0.4l0.1-0.7l0.7,0.3l1.7-0.8L179.2,87.1z"/>
	<path id="CN-54" class="st0" d="M66.7,338.8l0.4-0.2l1,0.8l0.5-1.2l0.9-0.4l1,0.4l4-1l1.3,0.5l2-0.5l0.8-0.8v-2.1l0.7-0.5l-0.7-0.8
		l0.2-1.6l1.3-0.2l0.7-3l1.2-0.6l1.5-2l0.3-2l2.2-1.5l0.9,0.2l0.3,0.8h1.2l0.8,0.9l3.9,0.4l0.1-1.1l0.8-0.4l1.5,1.4l2.8-0.6l1.5,1.8
		l1.5,0.2l2.4-0.4l1-0.5l-0.2-0.4l1.1-0.1l0.4-1.9l3.4-1.6l0.2-1.5l0.7-0.1l0.8-1l2.2,0.4l1.3,0.9l0.8-0.8l2.1,0.3l0.5,2.9l1.6,1.3
		l1.5-0.3l1.9,0.6l1.3-0.2l0.6,0.8l1,0.1l3.2-0.4l1.5-0.9l2.4,1l3.4-1.9v-1.1l4.9-1.4l2.5-1.6l3-0.5l3.3,1.1v0.8l0.9,0.2l1.3-1.6
		l3.2-0.5l1.2-1l1.6-2.9l0.2-1.5l0.7-0.5l2.6-1l0.7,0.3l2.1-0.5l1.1-0.9l1.4-0.2l0.4,0.6l1.2-0.7l1.9,0.2l0.6-0.8l1.4-0.2l0.9-0.8h1
		l0.2,0.8l1.2,0.3l2-0.7l2,0.2l1.1-1l1.9,0.2l1.4-0.7l2.8-0.2l0.4,0.6l1.1-0.1l0.4,1l1.8,1.4l2-1l2.6,1.7l1.3-0.6l3.2,2.2l3.1,1l0,0
		l-2.9,0.9l-0.9-0.2l-0.3,0.7l0.2,1.2l1.4,0.9l3.4,0.2l-0.9,3.1l0.5,1l-0.8,0.7l0.8,1l-0.9,0.9l-2.4,0.9v1.2l0.4,0.1l-1,0.8l0.8,1.5
		l0.9,0.3v3.3l2.7-0.3l0.8,1.5l-1.8,1.4l0.2,1.2l0.7,0.3l0.1,3.4l0.9,1l-0.5,0.6l-0.2,2l-1.5,0.6l-0.6,1.1l1.9,2.8l1.7,1l-0.2,1
		l1.2,0.7l-0.3,0.9l3.1,1.9l0.1,1.5l1.7,2l1.5,0.1l2.6,1.9l1.7,0.5l1.8-2h2.3l0.7-1.3l2.1,0.1l0.3,0.5l-0.5,0.6l1.3,2l2.6,1.8l2,0.7
		l1.6,1.9l2.2-1l1.1,0.7l-0.3,1.3l0.8,0.5l2.4-0.7l2.4,0.6l0.6-0.7l2.3,1l1.8-0.7l0.6,1.7l2.3-0.5l1.7,2l1-0.4l0.8,1.2l1.7-1.4
		l0.9-0.1l1.1,0.4l0.6,1.2l1.3-0.2l0.6,0.6l0.6-0.4l1,0.5l0.9-1.2l2-0.1l0.4-1.2l0.7,0.5l2.1-1.6l2.1,1.8l-0.3,0.3l0.7,0.7l1,0.3
		l0.5,1.1l-0.4,0.5l1.4,0.6l0.8,1l2.9-0.1l0.6,1.2l1,0.2l0.2,1.3l-0.5,0.4l0.4,0.5l-0.9,0.7l1.9,3.1l1.4-0.5l1.6,0.3l0.8,1.2
		l0.6-0.6l2.9,0.1l1.2,2.5l0.7-0.7l-0.5-0.2l0.4-1.2l-0.4-1l-1.1-0.9l0.2-0.6h0.7l-0.2-0.6l1.6-0.7l1.6,2.3l1.3,0.9l1.7-0.1l0.7,0.8
		l0.9,0.1l0.4-0.8l-1-1.9l0.6-0.6l-1.1-2l1.7,0.7l0.5-0.6l0.8,0.3l-0.1-1l2.7,0.5l0.9-0.4l-0.2-0.8l1.1,0.4l-0.6-1.5l0.3-1.5
		l1.6-0.4l-0.7-0.4l0.7-0.2l-1-1.4l0.4-1.2l3.8,0.8l0.7-0.8l0,0l3,0.8l2.9,1.7l0.4,1.9l2.6,3.3l-0.2,2.7l2.6,3.6l3.3,3.1l-1.3,1.8
		l-1.2-1.2h-0.7l-0.4,2.2l2.5,2.7l-0.2,1.7l2.3,1.9l-0.7,1l1,7.8l0.7,1.1l0.4,2.2l-1,3.7l1.5,6.1l0,0l-1.9,0.9l0.7,1.9l-1.2,1.1
		l0.5,2.1l-1.5,0.3l-0.8-2.8l-1.9,0.4l0.7,3.4l-1.2,0.9l0.4,2.4l0.8,0.4l0.9,1.9l-0.6,1.5l-1.1,1l-0.9-0.3l-1.8,1.1l-0.6-2.7
		l-0.9-1.5l-1,0.6l0.8,1.6l-1.2,0.5l-0.4,0.9l0,0l-0.9-0.9l-0.7,0.1l0.1-0.9l-1.6-1.6l-1.2,0.6l-1.1-2.5l-1,0.6l-0.7-1l-1.2,2.3
		l-0.1,1.5l-0.6-0.3l-0.8,0.9l-2.3-0.9l-1-1l-1.2,0.8l-1.2-1l-1.5,0.2l-1.5-1.4l-2.6,0.7l-0.7,1.1l-0.4-0.7l-1.3-0.2l1.3-1.1
		l-0.6-0.7l1-0.4l-0.1-0.4l1.2-0.6l-0.3-0.7l1.4-0.5l0.4-0.8l-1.8-3.1l0.6-1.2l-2.3,0.7l-2.3,1.8l-0.3-0.5l0.5-0.7l-0.9-1.3l2.9-1.3
		l0.6-1.2l-0.4-0.4l-1.5,0.7l-2.1-3.3l-1.6,1.2l-1-0.1l-3.1,2l-0.5-0.2l-0.2,0.6l-0.6,0.1l0.1,1.2l-0.6-0.2l-0.6,1.5l-2.3-0.3
		l-0.2-0.8l-1.6-0.1l-1.6-0.8l0.3,0.6l-1.9-0.8l-0.9,0.3l-0.3-1.1l-1.9-1.5l-0.9,1.7H262l-2.7,2.1l-0.8,1.9l-2,1.6l0.1,0.9l-1,1.5
		l-1-0.5l-0.9,0.6l-3.6-0.2l-0.2,0.4l-0.4-0.3l-0.7,0.6l-0.8,1.9l-1.2,0.9l0.6,0.6l-0.2,1l-2.5,0.4l-0.3,1l-0.5-0.4l-3.5,1.9
		l-0.3,0.9l1,1l-2.3,2.4l-0.8-0.3l-2.3,0.9l-0.7-1.1h-0.7l-3.7,2l-0.7-0.3l-0.5-1l-1,0.1l-1.4-0.7l0.4-1.2l-2.3-0.5l-2.1-1.6
		l-2.8,1.7l-1-0.1l-1.1-1l-2.1-0.1l-0.5-0.6l-3.4,0.8l2-2.6l-3.4-0.5l-1.8-1l-0.9,0.5l-1.7-0.6l-1.2,0.3l-1.2,1.1l-0.1,0.7l-2.4,0.3
		l-1.7,1.5l-0.4,1l-1.1,0.2l0.1,1.5l-1.2,0.4l-1.7,3l-2,1.7v3.2l-2.4-2.5l-0.2-1.6l1-1.4l0.5-2.7l-0.7-2.2l-1-0.9h-1.1l-0.6-0.8
		l-1,1.3l-3.7,1.3l-1.4-0.2v1.4l-1.4-0.7l-1.6,1.6l-2.2-0.5l-1.2,0.4l-0.2-0.8l-1.5,0.6l-0.6-0.4l-3.6,0.4l0.1-0.5l-1.3-1.1
		l-1.4-0.3l-1.1-1l-0.7,0.1l-1.2-1.3l-2.4,1.2l0.1,1.5l-1.3,0.2l0.1-0.8l-0.9,0.3l-1.8-0.6l-0.6-2.6l-1.1,1.1l0.6,2.1l-1.6,0.3
		l-0.7-0.3l-0.7-2.5l-4.2-2.8l-1.5-0.2l-0.8,0.7h-1.6l-0.6-0.8l-1.1,0.1l1-4.1l-0.8-0.8l-3.4,1.6l-2.1-0.6l-0.4-1.6l-3-0.1l0.2-1.1
		l-0.4-0.6l-1.8-0.9l-1.4,0.4l0.2-1.5l-0.6-0.9l1-2.3l-1.3-0.9l-2.2-0.5l-1.7,1.1l-0.9-0.1l-1,1l-1.2-0.6l-3.7-5.4l-5-1.8l-4.3-4.3
		l-3.8-1.2l0.1-1.2l-0.8-2.2l-6.5-1.5l-0.6,0.1l-0.1,0.8l-1.2-0.8l-1,0.1l-0.3,3.1l-0.6,0.8l-0.9,0.1l-0.1,1.3l-0.7,0.4l-1.3-0.7
		l0.1-1l-1.2-1.6l-2.5-0.8l-2.9-2.4l-0.7,0.5l-4-1.9l-0.4-1.4l0.7-1l-0.9-1l-0.8,0.4l-0.8-0.9l-1.6-0.7l-0.8-1.3l-1.4-0.4l-2.1,0.8
		L74,389h-1.1l-0.4-1.2l-1-0.4l-0.8-1.5l0.2-0.6l-1.5-2.1l-1-0.5l-0.7,1.6l-0.8,0.4l-0.1,1l-0.4-0.1l-0.6-1.5l-0.7-0.4l0.2-0.8
		l-1.1-1l1.6-1.4l-0.7-1.1h-0.6l-0.5-1.5l1-3.1l-2.2-1.8l-0.1-1.4l-1.9-0.4l1-2.6l-1-0.6l-0.3-1.5l1.7-0.8l1,0.1l1.5-1.3l0.4,3.3
		l2.5,2l0.9-0.6l0.7,0.2l0.3-1.4l1-0.7l0.7-0.2l0.7,0.5l1.7-1.5l1.2-0.3l0.2-0.9l-1.5-3.3l-1.2-1.4l0.7-3l-4.2-0.8l-0.1-1l-3.1-2.8
		l-1.4-2.6l0.9-1.8l-0.9-2.3l0.8-1.5l-0.8-0.8l3.4-2.6l0.2-1.1L66.7,338.8z"/>
	<path id="CN-53" class="st0" d="M321.8,414.6l-0.1,6.4l0.9,3.1l-0.1,2.5l1.8,2.8l1.1,0.8l0.3-1.6l-0.5-3.7l1.8-0.7l1.3-3.3l1.2-0.5
		l0.3,1.8l1.1,0.7v1.3l0.7-0.4l0.7,0.3l0.6,1.5l1,0.6l-0.2,0.9l1.5,0.7l-0.1,1.5l-1.7,0.5l-0.1,0.5l0.7,1.6l1.3,1.2l-0.2,0.7
		l1.7,0.6l0.2,2l1.3-2.1l1.5,0.8l1.1-1.5h0.6l0.3,1.6l1,1.7l0.7,0.1l-0.2,0.8l0.6,0.1v1.9h0.7l1.5,2.6l-0.1,0.9l1.5,0.2l-0.3,2.5
		l1.6,1v0.7l1.2,0.3l0.3,2.3l0.9-0.2l-0.1-0.7l0.8,0.3l-0.8,0.8l0.4,0.4l-0.3,0.9l-0.9,0.1v0.6l3,2.2l0.3,1.2l-0.8,0.4l0.4,1
		l0.9-0.5l0.6,0.4l1.2,2.4l1.1-0.9l2.2,0.6l2-2.1l3.8-2l0.9,0.4l-0.4,1.2l0.9,0.6l2.6-2.2l1.4,0.2l0.1-1.9l0.8-0.7l-2.4-6.9l0.5-1.3
		l-0.3-2.5l0.7-1.6l0.6,0.6l1.9-0.7l1.1-2.1h0.8l-0.2-0.9l2.7-2.6l0.2-1.5l0.7-0.8l-0.7,0.1l-0.2-0.9h-0.6l0.1-1.4l2.3-1.9l1,0.8
		l2-1.4l-1-3.1l0.8-2.1l1.4,0.9l1.9-0.1l1.9-0.9l0.8,0.7l1.4-0.1l-0.8,1l-1.4,0.4l0.1,1.9l0.5,1l1-0.2l0.3,0.9l0.8,0.3l-0.8,0.8
		l0.7,0.2l-0.2,0.9l-0.7,0.9l-1,0.2l2.5,2.3l1,0.6l3.8-0.9l1.2-2.1l0.9-0.5l1.7,0.5l0.1,1l0.9-0.1l0.2,1l-0.6,0.6l0.2,0.8l0.7,0.2
		l-0.1,1.5l0,0v1.2l-1,1.1l0.4,0.4l-0.9,2l-1.5-0.6l-2.6,1.8l-0.6-0.9l-0.5,0.5l-0.5-0.4l-1.5,0.5l-1-0.4l-0.3-0.9l-1.9-0.9
		l-1.3,2.3l-0.9,0.5l-2.1-1.5v-0.8l-1-0.1l-0.8,1.9l-2.1,2.4l-1,0.3l0.4,0.6l-0.7,0.1l0.2,0.9l1.1-0.6l1,1.4v1.1l-0.9,0.9l0.4,1.1
		l0.4-0.1l-0.3,1.5l0.8,1.2l2.5,0.3l1.5-1.8l2.7,0.3l0.8-1.3l0.6,1.5l1.4,0.3l0.1,0.8l1.2,1.3l0.2,0.8l-1.8,1.7l-0.3,2.2l-0.8,0.3
		l-0.2,2.8l-0.8,1.9l-0.7-0.2l-0.1,1.3l0.2,0.7l1.3,0.3l0.1,1.4l1.6-0.6l-0.2,1.6l1.2,0.6l0.1,0.9l2.1,0.6l-0.1,1.2l-0.9-0.7l-0.9,2
		l-0.6,0.1l0.7,0.1l0.4,0.9l-2.1,2.4l-0.2,1.3l0,0l-0.6,1.1l0.3,1.1l1.3,2.7l1.1,0.8l0.3-1.7l2.9,0.5l1.3-0.5l1.9,1.4l-0.2,0.7
		l0.6,1.3l-0.7,0.7l1,1l0.8-0.7l2.1,1.3l0.6-1.5l0.9-0.1l0.7,1.3l1.4-0.4l0.9,0.6l0.7-0.3l0.2-1l1-0.1l1.2,1.4l1.3,2.2l-0.8,1
		l0.1,3.1l-1.8,1.7l-0.2-0.6l-2-0.4l-0.2,0.7l-2,0.9l0.5,0.9l-0.5-0.3l-0.8,0.5l-0.8,0.9l0.2,0.7l0,0L400,496l-1.3,1.7h-1.8
		l-1.7,1.3h-0.7l-0.2,0.7h-1l0.8,2.5l-1.6,1.7l-2-0.4l-2.7,2.2l-1.2-0.7l0.1-1.4l-2.1,0.4l-1,1.2l-0.8,3l-4-3.8l-1.2,1.2l-0.4,1.5
		l-1.3-1.7l0.1-0.6l-1.5-0.8l-0.5,1.9l-1.2,0.5v1.2l-1.3,0.6l-0.1,0.8l-1.8-0.5l-0.9-1.7l-3.2-1.7l-0.5,0.4l-0.9-1l-1.5,1.3l0.2,0.7
		l-1.6,1.8l-0.1,1.2l-0.9-0.3l-0.5,0.5l-1.5-0.8l-1.3,0.3l-0.4,0.7l-1.2-1.6l-1.3,0.3l-0.7,2.5l-1.1,0.5l0.7,1.2l-0.3,0.6l0.6,1.9
		l1,0.3v0.7l0.9,0.8l-0.4,1.5l0.9,1.6l-0.8,0.3l-0.3,3.5l1.3,0.8l-0.1,0.5l-0.8,0.1l0.1,0.9l-1-0.1l-0.4-0.7l-0.9,0.3l0.1-0.7
		l-0.6-0.2l-3.5,0.9L348,524l0.5-0.8l-0.9-0.5l0.3-1.9l-0.8-0.1l0.2-1l-0.7-0.3l0.1-1.5l-3.7,1.7l-2,2.2l-2.4,0.3l-1.4-1.1l-2.3,1.3
		l-1.1-1.9l0.7-1.1l-0.4-0.5h-1.6l-0.5-0.6l-0.4-1.1l0.7-2.1l-0.4-1l-1.1-0.2l-0.4,0.6l-1.3-0.7l-0.6,0.5l-0.6-0.8h-1.6l-0.7-0.5
		l-1.8,0.5l-2.2-0.8l1.4-2.6l-0.3-0.5l1.7-1.5l-0.8-3.4l1.5-1.4v-1.3l0.8,0.5l0.7-0.4l-0.7-2l-2.1-0.7l-3,0.6l-0.8-0.5l0.1-0.5
		l-2.2-0.3l0.7-1.4l-0.7-0.5l0.5-1.3l-0.6-0.9l-0.6,0.2l-0.3-0.9l1.1-1l-0.9-2l-1.8-0.7l0.4-1.8l-0.4-0.3l2-1.2l0.5-1.4l-3.4,0.8
		l-0.9-0.5l-5,0.4l-3.2,1.3l-3,2.3l-1.4-1.3l1.2-0.9l1.6-2.3l-0.4-0.5l0.4-1l-1.2-0.4l-0.1-0.5l0.7-0.2l-0.5-1.2l-1.8,0.1l0.2-4.2
		l3-1.5l-0.9-1.9l1.6-4l1.3,0.6l2.4-2.3l-0.2-1.7l0.7-0.6l-0.1-1l1.8,1.1l0.6-0.2l1.5-3.4l0.9-0.6l1.1,0.6l0.9-0.9l0.1-0.5l-1.3-1.2
		l-0.5-1.8l1-0.4l0.2,0.8l0.6-0.6l0.2-0.7l-0.8-0.9v-0.9l0.8-1l0.5-3.3l-0.5-3.4l0.3-2.7l-0.8-0.8l-0.2-1.5l0.6-1.5l-0.6-2.1
		l0.2-1.4l-0.5-0.7l-0.9,0.2l-0.5-0.8l-0.4,0.3l-1.3-0.8l-0.1,1.6l-1.1,0.7l-1.4-2.9l0.1-1.4l-0.8-0.4l0.5-0.7l-0.9-0.8v-2.5l0,0
		l0.4-0.9l1.2-0.5l-0.8-1.6l1-0.6l0.9,1.5l0.6,2.7l1.8-1.1l0.9,0.3l1.1-1l0.6-1.5l-0.9-1.9l-0.8-0.4l-0.4-2.4l1.2-0.9l-0.7-3.4
		l1.9-0.4l0.8,2.8l1.5-0.3l-0.5-2.1l1.2-1.1l-0.7-1.9L321.8,414.6z"/>
	<path id="CN-33" class="st0" d="M609.2,404.2l-0.3-1.2l0.5-0.5l0.7,1.2L609.2,404.2z M613.1,403.9l1.6,1l0.6-1.4l-3-2l-1.6,0.1
		l-0.4-0.5l1,2.8L613.1,403.9L613.1,403.9z M615.6,396.8l-1.2,0.1v0.8l2,0.1L615.6,396.8z M616.2,399.9l-1.7,0.4l1.7,0.1V399.9z
		 M613.7,398.9l-2.2,0.5l2.2,1V398.9z M611.8,407l-0.3,0.9h0.8l0.9,1l0.3-0.6l-1.1-1.5L611.8,407z M616.1,406.2l0.2-1.6l-1.2,0.1
		L616.1,406.2z M614.9,407.1l-0.2-1l-1,0.1L614.9,407.1z M601.3,429.4l-1.3,1.2l0.3,1.4l1.8-0.8l-0.3-1.4L601.3,429.4z M610.6,414.3
		l0.3,0.2l-0.8,1l-1.6,0.5v-3.2l-0.5,0.3l-0.1,2.5l-1.7-0.1l-0.4-0.9l-0.9,0.9l1,0.7l-1.8-0.2v0.7h2.4l-0.1,0.8l0.9,0.6l-0.6,0.5
		l0.8,0.4l-1.1,0.6l-1.6-0.6l1.7,0.9l0.5,1.4l-0.8,1.2l-2.1,0.3l0.7,0.3l0.5,1.8h0.9l-0.6,1.4l0.4,1.6l0.8-0.4l-0.4,1l-0.7,0.5v-0.9
		l-1.5-0.3l-1.5,2.7l-1.4-1.8l-0.5-1.8l-1.1,3.2l-1,0.4l-0.7,2.2l-2-0.1l-1.2-0.7l0.4,0.8l1.6,0.7v1l-3.3,3.9l0.3,1.3l0.8,0.3
		l-0.6,0.7l0.1,0.9l-1.3-0.5l-0.4,1l0.5,0.2l-0.5,0.6l0.3,0.4l-0.9,1.2l-0.9-1.1l0,0l0.3-0.2l-0.9-1.2l0,0l-0.1-0.7h-0.9l0,0
		l-0.4-0.5l-1.4,0.2l-1.3,1.1l-0.4-0.5l-0.8,0.9l-2.2,0.1l0.2-0.3l0,0l-1.2-1.5l0.3-1l0,0l-1-1.2l0.1-1.1l-1-0.1l-0.2,0.5l-0.6-0.2
		l-0.5,2l-1-0.3l-1.7,1.6l-1.4-0.2l-0.1-0.7l-1.4-0.2l-0.6,0.5l0,0h-0.6l-0.4-0.8l0,0l0.2-2.8l-1-2.8l-1.1-1l-0.1-1.1l1-1l-0.4-0.8
		l0.5-0.9l-1.2-0.9l-1.3,0.8l-0.4-0.5l-1,0.1l-0.1,0.6l-1-0.8l0,0l0.7-0.6l-0.5-1l0.4-0.9l-0.6-0.3l0.2-2.5l-0.7-1.6l-1-0.7
		l-0.5-1.3l-0.8,0.2l0.3-0.5l-0.4-0.5l-1.1-0.2l-0.7-1.5l0.4-2.8l1.2-0.1l0.5-0.8l-0.2-0.6l0,0l0.6-0.6l0.8,0.1l0.1-1l1.1,0.2
		l1.1-0.5l0.8-1.5l2.4-1.7l0.2-1.6l1.8-1.5v-3l-0.6-0.1l0.9-0.8l-0.5-1.5l0.9-0.6l1.1,0.8l2.3,0.2l0.3-0.7l1.9-0.4l-0.9-2.4
		l-1.1-0.1v-1.1l0.9-0.1l0.9-0.9l0.7,0.5l0.6-1.9l1.1-0.8l0.8-4.4l0,0l1.9-0.6l1.6,0.1l1,2.2l2,1.3l2.7-0.3l-0.1,1l0.9-0.5l1,2.3
		l0.9-1.4l1.6-0.6v-1.1l2.5-0.6l0,0l1.3,0.1l-0.1,2.6l1.5-0.4l0.3,1h1.1l0.6,0.6l0.1,0.8l0,0l-3.5,1.9l-1,2.7l-1.8,0.8l-0.4-0.9
		l-1-0.4l0.5,2l0.5,0.6h1l0.7,1l3.9-2.5h2l2.2,1.8l2.2,3.3l1.4,0.2l1.7,1.1l2.5-0.2l0.1,0.4l-3.4,1.8l-0.2,0.9l-1.9,2l-2.2,0.6
		l-0.4-0.4l-0.8,1l0.3,0.9l0.8-1.1l-0.3,1.5l1-1.3l2-1l1,0.9l0.3-1l-1.1-0.2l2.2-1.2l1,0.6l-0.9,0.9l0.8,1.2l-0.8,0.5l-0.1,1.1
		l0.5,0.1l-0.6,0.6L610.6,414.3z M608.2,416.2v0.4h1.6l0.3,0.8l0.7-0.4l-0.5-1.4l-1,0.6L608.2,416.2L608.2,416.2z"/>
</g>
</svg>
