<?xml version="1.0" encoding="utf-8"?>
<!-- Generator: Adobe Illustrator 19.0.0, SVG Export Plug-In . SVG Version: 6.00 Build 0)  -->
<svg version="1.1" id="Layer_1" xmlns:amcharts="http://amcharts.com/ammap"
	 xmlns="http://www.w3.org/2000/svg" xmlns:xlink="http://www.w3.org/1999/xlink" x="0px" y="0px" viewBox="-270 433.5 300 324"
	 style="enable-background:new -270 433.5 300 324;" xml:space="preserve">
<style type="text/css">
	.st0{fill:#2B2B2B;stroke:#FFFFFF;stroke-width:0.5;}
</style>
<defs>
	
	
		<amcharts:ammap  topLatitude="53.562517" projection="mercator" bottomLatitude="18.153878" rightLongitude="134.775703" leftLongitude="73.554302">
		</amcharts:ammap>
</defs>
<g>
	<path id="CN-34" class="st0" d="M271,769.8l0.7-0.2l2.1,2.2l-0.2,0.3l2.4,0.4l0.8,1.1l1.7-0.1l0.1,1.7l1.1,0.6l-0.4,1l1.3,1.2
		l0.8,0.4l2-0.3l0.8,1l1.2-0.6l0.8,1.2l0.6-0.7l1,2.1h0.7l-0.3,2.4h2.6l0.3-0.5l2.8,0.3l-0.9,1.9v2.1h-0.9l-1.3,3.8h0.6l0.7,1.3
		l1.4-0.5l0.3-0.6l0.4,0.2l0.5,3.1l0.9,0.5l-1,0.5l0.2,1.2l0.5-0.2l0.2,1.2l0.8,0.1v0.8l3.4-0.4l0.9,0.4l0.5-0.3l-0.1-1.6l0.8-0.1
		l0.5-1.5h2.1v0.8l1.1,1.2l1-0.1l0.6,3.4l-0.2,0.5l-0.4-0.4l-0.4,1.6l-0.8,0.6l-0.6-0.9L304,802l-1.1-0.8l0.2-0.5h-4.2l0.3,1.6
		l1.2,0.1l0.2,2L300,805l0.1,1.2l-2,0.4l-0.1,1l-1.3,0.6l-0.3,2.2l1.7,1.3l-0.3,0.7l0.5,0.8l1.2-0.3l0.6,0.5l-0.2,1.3l0.9,0.1
		l0.6-0.7l0.3,0.9h0.8l0.1,2.9l-2.1,1.8l1.1,1.1h3.8l1.1-1l1.3,0.8l0.8-0.2l0.2-0.5l0.4,1.8l3.1,0.6l0,0l-0.8,4.4l-1.1,0.8l-0.6,1.9
		l-0.7-0.5l-0.9,0.9l-0.9,0.1v1.1l1.1,0.1l0.9,2.4l-1.9,0.4l-0.3,0.7l-2.3-0.2l-1.1-0.8l-0.9,0.6l0.5,1.5l-0.9,0.8l0.6,0.1v3
		l-1.8,1.5l-0.2,1.6l-2.4,1.7l-0.8,1.5l-1.1,0.5l-1.1-0.2l-0.1,1l-0.8-0.1l-0.6,0.6l0,0l-0.8-0.4l0.1-1.2l-1.6-1l-3.9,0.4l-0.6-0.9
		l-1.5,0.2l-0.1-0.8l-1-0.5l-0.4-2.3l-0.8,0.5l-0.3-0.5l-1,0.3l-0.1-1.1l-0.5-0.3l-1.8,1.4l0.8,0.7l-0.3,1l-1.5,0.4l-2,1.6l-1-0.4
		l-0.5,0.5l-0.9-1l0.4-0.6l-0.3-0.3l2-1.7l1.1-2l-2.9-1.8l-1,0.3l-0.7,2.3h-0.9l-2.6,1.7l-0.7-0.7l-0.9,0.1l0,0l-0.8-2l-0.1-3.5
		l-1.1-1.3l-1-0.2l-0.3-1l0.8-0.6l-0.6-0.4l0.2-1l-2-2.4l0.3-1l1.1-0.3v-1.3l2.6-1.4l-0.4-0.8l-1.3-0.4l-0.8-1.5l-1.3,0.5l-1.5-1.4
		l-1,0.9l-0.6-1.6l-0.8-0.2l-1.2-2l0,0l0.1-1.4l1.4-1.6l0.1-0.9l2.3-1.6l1.7,0.3l1.2-0.5l0.3-5.5l-0.7-4.8l-0.5-0.3l1-0.9l-1.8,1.5
		l-0.2-0.6l-0.2,0.4l-0.8-0.3l-0.4,1.3l-1.4,0.1l-1.8-2.5l-1.3,0.3v-0.5h-1.3v-4l-4-1.9l0.6-0.6l-0.3-1.6l0.4-0.5l1.2,1.1h1.4
		l1.8-0.7l0.9-2.9l-0.6-0.8l0.4-1.9h0.7l0.2-0.8l2.8-0.4l-0.9-2.9l0.6-0.1l0.2-1.3l-1.1-0.2l0.7-2.3l0.6-0.5l2-0.1l0.6,1l0.4-0.4
		l1,0.5l0.2,1.5l0.9,0.7l0.2,1.2l1.1,1.1l3.5-1.5l0.1-0.7l1.5-0.8l1,0.3l0.1-1.3l-1.5-2.2l0.6-2.5l-2.7,0.1v-0.7l-1.9-1l-0.7-1.2
		l0.4-1.8l0,0l0.6,0.4L271,769.8z"/>
	<path id="CN-11" class="st0" d="M276.5,691.3l-1.3-0.1l0.1,0.5l-1.8-0.5l-2.2,1.7l0.6,1.2l-1.4-0.2l-2-2.1l-2.5-0.2l-0.3,0.4
		l-0.5-0.5l-1.5,1.4H263l-0.9-1.4h-1.5l-1.1-0.9l0.1-1.4l-0.8-0.6l1.8-0.7l-0.6-0.5v-1.1l-1.2-0.7l0.3-1.2l2.1-1.5l1.8-0.3l0.4-0.7
		l0.8,0.6l0.5-1.3l1-0.7l-0.6-1.5l-1.8-1.5l0.1-0.8l-0.5-0.2l0.3-0.6l1.9-1.3l0.9,0.6l1.5-0.6l1.7-2.9l0.7,0.5l1.5-0.5l0.6,0.3
		l-1.5-2.7l1.7,0.6l-0.3-1.4h1.8l0.6-1.4l0.6,0.4l-0.2,0.9l0.6,1.3l1.6,1.1l1.9,2.3l1.9-0.1l2.1,0.8l2.4-0.2v0.5l-0.9,0.1l0.2,0.9
		h-1.8l-1.3,1.3l0.3,2l2,2.4l0,0v0.9l-2.3,1.5l0,0l-2.5,0.9h-2.8v2.1l1.7,0.9l0.4,1.1l-0.7,1.4l0,0L276.5,691.3z"/>
	<path id="CN-50" class="st0" d="M171.8,806.4l1.9,1.5h1l1.8,1.7l1.9,0.4l2,2.1l1,0.3l0.2,1.3l3.7-0.2l0,0l1.9,0.5l-0.1,2.1l1.1-0.2
		l2,0.8l-0.4,0.5l2.5,1.3l0.7,3.6l-0.9,0.8l0.6,1.6l-1.1,2.7l-0.7-0.5l-0.2-1l-2.9,0.7l-2.5,2.9l-0.5-0.3l-1,0.8l-1.4,1.9l-0.5-2
		l-2.1,1.5l-0.6-0.5l0.4-1.2l-1-0.1l-2.7,2.3h-1.1l-0.5-1.3l-0.7,0.1l0.2,0.6l-0.9,1l-1.9-0.2l-0.3,1.4l2.2,2.1l-0.9,2.8l0.4,0.9
		l-0.2,1.8l-1.1-0.2l-0.7,1h0.5l0.2,1.1l0.9,0.3l1.1-2.1l0.8,0.1l0.3,2.3l1,0.7l0.4-0.4v0.6l0.7-0.2l0.2,0.8h0.4l-0.5,1.8l0.9,0.8
		l-0.3,1.4l2-1l0.8,1.9l-0.3,0.9l1.5,1.2l0,0l1.1,1.1l-1.1,2.4l0.1,1.4l0.8,0.7l-1.5,1.6l1.7,0.4l-0.6,1.3l0,0l-1.5,1.3l-0.8,3.1
		l-0.8-0.3l-0.4,0.7l-2.3-1.2l-0.6,0.6l-0.4-1l0.6-0.7v-1.7l-0.7-0.9l-0.9,0.5l0.6,0.9l-0.2,0.9l-1.2-0.3l0.4-0.9l-0.4-1.6l0.5-0.1
		l0.3-1.4l-0.8-0.3l-1.3,0.5l-1.7-0.7l0.6-1.6l-1-4.2l-0.9,0.8l-0.5-0.6l-1.6-0.2l-0.7,0.9l-0.8-0.1l-1.3,1l-1.1-3.2l-0.9,0.6
		l-1.2-0.4l-0.3-0.7l-1,0.6l-0.4-0.4l-0.5,0.3l0.2,1l-0.6,0.2l-0.1,1.3l0.9,0.9l-1.4,1.9l-1.1,0.6l-1.4-1.7h-1.4l-0.3,1.5l-1.1-0.5
		l-0.8,0.6l-0.2,0.5l0.8,0.8l-0.8,1.3l-0.6-0.5l-0.6,2.4l-1.6-0.8l-0.4,0.3l1.1-2.5l-1-0.4l0.2-0.4l-1.5-1.7l-0.2,0.8l0.9,1.6
		l-0.7,1.3l0.4,0.6l-1.2-0.5l-0.3,0.6l0,0l-0.6-0.4l0.1-1.2l-1.5-3.7l-2.1-0.2v-0.6l-0.8-0.4l-1,1.1l-1.3-0.5l-1-2.3l-0.3-2.7
		l-0.5,0.5l-2.5-0.5l-0.5-0.8l0.2-0.9l-0.6-0.6l-0.8,0.1l-0.1-2.3l0.3,0.2l0.9-1.3l0.7,0.1l0.1-0.6l1.1-0.2l0.6-1.5l1.5-0.3l0.2-2.5
		l-2.6-2.1l1.5-0.5l-0.4-1l1.4,0.3l0.2-1.5l1.1-1.1l0.2,0.6l0.6-0.2l3.2,1.3l1.2,1.9l0.8-0.7l1.6-0.2l0.2-0.7l1.5-0.1l1,0.5
		l-0.3,0.7l1.7,2.8l2.2-0.1l0.6-0.7l0.6,0.7l0.7-0.3l2-2.4l3.5-6l-1.1-1.5l1.1-1.4l0.9-0.2l0.7,0.6l1-1.1l0.6,1l1.4,0.1l1.4-1.4
		l-0.6-0.3l0.1-0.8l1.4-1l-0.6-0.9l1-1.5l-0.8-0.2v-0.4l2-1.2l-0.3-0.6l0.9-1.3l-0.4-0.5l1.7-0.2l1.3-1.8l0.6,0.1l0.7-0.8l-0.1-1.3
		l-2.3-1.5l-1.1-1.6l1.3-0.3l-0.2-1.3l1.3,0.1l-0.9-1.8L171.8,806.4z"/>
	<path id="CN-35" class="st0" d="M284,926.5l0.5,0.7l1-0.2l0.1,0.5l-0.4-0.1v0.9h-0.8l0.2,1l-1.5,0.1l1.3-1.4l-1-0.2L284,926.5z
		 M310.2,906.1l1.3,0.7l-0.3,0.6l-1.4-0.5L310.2,906.1z M314.1,900.5v0.8l1.3,0.6l-1,0.4v0.6l0.7,0.4l-1.3,0.4l-0.1,0.6l-1-1.1
		l0.9-0.5l-0.1-1.2l-0.3,0.3l-0.2-0.4L314.1,900.5z M293.7,914.1l-0.8,1.4l1.1,0.8l-0.3,1l-1.1,0.3l-0.2-1.9l-0.5,0.4l0.5,0.5
		l-0.8,0.3l0.4,0.5l-1.6-0.5l-0.3,0.7l0.2,0.5l2-0.2l-0.5,0.8l0.9-0.1l0.5,1l-1.5,1.1l-0.3-0.3l-0.2,0.6l-0.5-0.6l-0.5,0.5l0.4,0.3
		l-0.5,1.8l-0.9,0.3l-1.1,1.5l0.8-1.9l-1.4,0.4l0.2,0.9l-0.9,0.8l0.1,1.4l-0.7,1l0.2-2.5l-2.1-0.8l-0.3,0.5l0.8,0.2l0.2,1.1l-0.7,1
		l-0.5-0.5l-1.7,0.9l0.2,1.3l-1.2,0.2l0,0l-1.8-1.2l-1-2.7l0.1-1.3l-0.7-1.2l0.9-1.3l-0.7-0.6l-1.1-3.5l-1.2-1l0.5-1.8l-3.5,1
		l-0.4-1.4l-1.2-1.3l0.5-0.5l-0.3-0.5l-1.9,1.1l-0.6-1l-1.6,0.2l-0.6-0.7l-1.8-0.5l0,0l0.3-0.7l-0.4-0.5l0.7-0.5l-1-2.2l2-1.6
		l-0.2-1.9l0.8-1.5V900l1.6-1.2l-0.6-1.2l3-1.5l0.3-1l1.2-1l-0.3-0.9l-0.9-0.1v-1.2l1.5-1.9l1,0.4l0.5-1.3l-1.2-1.4l0.4-1.1
		l-0.7-0.9l0.6-0.8l-0.1-1l1.8-2.1l3.1-0.5l1.3-1.1l0.2-1l1.3-1.4l-0.8-0.8l0.1-2.3l-0.4-1H279v-1.2l0.5-0.3l0.5,0.6l0.1-0.8h1.2
		l1.2-1.3l-0.2-1.4l0.5-0.4l0.2,0.6l2.3-1.9l1,1.7l1.6,1l1.6-2l2.2-0.6l0.8,0.4l0.4-1.3l2.8-0.6l0.3-1.3l-0.7-0.5l1.4-0.9l0,0
		l0.8,0.7l0.1-0.6l1-0.1l0.4,0.5l1.3-0.8l1.2,0.9L301,865l0.4,0.8l-1,1l0.1,1.1l1.1,1l1,2.8l-0.2,2.8l0,0l0.3,0.7h0.7l0,0l0.6-0.5
		l1.4,0.2l0.1,0.7l1.4,0.2l1.7-1.6l1,0.3l0.5-2l0.6,0.2l0.2-0.5l1,0.1l-0.1,1.1l1,1.2l0,0l-0.2,1.1l1.2,1.4l0,0l-0.2,0.3l2.2-0.1
		l0.8-0.9l0.4,0.5l1.3-1.1l1.4-0.2l0.4,0.5l0,0l0.8-0.1l0.2,0.8l0,0l0.9,1.2l-0.3,0.2l0,0l0.2,1.2l-0.6-1.2l-0.9,0.1l0.1-0.8
		l-0.8-0.1l0.1,0.6l-0.6-0.2l-0.1,1l0.4-0.7l2,0.4l0.7,1.2l-0.7,0.6l-1.4-0.3l0.1,1.6L319,882l0.7,0.1v0.7l-1.4-0.3l-0.3,0.8
		l-0.6-0.3l-0.1,1l1.2,0.4L318,885l0.8,0.4l-0.7,0.5l0.4,0.6l-0.5,0.4l-0.2-0.4l-1.6,0.5l-0.9,1.3l-0.7-0.2l0.2-0.8l1.4-0.6l1.5-2.2
		l-1.9,0.2l-0.7,1.8l-0.4-0.9h-0.6l0.7-1.4l-0.6,0.3l-0.2-0.6l-0.6,1.8l-1.4-0.8l0.1-0.6l-0.5,0.3l1,0.8l-0.6,1.2l-0.6,0.1l0.4,0.5
		l1.7-0.2l0.6,0.4l-0.2,0.5l0.8,1.4l-0.7,0.4l-1.6-1l-0.7,0.8l1,0.2l0.3,1.1l1.9-1.2l0.3,1.1l1.2-0.4l-0.9,0.8l-1.2,0.1l0.1,0.5h-2
		l0.2,0.9l-1.9,2l2.6,0.9l-0.4,1.2l-0.8,0.2l-0.4,2.9l-1.6,0.7l0.4,1l1-0.3l0.3,0.4l-0.4,0.7l1,1.2v1l-0.8,0.2l-0.2-1.6l-0.7,0.7
		l0.6,0.1l-0.8,0.3l-0.9-1.3l0.2-0.4l-1.4-0.6v1.5l-0.6,0.3l-0.5-1.1l-1.4,1.4l0.8,0.4l0.1,1.2l0.4-0.8l1.4,0.9l-0.9,0.3l-0.1,0.8
		l-1.4,0.1l-0.7-0.6l-0.4,0.5l0.8,0.7l-0.8,0.3l-0.9-0.4l0.6-1.4l-1.2,0.1l0.2-0.6l0.8-0.1l-2,0.2l0.3,0.9h0.8l-0.5,0.8l0.4,0.3
		l-1.2-0.1L302,908l1.4,1.1l0.7-0.8l-0.4,1l0.7,0.2l-1.6,0.1v0.6l0.9,0.5l-1.4-0.3l-1.7,0.6l-0.7-0.6l-0.6,0.5l0.2,0.8l0.8-0.2
		l0.1,0.5h0.7l-0.8,1.3h-0.8l0.4,1l-1,1.1l-0.4-0.9l-1.5-0.8l-0.1-0.8l-0.2,1.4H295l-0.8,0.9l-0.5-0.4l0.3-1.2L293.7,914.1z"/>
	<path id="CN-44" class="st0" d="M226.8,953.9l-0.9,1.1l0.1,1.4l-0.5,0.3l-0.5-0.6l0.7-0.8l-1-0.3L226.8,953.9z M232.1,952.3
		l-0.2-0.7l-0.5,0.1v0.7L232.1,952.3z M198.4,961.6l-1.2,0.2l0.1,1.4L198.4,961.6z M198.2,966.2l0.4-0.9l-0.5-0.3l-0.5,1.2H198.2z
		 M224.1,955.8l-0.1-1.1l-0.8,0.3l-0.8,1.4L224.1,955.8z M279.8,928.4l0.2,1.4l1.3-1l0,0l-1.8-1.2l-1-2.7l0.1-1.3l-0.7-1.2l0.9-1.3
		l-0.7-0.6L277,917l-1.2-1l0.5-1.8l-3.5,1l-0.4-1.4l-1.4-1.3l0.5-0.5l-0.3-0.5l-1.9,1.1l-0.6-1l-1.6,0.2l-0.6-0.7l-1.8-0.5l0,0
		l0.2,0.8l-1.1-0.3l-0.8,2.2l1,2.5l-1.5,0.3l-0.5-0.8l-1.3-0.3l-1.2-1.9l-0.8-0.3l-3.8,1.6l-0.6-0.6l-2,0.6l-0.5,1.4l-1.6-0.7
		l-0.5,1.2l-0.6-0.7l-2.9,1.3l-0.9-1.4l-0.6,0.2l-0.4-0.8l-1.3-0.6l2-1l0.9-1.8l-0.1-1l1.8-1l0.4-0.9l1.1,0.1l1-0.6l-0.6-0.7
		l0.7-1.5l-2.6-1.9l-1.9,1.4l-3.3,0.1l-1.1,0.8l0.1-1.5l-1-1.3l0,0l-1,0.3l-0.8,1.5h-0.7l-0.2-0.5l-2.2,0.7l-0.5-0.7l-2.1-0.5
		l-0.8-0.6l-0.1-1l-1.7,0.5l-0.4,1l-1.4,0.9l-1.1,0.6l-0.9-0.4l0.1,1.2l1.4-0.1l0.7,0.8l-0.9,0.5l0.6,1l-0.4,0.8l0.4,1.3l-1.8,0.5
		h-1l-1.5-3.2l-1.5,0.1l-1.2-0.8l-0.6,0.5l-0.4-0.7l-1.4,0.3l-0.6-0.6l-1.2,3l0.7,1l-0.2,1l-1.7,1.4l0,0l-0.8,0.3l-0.4,1.2l1,1.1
		l-0.2,1.1l0.9,1.5l-1,1.3l-1.4,0.7l0.7,3.4l-1,0.2l-0.6,1.9l-2-0.1l-0.4,1.2l0.6,0.2l-0.6,1l-1.6,0.2l-0.1,1.2l-1,1l-0.6,2.5
		l0.5,1.6l-0.2,1l0.7,0.8l-0.9,1v1l-1.8,1.9l-2,0.3l0.4,0.5l-0.4,0.6l-3.2,1.3l-0.4-0.3l-0.3,1.6h-0.7l0.3,1.4l0.9,1.1l-1.1,0.1
		l-0.7,1.7l-0.9-0.6l-0.8,0.6l-1.1-0.8l-0.5,0.5l-0.5-0.3l0.5,4.1l-1-0.4l-0.7,0.5h-3.3l-1,3l-1.3,0.2l-0.4-0.5l-0.2,1.4l0,0
		l0.7,1.5l1.8,0.3l-0.4,1.1l-2,0.2l0.1,1.7l-1.2,1.3l0.5,0.8l-0.6,2.2l1.3,2.6l-0.4,1l1.1,0.7v1l2.4,0.8l-0.5,0.8l-0.9-0.7l-0.6,0.4
		l0.9,0.9l-0.1,1.6l0.9-1l1.8,0.7l2.2-0.2l1.7-0.9l1.2-2l-0.9-2.7l-1.6-0.3l-0.1-0.6l0.7,0.4v-1.5l-2.4-0.5l-0.4-1.7l1.6-1.5l-1.1,2
		l3.3-0.7l0.8,0.9l0.3-1.9l-2.8-0.1l1.1-1.6l2.7-0.5l1.8-2.3l1.5,0.2l2.5-1.1l-0.9-0.1l0.2-0.7l0.9,0.9l2.4-0.4l-0.4,1l2.4-2
		l0.3,0.8l2.2-0.2l1.7-1.9l0.1-0.7l-1.1-0.8l1.2-0.1l0.8,1.5l0.7-0.3l-0.2,0.6l-0.7-0.1l-0.3,1.2h0.6l2-1l-1.1-0.2v-0.9l2.4-1.1
		l1,0.1l0.8,1.3l1.8-0.5l0.2-1.2l2.4,0.8l2.3-2.5l1,0.3l0.7,1l1.3-1.3l-0.3-2l1-0.9v-0.8l0.2,2.1l1,1.6l1-1.4l1.3,0.9l0.6-1.1
		l-0.5-0.3l0.3-1.4l1.3,1.6l0.6-0.5l-0.4-0.8l0.9-1l-0.2-0.8l0.7-1l-1-0.2v-0.5l1.4-2.4l-1.2-1.8l0.7-0.3l-0.1-0.6l0.7,0.8l1.1,0.1
		l1.2,2.4l0.7,0.4l-0.5,0.5l0.3,0.6l0.6-0.9l1.3,0.2l0,0l1.5-0.8l0.8,0.2l0,0l2.1-0.9l1.1,1.1l0.2,1.2l1.4-0.6l-0.8-1l-0.6,0.2
		l1.2-1.4l-1.2,0.1l0.3-0.8l0.7,0.3l-0.1-0.8l2.5-0.6l0.2-0.7l0.5,0.6l-1,0.6v1.8l1.8,0.2v0.7l1.1-1.9l-1-0.3l-0.3-0.8h1l0.5,1.1
		l0.6-0.2l0.3-1.1l1.2-0.3l0.4,0.5l0.4-0.8l0.5,0.1l-0.3,0.6l2.4-0.1l-0.3,0.5l-0.8,0v0.6l2.7,0.9l0.4-1.4h-0.6l-0.1,0.6l-0.4-0.6
		l1.5-1.6l1.5,0.3l0.7,1.4l2.2-1.3h1.8l1.9-1.6l2.7,0.3l0.8-1.2V935h1.2l0.8-1.1l1,0.4l-0.5-1.8l1.3-1.2l0.3-1.7l1,0.1l-0.5-0.7
		L279.8,928.4z M278.7,930.9l-0.5,0.5l2.3,0.5l0.3-0.8l-0.3-0.5l-1.4,0.6L278.7,930.9z"/>
	<path id="CN-62" class="st0" d="M28.6,638.4l8.3,18.9l-2.9,3.4l4.6,6.1l0.4-0.2l4.4,3.7l0.2,0.8l-1.4,5.2l5-0.3l2.8-3.5l3.9-1.9
		l4.9,0.3l1.4-1.4l5.3,0.8l1.7,2.7l0.2,2l-2.8,3.4l-1.4,3.1l-3.6,2.4l-2.1,3.1l3.9-0.2l3.1,2.4l3,0.9l0.9,2.8l2.3,0.6v1.3h4.4
		l0.1,6.3l1.1-0.6l1,1.4l2.6-1.1l-0.6,1.1l0.9,1.3l1.1,0.4l-0.1,1.1l2.6,0.9l1.1,1l0.8-0.5l1.3,0.4l1-0.2l0.1-0.7l2.7-2.8l-3.4-3.3
		l4.9-1.1l3.2-1.4l1.9,1.2l5,1.3l4.5-4l6-1.8l1.3-0.1l1.9,0.8l-0.5,2l1.9,3.3l-0.4,2.5l-1.8,0.8l-2,4l-5.9,3.8l0.9,1.3l0.8,2.8
		l-2.3,1l0.6,3.9l3.3,1l6.4,6l1.3-0.3l0,0l5.8,0.1l-0.8,0.9l0.5,0.4l-1.5,1l0.4,0.8l1,0.4l1-0.8l0.8,0.5l1.6,2.7l2.5,0.9l0.2,1.6
		l1.1,0.3l0.7,1.2l-1.6,1.2l0.8,2.2l-0.2,0.5l1.3,0.5l0.7,2.3l0.9,1.1l0.4,2.3l-0.2,0.7H133l-1.2,1.3l0.1,1.9l0.8,0.5l-0.3,0.8
		l0.6-0.2l0.4,1l1.3,0.4l0.2,0.6l1-0.9l1.3,0.1l-0.7,0.7l1.6,1.8l0.3,1.2l0.6-0.9l2.5,0.8l-0.5,0.7l0.1-0.5l-1.9,0.4v0.8l2.2-0.7
		l-0.3,0.5l0.7,1.1l0.8-1.2l0.8,0.4l0.2,1.1l1.4,1.6l1.7-1.9l-0.8-5.2l1.3-0.8l2.5,1l0.2-0.7l0.8,0.2l1.4-1.4l-1-1.3l1.1-0.7
		l-0.5-0.3l0.7-0.6v-2.2l-0.4,0.2l-1.1-1.7l-0.8,0.2l-2.4-1.2l-0.2,0.6l-0.7-0.2l0.3-3.2l-2-1.4l1.2,0.1l-0.2-0.9l1-1.7l0.8-0.3
		l0.8,0.5v-2.6l-0.6-0.1l-0.7-1.3l0.5,0.6l0.7-0.3l-0.4-2.7l1.8,0.7l0.4-1l1.4,0.8l0.1-0.7l1.5,0.6l1.9-0.6l1.4,1.1l0,0l0.4,2.6
		l2.2,0.2l0.7,1.2l1.8-0.1l2.8,1.1l0.6,1.6l0.8-0.4l-0.2,0.7l0.6,0.6l1.4,0.6l0.8-1.1v1l1.7,0.2l1.1,1.9l1-0.6l2.5,1.7l-0.8,1.7
		l0.8,1.9l-0.3,1.8l-0.5,1.1h-0.9l-1,1l0.3,3.7l1.2,1.4l-0.2,3.2l-1.5,0.9l-1.8-0.4l-1.3,0.7l-0.8-0.7l-2.7,1l-2.9-1l-0.2,0.8
		l-0.8,0.1l2.6,3.8l-0.7,0.6l-2.1,0.4l-0.9-0.7l-0.5,0.9l-3-0.4l-1.2,0.8l-0.4-0.8l-1-0.5l-0.1-0.8l-2.1-1.1l-4.7,0.1l-0.8,1.3
		l1,2.9l-0.2,1l-1.3,0.9l0.2,0.9l-1.9,0.9l0.4,0.9l1.6-0.1l1.3,0.6l0.9,1.5l0.9,0.3l-0.6,1.9l-1.9-0.7l-0.4,0.6l0.7,0.2l0.5,1.6
		l-1.1,0.5l-1,3.2l0.9,0.7l-0.4,0.8l0.3,1.3l0.7,0.2l0.6,1.6l-0.8,1.2l-0.9-0.5l-0.3-1.3l-1.8,0.3l-1.3,0.8l-1-0.3l-0.1-0.6h-1.8
		l-1.5,1.7l-0.2,1.7h-1.5l1.1,1.8l2.1,0.8v0.9l-0.4-0.7l-0.5,0.7l0.4,0.1l-0.2,2.2l-0.7,0.8l-2.8,0.9l-1.8-0.4l0,0l-0.8-0.3
		l-0.7,0.8l1,2l-4.3,2.2l-0.9-0.8l-2,0.7l-0.7-1l-1.2,0.4l-0.5-0.5l-0.8,0.2l-0.8-1l-3.4-1.5l-0.2-1.6h1l0.8-1.1l-1.1-0.4l0.5-1
		l-0.9-2.9l1.2,0.3l0.4-0.5l-1.7-0.2l-1-1l-0.8-2.1l0.2-1l-1.6-1.2l-3.5,0.4l-2.3-0.8l-1.1,0.5v-2l-0.9,0.9l-1,0.1l-2.5-1l0.4-1.4
		l-0.8-0.9l0.5-0.6l-0.4-0.8l0.6-0.5l-0.8-1.3l-1.6-0.3l-0.4-1.5L101,775l-0.6,0.6l-1.4,0.1l-0.5,1l-1.1,0.6l0.6,1.2l-2.9-0.1
		l-0.5,1.8l-1.5-0.3l-1.1,0.6l0.9,1.5l-0.2,0.9l1,0.4l-0.3,0.7l0.6-0.3v1.7l1.4,0.6l0.4,1.7l-1.5,1.1l-1.2-0.4l-1,1.3l0.5,0.4
		l-0.2,1.3l-1.2-0.7l-0.5,1.1l-1.1-0.1l-1.4,1.4l-0.6-0.2l0.2-1.2l-0.8-0.8l1.3-0.9l0.9-2l-1.3-2.5l-0.5-0.1l-0.3,1.1l0,0l-0.5,0.7
		h-1.3l-0.5-2.6l-1.1-0.5l-0.9,0.1l-0.4,0.7l-2-0.5l-0.9,0.4l0.3-2l-0.5-0.8l-2.1-0.9l-2.8-4.2l0.7-2.1l1-0.9l1.1,0.1l0.9,0.8
		l2.6,0.4l0.8,0.8l3.8,1l0.4,1l1.1,0.7l1.4-1.1l1.2,0.7l1.5-2.7l1,0.3l0.5-1.4h0.9l-1.2-2.3l-2.8-1.3l-0.2-1.3l-1.1,0.7l-1.4-1.2
		l1.6-1.1l0.9,0.5v-2.1l2.7-2.1l1.9-0.6l0.7-1.6l0.7-0.2l-0.6-1.7l-1.5-0.7l0.4-0.5l-0.2-1.4h1.7l1.4-2.1l2.3,0.6l0.5-1.4l-0.9-2.8
		l1.2-0.9l2.1,0.4l0.2-3.2l-1.1-0.7l1.4-1.7l0.9-0.2l-2.9-2.1l-1.4-4.3l-1.1-0.5l-0.5-0.9l1.6-1l-3.4-3.3l0.4-1.8l1.3-1.2l-2-1.9
		l-0.9,0.1l-0.2-0.8l-1.8-1.5l-2.5-0.8l0.8-1.6l-1-0.6L89,721l-1.4,1.5l-0.4,2.5l-1-0.2l-0.5-1l-6.6-4.2l-1.3-1.5l-5.9-2.5l-0.5-2.3
		l-3.3-1.2l-1.4-2.2l-1.3-0.6l-0.4,1.3l1,1.3l0.2,1.8l-6.3-3.5l-1.9-1.8l-0.3-1.1l-0.8,0.1l-1.1-1.8l-3.7-2.9l0.5-0.9l-1.1-0.5
		l-0.3,0.4l-2.2-2h-0.7L46,702l-1.6-0.3l-0.9-1.2l-1.2-0.1l-0.2,1.3l-2.1,2.8l-0.9-1l-4-1.7l-0.3-0.8l-4.2-2.5l-4-0.6l-1,1.6
		l0.7,0.8l-0.5,2.8l0.4,0.5l-0.1,2.4l-0.6,0.4v0.9l0.7,0.5l-0.4,4l-5.3-1.7l-0.2-1.4l-2.6-1.6l-1.2,0.3l-1.1-0.9l-0.6,0.4l-0.6-1.5
		l-1.8-0.4l-1.6-1.7l-0.1,0.4l-0.9-0.4l-1.5-2.1l-1.9-0.9l-1.6-2.1l-1.7,0.4l-3-1.1h-2.4l-1.3-1.1H-8l-0.3-0.5l-3.2,1.2l-1.6,0.1
		l-0.5-0.4l-1.7,0.5l-2.7-0.8l-0.7,1.1l-5,1.2l-1.1-0.3l0,0l-0.1-4.6l-0.9-1.5l-1.4-5.4l1.9-3.7l-0.1-6.5l5.6,0.4l3.6-2.3l2.1-4.4
		l2.5-3.5l8.6-8.9l5.1-2.6l5.8-1.3l1.9,0.5l2.2-0.3l1.6-0.9l0.8-2l-0.4-1.7l0.9-8.3l3.4-2l0,0l3.9-0.4l3.3,0.5L28.6,638.4z"/>
	<path id="CN-45" class="st0" d="M184,895.4l0.6,0.5l1.4-0.7l1,0.9l-0.8,1.5l1.6,0.2l0.5-0.7l-0.4-1.4l1-0.2l1.2-2.3l0.8,0.5
		l0.7-0.2l-0.2,1.8l1.1,0.4l0.5-0.7l0.7,1.5l0.9-0.2l0.6-1.7l1.6-1.2l1.3-2.2l1.2,0.6l0.4-0.3l0.2,0.9l2-0.1l0.6-1.8l0.3,0.9
		l3.4,0.8v1.9l-0.8,1.8l0.2,1.5l0.8,0.6l0.6-0.7l2,0.5l-0.9,0.4l0.2,0.9l-1.7,0.8l0.4,1.5l-0.5,2.2l-2.5,2.2l0.1,1l-1.1,0.7
		l-0.5,2.2l0.5,1.1l0.6-0.1l0.6-0.2v-1.2l2.1-1.6l1,0.7l0.6-0.5l0.5,0.4l-0.2,0.8l0.6,0.3l-0.5,0.6l0.6,2.4l-0.5,1.8l1.6,0.4l1.8-2
		l4,0.6l0,0l-0.8,0.3l-0.4,1.2l1,1.1l-0.2,1.1l0.9,1.5l-1,1.3l-1.4,0.7l0.7,3.4l-1,0.2l-0.6,1.9l-2-0.1l-0.4,1.2l0.6,0.2l-0.6,1
		l-1.6,0.2l-0.1,1.2l-1,1l-0.6,2.5l0.5,1.6l-0.2,1l0.7,0.8l-0.9,1v1l-1.8,1.9l-2,0.3l0.4,0.5l-0.4,0.6l-3.2,1.3l-0.4-0.3l-0.3,1.6
		H199l0.3,1.4l0.9,1.1l-1.1,0.1l-0.7,1.7l-0.9-0.6l-0.8,0.6l-1.1-0.8l-0.5,0.5l-0.5-0.3l0.5,4.1l-1-0.4l-0.7,0.5h-3.3l-1,3l-1.3,0.2
		l-0.4-0.5l-0.2,1.4l0,0v1.5l-1.3-0.8l0.2-1.1l-0.4,0.5l-0.3-0.2l-0.4-2.2l-0.4,0.1l0.4,2.1l-0.4,0.9l-3.6,1.1l-0.2-0.6l-0.2,0.8
		l-0.9,0.1l-1.5-0.6l1.5-0.9l-0.3-0.8l-1.1-0.5l-1.8,0.1l-0.8-1l0.2-1.3l-0.4,1.2l0.4,0.9l-1.6,0.3l-1.3-2.1l-0.5,0.6L172,954
		l0.1-1.5l-0.4-0.4l-0.8,0.8l1.2,2.2l-1.1,1.4l-1.1,0.1l0.2-1.5l-0.7,0.9l0.1-0.7h-0.6v1.1l-1.3,1.1l0.4-1.6l-1.2,0.7l0.5,0.5
		l-0.8,0.2l-0.4-0.5l-1.7,0.2l-1.2-1.6l-4.2,0.9l-0.8-1l-1.3,0.9l-0.8-1.9l-0.9,0.5l-2.6-1.5l0.4-1.5l-1.2,0.2l-2.4-1.3l-1.1,0.4
		l0.1-4l-0.5-0.9l-1.2-0.1l0.4-0.4l-0.4-0.9l0.6-2.1l1.6,0.1l0.4-2l0.9-0.9l-3.9-2l-0.3,0.6l-1.9,0.7l-0.9-0.2l-1-1.6h-2.5l-0.1,0.7
		l-1.6,0.2l-1.7-1.9l-2-0.1l0.2-1l-0.7-0.6l0,0l-0.2-0.7l0.8-0.9l0.8-0.5l0.5,0.3l-0.5-1l2-0.9l0.2-0.7l2,0.4l0.2,0.6l1.8-1.7
		l-0.1-3.1l0.8-1l-1.3-2.2l-1.2-1.4l-1,0.1l-0.2,1l-0.7,0.3l-0.7-0.8l-1.4,0.4l-0.7-1.3l-0.9,0.1l-0.6,1.5l-2.1-1.3l-0.8,0.7l-1-1
		l0.7-0.7l-0.7-1.3l0.2-0.7l-1.9-1.4l-1.3,0.5l-2.9-0.5l-0.3,1.7l-1.1-0.8l-1.3-2.7l-0.3-1.1l0.6-1.1l0,0l2.5,1.5l1.4-0.8l0.4-0.9
		l2-0.7l0.5-1.7l1.7-1.1l0.8,0.9h1.9l1,1.8h1.1l2.7,1.4l1.5-0.3l1.1,1.2l1.9-1.8l0.3-1.4l-0.6-1.3l3.7-0.9l1.8-0.9l0.9-1.1l3-0.2
		l0.4-0.9l0.8,0.1l0.3-1.5l-0.6-1.2l1.4-1.1L153,902l2.1-0.6v0.7l1.4,1l-0.4,0.8l1.4,0.5l0.1,1.5l0.6-0.2l-0.1,1.2l2.4-1.4l0.4,1.6
		l0.7-0.6l0.3,1.7h0.9l1.9-1h1.3l0.4-2.5l0.6-0.4l-0.5-0.5l1.1,0.2l1-1.5l1.2,1.3l1-0.1l1.4,1.8v-2l1.1-0.8l-0.2-0.7l0.6-0.7
		l0.9-0.1l0.3,1.4l1.6-0.4l1.3,0.5l0.4-0.4l-0.5-1.4l0.5-1.2l-0.9,0.1l-0.8,0.8l-0.6-0.5l0.9-0.3l0.3-0.7l1.5-0.3l0.3,0.8l0.6-0.2
		l-0.1-0.6l0.9,1.1l1.2-0.2v-1.3L184,895.4z"/>
	<path id="CN-52" class="st0" d="M184.9,885.7L184.9,885.7L184.9,885.7l0.4-0.6v0.5l0,0L184.9,885.7z M144.7,860.1l0.3-0.6l1.2,0.5
		l-0.4-0.6l0.7-1.3l-0.9-1.6l0.2-0.8l1.5,1.7l-0.2,0.4l1,0.4l-1.1,2.5l0.4-0.3l1.6,0.8l0.6-2.4l0.6,0.5l0.8-1.3l-0.8-0.8l0.2-0.5
		l0.8-0.6l1.1,0.5l0.3-1.5h1.4l1.4,1.7l1.1-0.6l1.4-1.9l-0.9-0.9l0.1-1.3l0.6-0.2l-0.2-1l0.5-0.3l0.4,0.4l1-0.6l0.3,0.7l1.2,0.4
		l1-0.6l1.1,3.2l1.3-1l0.8,0.1l0.7-0.9l1.6,0.2l0.5,0.6l0.9-0.8l1,4.2l-0.6,1.6l1.7,0.7l1.3-0.5l0.8,0.3l-0.3,1.4l-0.5,0.1l0.4,1.6
		l-0.4,0.9l1.2,0.3l0.2-0.9l-0.6-0.9l0.9-0.5l0.8,0.9v1.7l-0.6,0.7l0.5,1l0.6-0.6l2.3,1.2l0.4-0.7l0.8,0.3l0.8-3.1l1.5-1.3l0,0v2.6
		l0.3,0.6l1.1,0.1l-1,3l1,0.4l-0.9,1.1l0.5,1.7l-0.4,0.7l1.5,0.6l0.3,2.3l-1.9,1.4l-0.1,0.8l-1.2-0.4l-0.6,0.5l-0.2-0.4L179,877
		l-0.8,0.4l0.2,0.5l-2,1.1l-0.3,1.5l-1.2,0.4l1.1,1.2l3-1.8l-0.2,0.7h0.8l1-1.1l2.8,0.3l-0.2,1l0.7-0.1l0.5,1.8l-1.5,1l1,0.1v1.6
		l-3,0.9l0.9,0.6l0.7,1.7l-1.7,2.9l0.8,1l1.8-0.6l-0.5,0.8l0.9,1.6l-0.5,0.6l0.2,0.7l0,0l-1.9,2.8v1.3l-1.2,0.2l-0.4-1.5l0.1,0.6
		l-0.6,0.2l-0.3-0.8l-1.5,0.3l-0.3,0.7l-0.9,0.3l0.6,0.5l0.8-0.8l0.9-0.1l-0.5,1.2l0.5,1.4l-0.4,0.4l-1.3-0.5l-1.6,0.4l-0.3-1.4
		l-0.9,0.1l-0.6,0.7l0.2,0.7l-1.1,0.8v2l-1.4-1.8l-1,0.1l-1.2-1.3l-1,1.5l-1.1-0.2l0.5,0.5l-0.6,0.4l-0.4,2.5h-1.3l-1.9,1h-0.9
		l-0.3-1.7l-0.7,0.6l-0.4-1.6l-2.4,1.4l0.1-1.2l-0.6,0.2l-0.1-1.5l-1.4-0.5l0.4-0.8l-1.4-1v-0.7l-2.1,0.6l0.1,0.6l-1.4,1.1l0.6,1.2
		l-0.3,1.5l-0.8-0.1l-0.4,0.9l-3,0.2l-0.9,1.1l-1.8,0.9L142,910l0.6,1.3l-0.3,1.4l-1.9,1.8l-1.1-1.2l-1.5,0.3l-2.7-1.4H134l-1-1.8
		h-1.9l-0.8-0.9l-1.7,1.1l-0.5,1.7l-2,0.7l-0.4,0.9l-1.4,0.8l-2.5-1.5l0,0l0.2-1.3l2.1-2.4l-0.4-0.9l-0.7-0.1l0.6-0.1l0.9-2l0.9,0.7
		l0.1-1.2l-2.1-0.6l-0.1-0.9l-1.2-0.6l0.2-1.6l-1.6,0.6l-0.1-1.4l-1.2-0.3l-0.2-0.7l0.1-1.3l0.7,0.2l0.8-1.9l0.2-2.8l0.8-0.3
		l0.3-2.2l1.8-1.7l-0.2-0.8l-1.2-1.3l-0.1-0.8l-1.4-0.3l-0.6-1.5l-0.9,1.3l-2.7-0.3l-1.5,1.8l-2.5-0.3l-0.8-1.2l0.3-1.5l-0.5,0.1
		l-0.4-1.1l0.9-0.9v-1.1l-1-1.4l-1.1,0.6l-0.2-0.9l0.7-0.1l-0.4-0.6l1-0.3l2.1-2.4l0.8-1.9l1,0.1v0.8l2.1,1.5l0.9-0.5l1.3-2.3
		l1.9,0.9l0.3,0.9l1,0.4l1.5-0.5l0.5,0.4l0.5-0.5l0.6,0.9l2.6-1.8l1.5,0.6l0.9-2l-0.4-0.4l1-1.1v-1.2l0,0l2.3-1l1.9,1.6l5.6-1.7
		l1.5,0.4l1.8-1l-0.2-2.1l-0.8-0.6l-0.1-1.1l-1.2-1l-1.4,0.3l-0.1,0.5l-1-0.5l-0.9,0.2v-1.7l-0.9-0.9l-0.5-0.4l-0.6,0.9l-1.1-0.6
		l-0.2-2.4l1.5-1.8l2,0.2v-0.8l1-1.4l4.4,3.7l0.7,0.2L144.7,860.1z"/>
	<path id="CN-46" class="st0" d="M199.2,975.6l1.2,2l2,0.1l1.2,4.7l-2.2,1.7l-0.5-1l0.8-0.2h-1.1l0.5,1l-1,1.6l-1,0.5l0.1,0.8
		l-1.6,2.3l0.2,1.5l-0.7,1.4l0.3,2l-0.9,0.3l-0.6,1.4l-1.6-0.1l-1.1,0.7l-1.2,1.2l-0.6,1.9l-1.5-0.4l-2.1,0.3l-0.5,2.4l-1.2-0.2
		l-0.5,0.9h-0.1l-0.1-0.6l-0.8-0.2l-0.4,0.5l0.2-0.8l-0.5-0.4h-3.6l-0.9-1l-1.5,0.1l-0.4-0.6l-3.4-1.4l0.1-3l-0.9-1.4l0.5-1.3
		l-0.6-2.2l0.8-0.9l-0.6-0.5l0.1-1.1l0.7-1.1h0.6l3.4-2.8l3.4-1.9v-0.6l-1.1,0.5l-0.4-0.7l1.3-1.5l0.6-0.2l2.4,1.1l0.5-1.5l1-0.6
		l1.1-0.1l1.3,1l0.2-0.7l0.4,0.5l1.1-0.7l1,0.6l1.3-0.7l0.4-0.8l1.5,0.5l1.2-0.8l2.7,1.2l0.3,1l-0.5-2.3L199.2,975.6z"/>
	<path id="CN-13" class="st0" d="M281.5,683.6l-0.8,2.6l0.3,0.7l1.3,0.5l-1.3,0.4l0.5,0.8L281,691l-2.3-0.3l-0.3-1.1l-0.7,0.2l0,0
		l0.7-1.4l-0.4-1.1l-1.7-0.9v-2.1h2.8L281.5,683.6z M242.7,672.8l-1.2-1.5l0.4-0.5l-1.3-2.1l-1.9-1.9l1.2-1.2l0.9-0.2l0.4-0.9
		l-1.2-0.9l0.2-1.6l-0.9-0.9l2-1.4l2.8,0.2l-0.5-4.9l1.6-2.1l2-0.8l0.1-2.4l0.8-0.4l2.4,0.5l0.8-1l0.6,0.7l-0.6,1.2l1,0.9l0.6,2.8
		l-0.9,0.5l0.4,1.8l-0.4,1.8l3.2-0.6l1.6,0.9l0.5-0.8l0.3,0.5l0.8-0.3l-0.7-1l0.3-0.6l4-2l2.3-1.9l1.2-0.1l0.9,2.7l0.7,0.1l0.7-0.2
		l0.1-1.1l1.1-0.2l0.3-1.1l1.4-1.2l1,0.2l-0.2,0.9l1.3-0.6l0.7,0.9l2.2-0.1l0.2-0.8l1.7-0.6l0.1-1.6l-1.2-1.5h1.6l0.1-3.6l2.2-1.3
		l3.6,0.4l1.1-1.1l0.1-1h0.8l0.2-0.4l0.7,0.8l2.5-0.8l2.8,3.7l-0.1,0.8l0.6,0.8l-1.2,0.9l1.7,1.2l-0.2,1.1l0.8,0.5l-0.5,0.8l1.1,0.1
		l0.2-0.8l0.6-0.1l0.3,0.8l-0.6,0.2l0.9,0.7l-0.6,1l0.9,1.2l-0.7,1.4l-1.4-0.8l-0.5,1.2l1.2,2.6l1.2,0.4v0.9l-0.9,0.5l1,0.8l0.2,1.8
		l2.1-0.6l2.9,0.5l1.1-0.8l0.6,1.2l0.7-0.3l3.2,0.6l0.5-0.5l0,0v1l-0.9,0.6l0.2,0.6l-1.3,0.9l-0.1,0.8l-1.6,0.3l-0.1,0.6l1.1,0.5
		l-0.4,0.7H303l-0.6,2.7l2.6,2.2l1.6-0.4l-0.3,1.5h1l-0.1,0.6l0.7,0.6l3.8-0.1l0.3,3.2l0.7,1.2l-0.3,0.6l1.5,0.7l0.4,2.4l0.9-0.1
		v0.9l0,0l-3.5,1.4l-0.5,0.3v1.2h-0.8l-1.3,1.1l-1.3,3.6l0.6,1.6l-0.5,0.9l-0.8-0.2l-2.6,3l-3.2,1l-1.8-0.5l-3.4,2.4l-1.4-0.5
		l-2-2.6l0,0l-0.7-2.3l-0.9-0.7l-0.9,0.2l0.8-3l-2.1-0.4l-0.7,0.9l-0.2-0.7l-0.9-0.2l0.6-1.2l-1.5-1.8l-0.5-1.8l0.4-1.6l2.1-0.1
		l0.7,0.4l0.3-0.8l-0.7-0.2l0.1-0.9l-1.3-0.4l-1.2-2.1h-2l0,0l-2-2.4l-0.3-2l1.3-1.3h1.7l-0.2-0.9l0.9-0.1V674l-2.4,0.2l-2.1-0.8
		l-1.8,0.1l-1.9-2.3l-1.7-1.1l-0.6-1.3l0.3-0.9l-0.7-0.4l-0.6,1.4h-1.8l0.2,1.4l-1.7-0.6l1.5,2.7l-0.6-0.3l-1.5,0.5l-0.7-0.5
		l-1.7,2.9l-1.5,0.6l-1-0.6l-1.9,1.2l-0.3,0.6l0.5,0.2v0.8l1.8,1.5l0.6,1.5l-1,0.7l-0.5,1.3l-0.7-0.6l-0.4,0.7l-1.8,0.3l-2.1,1.5
		l-0.3,1.2l1.2,0.7l0.1,1.1l0.6,0.5l-1.8,0.7l0.8,0.6l-0.1,1.4l1.1,0.9h1.5l0.9,1.4h0.7l1.5-1.4l0.5,0.5l0.3-0.4l2.5,0.2l2,2.1
		l1.4,0.2l-0.6-1.2l2.2-1.7l1.8,0.5l-0.1-0.5l1.3,0.1l0,0v2.5l0.8,0.5l-0.4,1.4l0.4-0.3l0.4,0.5l-0.4,2.1l1,1l-0.4,1.2l-1.8,0.6
		l-0.6,1.5l0.6,3.1h1.1l1,0.8l1.3-0.2l1,1.9l1.6-0.7l0.4,0.9l3.7-0.6l0.2-0.8l0,0l1.8,4.4l2,2l0,0l-2.1,2.9l-1.6,0.1l-1.8,3.5
		l-8,0.3l-4.5,5.7l-1.4-1.6l-0.7,1.8l-0.6-0.1v0.7l0.7,0.4l-0.5,0.6l-1-0.3l-2.3,0.7l-0.2,1.6l-0.7,0.5l-0.5,2l-1.1,1.2l-1.2,2.8
		l-2.5,0.8l-1.8,2.3l-0.7,1.9l1,2.9l0.8-0.2l0.6,1l0.1,1.4l0,0l-1.9,1.3l-1-1.6l-1.5-0.4l-0.2,0.6h-0.7l-0.6,1.5l-1.1,0.4l-0.4-1.4
		l-3.8,0.2l-2.4-1.6l-4.3-0.8l-0.6-1.3h-0.6l0.1,0.6l-0.3-0.6l-1.4,0.4l-1.4-0.4l0,0l-0.3-1l-1.9-1.1l0.4-1l-0.5-1l-0.8-0.3l0.4-1
		h-0.5l2.7-1.3l0.2-1.5l0.7,0.5l0.5-0.4l-0.3-4.2l1.5-1.5l3.2-6.9l-0.9-0.7L242,722l0.6-1l-0.9-0.8l-1.2-3.9l-0.8-0.8l0.2-0.7
		l-3.2-1.1l-0.5-0.7l-0.2-1.8l0.7-1.3l-0.3-1.5l0.6-1.4l1.2-0.1V706l0.6,0.1l0.5-1l0.5,0.1l0.2-1.1l-1-0.9l-0.1-1.4l1.5-1.5l2-1.2
		l0.8,1.4h1.1l1-1.2l0.9,0.6l0.4-1.3l1-0.7l-0.6-0.5v-0.9l1.7-4.1l-1.8-1.7l0.4-2.3l-0.6-1.2h-2.2l-2-0.9l-0.5-1.2l-1.4-0.3l0.8-0.5
		l0.3-1.4l0.5,1.1l0.6-0.2v-1.9l0.6,0.2l1.3-0.4l0.3-0.7l2.5-0.4l1-1.2l-1-0.7l-1.7,0.1l-0.6-1.9l0.2-1.7l-1-0.6L242.7,672.8z"/>
	<path id="CN-41" class="st0" d="M237.6,743.2l1.4,0.4l1.4-0.4l0.3,0.6l-0.1-0.6h0.6l0.6,1.3l4.3,0.8l2.4,1.6l3.8-0.2l0.4,1.4
		l1.1-0.4l0.6-1.5h0.6l0.2-0.6l1.5,0.4l1,1.6l1.9-1.3l0,0l-0.4,2.4l-1.2,0.7l0.1,2.8l1.6-1.5v-0.6l0.8,0.3l3.3-1.8l2.5-0.7l0.7-0.8
		l0.5-0.1l0.1,0.5l-0.9,1.8l-1.5-0.1l-0.7,1.1l0.2,0.6l-2,0.3l-0.8,1.6l-2,0.2l-1.6,2.6l-0.5-0.2l0.3,1.4l-1.7,1.1l-0.5-0.5
		l-1.9,1.1l-1.1,2.6l-1.1,0.5l-0.5,2.3l1.4,0.8l2.5-0.6l1.3,0.7l-0.2,0.7l0.7,0.2l-0.1,0.9l0.6-0.2l1.7,1.1l0.2,1.9l1.2,1.4l1.8,0.3
		l0.3-0.6l1.7,0.6l1.8-0.4l0.4-0.5l0.4,0.5l0.8-0.2l0.4,0.7l0.7-0.3l0,0l-0.4,1.8l0.7,1.2l1.9,1v0.7l2.7-0.1l-0.6,2.5l1.5,2.2
		l-0.1,1.3l-1-0.3l-1.5,0.8l-0.1,0.7l-3.5,1.5l-1.1-1.1l-0.2-1.2l-0.9-0.7l-0.2-1.5l-1-0.5l-0.4,0.4l-0.6-1l-2,0.1l-0.6,0.5
		l-0.7,2.3l1.1,0.2l-0.2,1.3l-0.6,0.1l0.9,2.9l-2.8,0.4l-0.2,0.8h-0.7l-0.4,1.9l0.6,0.8l-0.9,2.9l-1.8,0.7h-1.4l-1.2-1.1l-0.4,0.5
		l0.3,1.6l-0.6,0.6l4,1.9v4h1.3v0.5l1.3-0.3l1.8,2.5l1.4-0.1l0.4-1.3l0.8,0.3l0.2-0.4l0.2,0.6l1.8-1.5l-1,0.9l0.5,0.3l0.7,4.8
		l-0.3,5.5l-1.2,0.5l-1.7-0.3l-2.3,1.6l-0.1,0.9l-1.4,1.6l-0.1,1.4l0,0l-0.8,0.3l-1.1-0.6l0.2-1.9l-1-0.8l-0.7,1.3l-1-0.1l-0.3,0.8
		l-0.3-0.4l-1.7,0.6l-2.6-1.9l-0.9,0.5l0.2-3.1l-1.6,0.5l-2-0.3l-0.7-1.2l-0.8-0.3l-2.5,1.4l-0.3-1.5l-0.5-0.3l-0.9,0.5l-0.4-1.8
		l-0.7-0.4l0.4-0.7l-0.7-1.2h0.4l0.2-1.1l-0.5-0.7l0.4-1.7l-0.5-0.8l-0.8-0.1l-0.5,0.9l-2.6,1.3l-2.7-2.3l-0.9,0.7l-1.4-0.7
		l-0.5,0.8l-1.5-0.4l-1.3,0.8l-2.7-0.9l-1.4,0.7l-1-0.2l-0.5,0.6l-1.2-1l-1,0.1l-1.1-1.3l-0.7,0.2l-0.7-0.9l-0.8,0.2l-2.1-1.5h-1
		l-0.1-0.4l-0.9,0.6l-1.9-2l0.6-0.7l-0.7,0.2l-1.6-2.1l-0.5,0.2l0.3-1.3l-0.4-1h-1.1l0.5-0.7l-1.2-1.4l-0.7,0.4l0.2-0.5l-0.9-1l0,0
		l0.6-1.2l-0.3-3.5l-2.6-1.7l-0.7-1.9l-2.1-0.9l-0.1-0.6l1-0.8l-1.1-1.2l0.7-2l-2.5-1.2l-0.2-0.6l0.9-0.7l-0.2-1.2l-0.6,0.1
		l-0.8-1.5l0.5-0.8l-0.2-0.6l0,0l3.8,0.2l0.9-1l1.8-0.1l0.4-1.1l0.5,0.4l2.4-1.6l0.9,0.2l4.4-0.9l1.3-1.5v-0.7l1.7-0.6l0.3-0.6
		l1.6-0.1l1,0.7l0.4-3.8l2,0.8l0.9-0.4v0.5l0.6,0.1l0.8-0.5l2.8,0.4l0.4-0.7l0.3,0.7l1,0.3l0.8-0.8l1.4,0.1l0.9-0.8l-0.1-0.7
		l1.6,0.3l1.2-1.7l1.1,0.2v-0.8l2.5-0.8l0.7-1.8l0.9,0.2l-0.6-2.8l1-0.3l-0.2-2.3h0.6l0.2-0.6l-0.5-0.2l-0.1-1.4l0.7-0.2l-0.6-0.4
		l0.5-0.2l-0.3-0.3L237.6,743.2z"/>
	<path id="CN-91" class="st0" d="M244.1,947l0.3,1.1l-0.5-0.3l-0.1,0.5l-1.2-1.1L244.1,947z M241.7,946.2l-0.5,1.8l-0.4-0.3
		l-1.7,0.4l0.7-1.1L241.7,946.2z M240,945.4l1.6-1.4l0,0l1.5-0.8l0.8,0.2l0,0l-0.2,0.3l0.6-0.3l0.2,0.6h0.8l-2,0.9l1.1,0.3l0.7-0.8
		l1,0.6l-0.5,1.2l-1-0.6l-0.4,0.5l0.8,0.7l-0.2,0.5l-2.5-1.5H240L240,945.4z"/>
	<path id="CN-23" class="st0" d="M360.6,434.7l0.4,0.1l0.2-1.1l0.2,1.2l0.7-1.1l1.2,1.2l2.3,0.1l3.3,3l1.6-0.5l2.6,3.3l3.2,0.4
		l0.2,0.8l1.4,0.4l0.5,0.8l0.2-1.4l1.2-0.7l2.8,0.1l3.3,1.9l0.6,1.1l1.2-0.6l1.7,1.9l-0.2,1.1l-0.8,0.5l0.2,1.1l2-0.8l1.7,2.8l1-0.7
		l0.7,0.5l-0.8,0.7l0.2,1.4l-1.1,0.3v1l0.4,0.6l0.8-0.4l1.6,1.4l-0.1,1.4l0.9-0.1l1.1,1.5l-0.2,1.9l1.4,0.4l-1.8,1.6l3.3,1.8
		l-0.5,1.8l-0.9,0.2l0.2,1.6l2.5,4.4l0.8,0.3l0.1,1.6l-0.7,0.8l2,1.4l-0.5,2l1.6,0.8v0.9l-1.2,0.4l0.3,1.3l0.8,0.2l-0.4-1.3l1.3-0.2
		l-0.9,2.4l0.2,2.8l2.4,2.6l1.5,3.1l0.8,0.6l-0.2,1.2l1,2.1l-0.9,2.1l0.9,1l-0.2,2.1l3.2,1.8l-0.1,1.3l-1.3,2.7l0.7,1.8l-0.2,2.1
		l1.6,0.8l0.4,2l1.5,1.6l1.3,0.3l0.6-0.7l1.4,1.4l2.1,0.4l0.2,0.4l1.7-1.7l1.9-0.3l2.2,0.7l0.4-0.5l0.7,0.5l-0.6,1.7l3.1,0.5
		l1.1,1.9l1.5-0.9l1.7,0.9l0.5-1.5h1.1l0.6,0.4l0.4,2.3l2.1,0.2l0.4,1.5l1.3,0.6v0.9l0.9,0.4l0.1,1.1l3.8,3.3l2.5-0.7l1.2,0.9
		l1.9-0.4l-1.8,4.9l1,0.7l0.2,1.8l1.7-0.1l-0.3,1.3l1.2,2.3l-2.2,3.8l0.3,1.1l2.7,2.8l1.1,3.7l1.4,0.3l2-1l2.4-0.1l2.2,1.5l1-0.9
		l1.3,0.7l2,0.1l0.4-0.8h3.1l0.9-0.9l3.1,0.7l1.4-4.3l1.7,0.4l0.9-1.4l1.7-0.3l0.3-0.7l1.6-0.9h2.3l1.7,0.7l3.8-2.5l1.1,0.2l0.3-1.4
		l1.5-0.3l0.5-1l4.3-1l1.5,0.7l0.7-0.4l0.8,1.3l1,0.4l-2,5.3l0.5,1.6l0.9,0.2l0.2,1.3l1.2,1.3L503,550l-3.3,4.4l-2,0.1l-1.9,2.1
		l-0.4,1.4l0.8,0.9l0.1,1.4l-1.4,1l-1.2,4.4l0.4,0.9l-0.4,2.2l-1.3,1.3l-0.8,2l1.2,1.4l-0.9,0.9l0.7,0.3l-0.1,1l-0.8,1.2l-0.5-0.4
		l-1.6,1.4l0.6,1.8l-0.9,2h-0.7l-0.3,1.3l-0.8-0.5l-0.5,0.6l-0.2,1.1l0.5,0.3l-0.9,1.6l0.7,0.2l-0.4,0.6l0.3,0.6l-0.8,0.1l0.1,0.6
		l-0.9,0.4l-0.3,1l-0.7-0.5l-1.4,1l-0.9,4.1l0.6,2.1l-2,1.8l-1.5-0.6l-2,6.5l-1.7,2.4l-3.1-1.1l-2.6-2.2l0.9-3.8l-1.6-5l-1.6-0.8
		l-0.5-1l-0.8,0.5l-0.6,1.7l-1.2-0.1l-0.4,1.1l0.5,0.8l-2.7,2.1l0.2,0.5l-1.9-0.2l-0.8,1l-2.2-0.1l-0.2,0.7l-1.6,0.6l1.9,2.9
		l2.4,10.8l-1.1,4.5l0.3,3.9l-0.4,1.3l1,0.8l0,0l-1.7,1.2l-1.6-1.6l-2,1.2l-0.6-1.2l-2.4-1.5v-0.5l-1.4-0.1l-2.4-5.6l0.2-1.7
		l-3.2,3.6l-0.9-0.3l-0.3-2.4l-0.8-0.6l-2.1,1.2l0.1,1l-0.6,0.4h-3l-1.8,1.4l-1.3-0.3l-0.4,0.5l-0.1,3.6l-2.5,1l-0.7-0.5l-0.9,0.1
		l-1.3-3.2l-0.6-0.2l0.4-0.4l-0.9-2.2l-0.5-0.1l-2.3-4.7v-3.8l-1.3-2.4l-2,1.5l-0.5,1.5l-1.4-0.2l0.6,1.2l-0.5,0.6l0.5,0.5l-0.7,0.6
		l0.7,0.9l-2.5,1.2l-1.5-0.1l-0.6-0.5l-0.2-1.7l-0.4,0.5l-1.1-0.7l0.2-1.3l-1.7-2.1l0.3-0.7l-0.6-1.2l1.1-0.3l0.1-0.9l-1.7-1.1
		l-1.6-0.1l-0.2,0.6l-1.1-0.8l-1.6,1.4l-0.8-4.5l1.2-2.3L405,597l-0.1-1l-2.1-0.1l-2.9-2l-1.7,0.3l-0.9,0.9l-0.8-0.1l-0.6,0.9
		l-3.5-0.5l-1.9-1.1l-1.5-1.9l-0.1-3.1l-1.1-0.1l-1.4,0.8l-0.7-0.3l0.2,0.5l-1.3,1.1l-0.7-0.6l-0.1,0.6l-0.5-0.5l-2.1,0.7l-0.7-0.9
		v-1.1l-1.2,0.1l-0.4-0.8l-0.9,1.8h-0.8l-0.2-0.5l-1.7,0.6l-0.6-0.3l-0.5,0.8l-0.9-0.9l-1,0.3l-0.5-1.9l-1.1-0.1l-0.5-1.4l-0.9,0.2
		l-0.3-1.3l-1.6-1.2l0.8-1.7l-1.4-1.7l0.7-0.7l-0.2-0.6l0.6-0.2l-0.5-0.7v-1.7l-0.5-0.1l-0.1-2.2l-0.7,0.6v-0.8h-0.7l-3.5,1.3
		l-0.8-0.5l-1.7,0.6l-1.6-0.9l-0.9,0.4l0,0l-2-3.1l-0.2-2.8l0.6-0.2v-0.7l2.2,0.5l0.7-1.3l4.1-0.5l0.5-2.2l-0.8,0.8l0.5-0.3
		l-0.2-0.9l-0.4-0.1l-0.2,1.2H361l-0.3-0.5l0.7-1.9l-1.5,0.2l-1.2-1.1v0.8l0.8,0.6l-0.2,1.3l-1.9,0.3l-0.7,1.9l-1.9,0.5l-1.5-1.8
		v-2.6l-1.2,0.4l-0.4-0.7l1-1.4l-3-1.3L347,557l1.3-1.2l0.9-2.4l7.7-5l1.6-3l3.4-1.5l5.3-6.3l3.4-2.9l0.6,0.9l-0.1,2.3l0.5,1.5
		l0.9,0.8l-0.2,1l0.8,0.5l-0.7,1.5l1-0.7l0.9-3.3l-0.8-1.4l0.5-1.7l-0.4-1.6l1-1.6l0.2-2.2l0.5-1.4l0.6-0.3l0.1-1.5h0.5l0.9-2.4
		l-0.2-1.3l1.2-1.3l1.8,0.1l1,1l1.3-1.2l0.6-5.1l-0.8-1.6h0.4v-1.1l-1.3-1l0.6-1.1l0.5,0.9l0.3-0.7l0.1-2.6l-0.6-0.6l0.6-0.1
		l0.2-0.7l-0.8-1.7l1.4-0.9l-0.5-0.9l1.1-0.2l-0.8-0.4l0.1-1l1.2-0.2l-0.5-0.5l1.6-1.2l-0.1-1.3l0.8-0.3l0.3-0.9l-0.5-1l0.8,0.1
		l-0.2-0.8l0.9-0.1l0.9-0.8l-0.3-0.3l1.9-1l-0.5-2.6l0.5-0.5l-0.9-1l0.4-0.4l0.7,0.3l-0.2-0.6l1.2-0.9l-0.3-0.5h0.8l0.1-0.8l0.5,0.5
		l1-1.9l-0.6-0.7l0.3-0.6l-1-1l0.2-0.8l-0.7,0.2l-1-0.7l-0.1-1.3l-1.3-0.4l-0.7-2l-4.4-5.9l-2.7-0.2l-0.2-0.6l-0.6,0.6l-0.2,1.9
		l-1.7,0.8l0.2,1l-0.8,1.3l-1.3-0.1l-0.5,0.9l-1.2,0.4l-0.7-0.9l-1.1-0.2l-0.7,0.5l-0.4,1.7h-0.7l-1.6-1.6l-3.8,1l-1.1-1.3l-0.6,0.1
		l-1-0.8l-0.7,1.6l-4.7,1.4l-2.8-1.4l-0.9,0.2l-0.5-1.6l-1.4-1.7l0.4-1.3l-1.7-4.1l0.3-0.7l-0.8-2.2l0.2-1.8h-0.6l-0.7-1.8l0.1-1.4
		l1.3-0.4l0.6-2l-3.9-0.9l-0.4-2l-0.5,0.3l-1.2-2l-1.3,0.1l-0.5-0.9l-2.8,4.5l-1.4,0.3l-1.5-0.7l-0.8-2.6l-1.6-0.3l-2.5-2.4
		l-1.7-0.5l5.2-5l0.1-1.1l2.7-3.7l-0.8-1.7l-1.2-0.7l0.2-1.4l-2.2-1.8l0,0l4.7-1.9h2.8l0.8-1l1.3,0.1l1-0.7l1.5,1.2l5.1-0.2l2.6-1.2
		l1.3,0.2l1.5-1.2l2.3,0.6L360.6,434.7z"/>
	<path id="CN-43" class="st0" d="M180.8,851.6l0.5-0.2l-0.2-1.3l1.2-0.9l-0.1-0.9l0.9-2l0.4,0.1l-0.1-0.6l0.4,0.2l0.7-1.5l2.5,0.2
		l-0.3-0.9l0.8-0.3l0.1-1l1.2-0.3l3.1-0.2l3.2,2.2l1.2-1.1l0.9,0.2l1.4-1.1l-1.7-2l0.6-1.1l-0.7-0.6l1.9-0.7l1.2,0.5l0.1-1.1
		l0.9-0.1l1.2,0.2l0.1,0.7l4.1,0.4l1.8,1.8l1.7-0.2l0.3,0.5h1.4l1.1-0.4l2.7,1.2l0.2,0.7l1.1,0.7l0.1-0.4v1.3l1.6,0.8l0.6-0.5
		l-0.1,0.6l0.9,0.5l-0.2,1.3l2-2l3,0.5l2.6-3l0.6,1.6l1.1-1.2l-0.2,1l-1.3,1l0.4,2.3l1.2-0.5l0.5,1.1l0.7-0.1l5.5-5.9l-0.3,2.4h1.5
		l0.9,1.5l-1.4,0.8l1.5,1l-1.8,2.7l1.2,0.4l-0.5,1l0.4,1.1l0.5-0.3l0.2,0.7l1-0.6l0.8,1l0.9-0.1l0,0l0.2,1.4l0.5-0.1l0.8,1.6
		l1.1,0.3l-0.3,3.1l-0.6,0.8l1.6,0.9l-0.5,0.7l1,0.6v1l-2.1,2l-1.2,0.1l0.5,1.8l-1.5,0.8l-0.8-0.2l-1.2,1l-0.4,0.8l0.4,1.2l-1.9,2.4
		l-0.4,1.4l0.6,0.4l-0.5,0.6l0.3,1.7l1,0.2l2.2-0.7l-0.1,1.4l-1.3,2.6l2,2.1l-0.9,1.9l0.3,2.1l0.6,0.5l2.7,0.4l-0.4,2.5l-0.7,0.4v1
		l-1.2,2l1.2-0.3l0.5,0.4l1.1-0.6l0.8,0.8l-1.7,1.2l-0.7-0.1l-0.4,0.8l0.2,1.3l-1.5,2.8l1,2.3l-0.6,1.1l0.3,0.3l0,0l-1,0.3l-0.8,1.5
		H238l-0.2-0.5l-2.2,0.7l-0.5-0.7l-2.1-0.5l-0.8-0.6l-0.1-1l-1.7,0.5l-0.4,1l-1.4,0.9l-1.1,0.6l-0.9-0.4l0.1,1.2l1.4-0.1l0.7,0.8
		l-0.9,0.5l0.6,1l-0.4,0.8l0.4,1.3l-1.8,0.5h-1l-1.5-3.2l-1.5,0.1l-1.2-0.8l-0.6,0.5l-0.4-0.7l-1.3,0.5l-0.6-0.6l-1.2,3l0.7,1
		l-0.2,1l-1.7,1.4l0,0l-4-0.6l-1.8,2l-1.6-0.4l0.5-1.8l-0.6-2.4l0.5-0.6l-0.6-0.3l0.2-0.8l-0.5-0.4l-0.6,0.5l-1-0.7l-2.1,1.6v1.2
		l-0.6,0.2l-0.6,0.1l-0.5-1.1l0.5-2.2l1.4-0.8l-0.1-1l2.5-2.2l0.5-2.2l-0.4-1.5l1.7-0.8l-0.2-0.9l0.9-0.4l-2-0.5l-0.6,0.7l-0.8-0.6
		l-0.2-1.5l0.8-1.8v-1.9l-3.4-0.8l-0.3-0.9l-0.6,1.8l-2,0.1l-0.2-0.9l-0.4,0.3l-1.2-0.6l-1.3,2.2l-1.6,1.2l-0.6,1.7l-0.9,0.2
		l-0.7-1.5l-0.5,0.7l-1.1-0.4l0.2-1.8l-0.7,0.2l-0.8-0.5l-1.2,2.3l-1,0.2l0.4,1.4l-0.5,0.7l-1.6-0.2l0.8-1.5l-1-0.9l-1.4,0.7
		l-0.6-0.5l0,0l-0.2-0.7l0.5-0.6l-0.9-1.6l0.5-0.8l-1.8,0.6l-0.8-1l1.7-2.9l-0.7-1.7l-0.9-0.6l3-0.9v-1.6l-1-0.1l1.5-1l-0.5-1.8
		l-0.7,0.1l0.2-1l-2.8-0.3l-1,1.1H180l0.2-0.7l-3,1.8l-1.1-1.2l1.2-0.4l0.3-1.5l2-1.1l-0.2-0.5l0.8-0.4l0.4-1.2l0.2,0.4l0.6-0.5
		l1.2,0.4l0.1-0.8l1.9-1.4l-0.3-2.3l-1.5-0.6l0.4-0.7l-0.5-1.7l0.9-1.1l-1-0.4l1-3l-1.1-0.1l-0.3-0.6v-2.6l0,0l0.6-1.3l-1.7-0.4
		l1.5-1.6l-1.6-0.7l-0.1-1.4l1.1-2.4L180.8,851.6z M184.8,885.7l0.5-0.6v0.5l0,0L184.8,885.7z"/>
	<path id="CN-42" class="st0" d="M185.2,813.5l0.7-1.2l-0.7-1.3l0.6-0.6l-0.6-1.2l0.4-1.1l-0.2-1.5l-1.4-1.4l0.4-2l1.4-1.6l-0.2-0.8
		h3.7l1.4,0.7l0.9-1l0.9,0.3l0.5-0.6l-0.7-0.9l-0.2-1.8l-1.5-1l-2-0.6l-0.9,0.5l-0.4-0.4l0.3-2.4l-4.4-1.2l0.9-1.2h1.2l0.4-0.6
		l1,0.6l1.7-0.2l2.3,0.8l1.7-0.3l0.9,0.8l2.4-0.2l1.7-1.2l0.5,1.5h0.7l0.7,0.9l0.4-0.8l0.9-0.1l0.2-0.9h1l0.9-0.8l0,0l0.9,1
		l-0.2,0.5l0.7-0.4l1.2,1.4l-0.5,0.7h1.1l0.4,1l-0.3,1.3l0.5-0.2l1.6,2.1l0.7-0.2l-0.6,0.7l1.9,2l0.9-0.6l0.1,0.4h1l2.1,1.5l0.8-0.2
		l0.7,0.9l0.7-0.2l1.1,1.3l1-0.1l1.2,1l0.5-0.6l1,0.2l1.4-0.7l2.7,0.9l1.3-0.8l1.5,0.4l0.5-0.8l1.4,0.7l0.9-0.7l2.7,2.3l2.6-1.3
		l0.5-0.9l0.8,0.1l0.5,0.8l-0.4,1.7l0.5,0.7l-0.2,1.1h-0.4l0.7,1.2l-0.4,0.7l0.7,0.4l0.4,1.8l0.9-0.5l0.5,0.3l0.3,1.5l2.5-1.4
		l0.8,0.3l0.7,1.2l2,0.3l1.6-0.5l-0.2,3.1l0.9-0.5l2.6,1.9l1.7-0.6l0.3,0.4l0.3-0.8l1,0.1l0.7-1.3l1,0.8l-0.2,1.9l1.1,0.6l0.8-0.3
		l0,0l1.2,2l0.8,0.2l0.6,1.6l1-0.9l1.5,1.4l1.3-0.5l0.8,1.5l1.3,0.4l0.4,0.8l-2.6,1.4v1.3l-1.1,0.3l-0.3,1l2,2.4l-0.2,1l0.6,0.4
		l-0.8,0.6l0.3,1l1,0.2l1.1,1.3l0.1,3.5l0.8,2l0,0l-1.1,1.1l-1.5,0.4l-3.2-1.9l-2.1,0.2l-0.5,1.4l-2.3,1.7l-0.3-0.5l-2-0.3l0.3,1.2
		l0.5,0.1l-0.2,1.1l-2-0.8l-0.6,0.6l0.1,0.5l-0.7-0.4l-0.4,0.7l0.3,0.5l0.6-0.3l-0.7,1.1l-1.7,0.4l-1-0.5l-2,1.1l-3.1-0.4l-0.2,1.7
		l-2.3,0.4l-1.5,2.4l0,0l-0.9,0.1l-0.8-1l-1,0.6l-0.2-0.7L237,852l-0.4-1.1l0.5-1l-1.1-0.4l1.9-2.7l-1.5-1l1.4-0.8l-0.9-1.5h-1.5
		l0.3-2.4l-5.5,5.9l-0.7,0.1L229,846l-1.2,0.5l-0.4-2.3l1.3-1l0.2-1l-1.1,1.2l-0.6-1.6l-2.6,3l-3-0.5l-2.1,2l0.2-1.3l-0.9-0.5
		l0.1-0.6l-0.6,0.5l-1.6-0.8v-1.3l-0.1,0.4l-1.1-0.7l-0.2-0.7l-2.7-1.2l-1.1,0.4h-1.4l-0.3-0.5l-1.7,0.2l-1.8-1.8l-4.1-0.4l-0.1-0.7
		l-1.2-0.2l-0.9,0.1l-0.1,1.1l-1.2-0.5l-1.9,0.7l0.7,0.6l-0.6,1.1l1.7,2l-1.4,1.1l-0.9-0.2l-1.2,1.1l-3.2-2.2l-3.1,0.2l-1.2,0.3
		l-0.1,0.9l-0.8,0.3l0.3,0.9l-2.5-0.2l-0.7,1.5l-0.4-0.2l0.1,0.6l-0.4-0.1l-0.9,2l0.1,0.9l-1.2,0.9l0.2,1.3l-0.5,0.2l0,0l-1.5-1.2
		l0.3-0.9l-0.8-1.9l-2,1l0.3-1.4l-0.9-0.8l0.5-1.8h-0.4l-0.2-0.8l-0.7,0.2v-0.6l-0.4,0.4l-1-0.7l-0.3-2.3l-0.8-0.1l-1.1,2.1
		l-0.9-0.3l-0.2-1.1h-0.5l0.7-1l1.1,0.2l0.2-1.8l-0.4-0.9l0.9-2.8l-2.2-2.1l0.3-1.4l1.9,0.2l0.9-1l-0.2-0.6l0.7-0.1l0.5,1.3h1.1
		l2.7-2.3l1,0.1l-0.4,1.2l0.6,0.5l2.1-1.5l0.5,2l1.4-1.9l1-0.8l0.5,0.3l2.5-2.9l2.9-0.7l0.2,1l0.7,0.5l1.1-2.7l-0.6-1.6l0.9-0.8
		l-0.7-3.6l-2.5-1.3l0.4-0.5l-2-0.8l-1.1,0.2l0.1-2.1L185.2,813.5z"/>
	<path id="CN-22" class="st0" d="M357,577l0.9-0.4l1.6,0.9l1.7-0.6l0.8,0.5l3.5-1.3h0.7v0.8l0.7-0.6l0.1,2.2l0.5,0.1v1.7l0.5,0.7
		l-0.6,0.2l0.2,0.6l-0.7,0.7l1.4,1.7l-0.8,1.7l1.6,1.2l0.3,1.3l0.9-0.2l0.5,1.4l1.1,0.1l0.5,1.9l1-0.3l0.9,0.9l0.5-0.8l0.6,0.3
		l1.7-0.6l0.2,0.5h0.8l0.9-1.8l0.4,0.8l1.2-0.1v1.1l0.7,0.9l2.1-0.7l0.5,0.5l0.1-0.6l0.7,0.6l1.3-1.1l-0.2-0.5l0.7,0.3l1.4-0.8
		l1.1,0.1l0.1,3.1l1.5,1.9l1.9,1.1l3.5,0.5l0.6-0.9l0.8,0.1l0.9-0.9l1.7-0.3l2.9,2l2.1,0.1l0.1,1l1.5,2.2l-1.2,2.3l0.8,4.5l1.6-1.4
		l1.1,0.8l0.2-0.6l1.6,0.1l1.7,1.1l-0.1,0.9l-1.1,0.3l0.6,1.2l-0.3,0.7l1.7,2.1l-0.2,1.3l1.1,0.7l0.4-0.5l0.2,1.7l0.6,0.5l1.5,0.1
		l2.5-1.2l-0.7-0.9l0.7-0.6l-0.5-0.5l0.5-0.6l-0.6-1.2l1.4,0.2l0.5-1.5l2-1.5l1.3,2.4v3.8l2.3,4.7l0.5,0.1l0.9,2.2l-0.4,0.4l0.6,0.2
		l1.3,3.2l0.9-0.1l0.7,0.5l2.5-1l0.1-3.6l0.4-0.5l1.3,0.3l1.8-1.4h3l0.6-0.4l-0.1-1l2.1-1.2l0.8,0.6l0.3,2.4l0.9,0.3l3.2-3.6
		l-0.2,1.7l2.4,5.6l1.4,0.1v0.5l2.4,1.5l0.6,1.2l2-1.2l1.6,1.6l1.7-1.2l0,0l0.4,1.5l-1.5,3.2l0.1,1.2l-1.3,2l0.4,1.5l-1.5,0.2l0.1,1
		l-2.5-0.3l-0.6,0.7l-1.1-0.2l-3.5,2.1l0.7,0.7l0.9-0.3l1.2,1.3l-0.1,1.3l-0.7,0.2l0.7,1.9l-0.6-0.2l-0.6-3l-0.5-0.1v1l-0.5,0.2
		v-0.9h-0.6l-1.7-1.9l0.1-3.2l-1.9-0.2l0.5-1.1l-0.5-0.3l-1.2,0.4l-1.5-0.6l-1.7,4.9l0.2,1.9l-0.8,3H439l-0.3-0.6l-1.1,1.6l-1.1-1.2
		l-1.3-0.1l-0.4,1.1l-1,0.2l0.2,0.9l-0.9,1.2l0.4,0.9l-3.3,2.1l-0.1,1l-2.5-0.4l-0.7,0.5l-0.8-0.4l-1.4,0.7l-2.6-0.7l-3.1,1l0.2,2.8
		l0.7,1.5l2.1,2.1l-2.1,3.8l-0.5,0.2l-2.2-1.3l-0.8,0.6l-2.9-0.1l-1.3-1.1l-1.6,0.3l-0.2-0.4h-1.7l0.2-0.6l-2.1-0.4l1-0.9l-1.8-1.3
		l0.5-0.5l-0.3-0.6l-1.5-0.6v-0.6l-1.1,1.4l-0.5-0.3l-0.2,0.8l-1.4-0.9l0.6,0.7l-0.6,0.7h-0.9l-0.6,0.9l0.3,1l-1,2.1l0.2,1.3h-1
		l-2,3.3l-2.2,1.4l0.3,0.5l-0.8,1.4l-1.2,0.8l0.5,0.3l-1.1,0.4l-0.3-0.6l0,0l-1.3,0.7l-0.4-0.6l-1,0.6l-0.7-0.8l-1.1,0.2l1.3-1.2
		l0.8-1.7l-0.4-0.5l1.1-1.1l-0.7-0.2l0.2-0.9l-1.4-0.5l-0.1-1.2l-1.4-1.5l0.1-0.8l-1.1-2.1l0.1-1.2l-1.6-0.2l0.3-1.3l-0.7-1.4
		l0.6-1.5l-0.6-0.6l2.4-2.9l-1.5-0.6l-0.7,0.6l-0.2-2.5l-0.4-0.5h-1.1l0.1-1.9l-1.3-1.4l0.3-1.8l-1-0.1l-0.6-1v-2l-1.4-0.1l0.1-3.1
		l-0.4-0.7l0.7-1.9l-2.5,1.2l-0.5,1.5l-2.4,2.5l-0.2-0.7l-1-0.5l0.8-1.2l-1.1-0.6l1-1.4l-1.6-1.4l-0.1-1l-0.8-0.6l-1.2,0.1l-0.4-0.8
		l-0.8,0.1L365,626l-1.2,2l0,0v0.1l0,0h-1.4l-1.4-1.7l-0.6,0.8l-1.4-1.3l0.1-1.1l1.3,0.2l-0.2-0.9l1.2,0.1l0.4-0.5l-1-2.2l0.2-1.8
		l-1.9-3.7l0.7-1.6l-1-0.5l-1.1-2.5l-1-0.6l0.1-2.7l-1.5,0.3l-1.9,1.8l-4.9,2.9l-2.7-0.5l0.3-3.6l-0.8-0.1l-0.3-1.3l-1.2-0.6
		l0.1-2.6l-0.5-0.4l1.1-0.5l-0.8-0.1l-0.9-2l0.7-0.3l0.4-4.3l1.5-1.2v-0.8l-1.2-0.6l0.2-2.4l-1.7-0.9l-0.7-1.4l0.4-1.4l-0.4-1
		l-1.5-0.4l-1.6,0.6l-1.2-1.2l1.5-0.7l1-2.4l-0.6-1.3l0.8-0.5l1.5,0.8l0.5-0.2l1.2,2l2,1.4l1.4-1.2l0.1-0.7h0.6l1.5,2.5l2.2,1.5
		l1.1-1.6l0.2-1.7l-0.5-3.5l3.3-0.5l0.9-0.7l-0.2-0.7L357,577z"/>
	<path id="CN-32" class="st0" d="M271,769.8l-0.1-1.6l0.5-0.2l0.6-2.2l2.2-0.6l1.8,0.3l0.2-0.4l2.4,1.1l1.4,2.5l-0.3,0.8l0.8,0.2
		l1,2.8l0.6-0.1l0.2-1.1l1.1-0.9l1.4,1.5l1.2,0.4l1.5-1.2l1.5,0.3l0.1-2l1.8-0.4l1.8,0.4l-0.2,1.4l1.2,0.1l-0.5,1l0.5,0.5l-0.1,0.9
		l0.5,0.1l2.5-0.8l0.3-2.6l1.2-1.6l2.1,0.5l1.1-0.7l-0.7-0.5l1.8-2.9v-1.3l0.7-0.5l2.4,0.1l1.1-0.9l1.3,0.3l0,0l-0.9,0.6l-0.7,3.1
		l0.8,1.1l0.9,0.6l0.5-0.4l1.7,0.6l-0.4,0.8l2.5,1.8l0.1,0.6l4.6,1.5l3.3,2l0.8,3.1l4.4,9.7l-0.8-0.2v1l0.5,1l0.6-0.4v1.2l1.3,1.7
		l0.4,1.5l-0.4,0.3l0.9,0.4l0.3,2.1l-0.7,1.7l0.6,2.2l1.3,0.6l-0.1,0.7l4.8,2l0.6,2.2l-0.5,0.7l0.7,1.2l3.7,1.4l1.5,1.7l1,2.6
		l-0.7,0.8l-3-0.8l-4.1-2.2l-2.6,1.5l-0.2,1l3,3.2l0,0l-2.2,1v0.7l-0.6,0.2l0.5,1.4l-1.1,0.2l-0.2,1.9l-2.2,0.1l0.2,1.8l0,0
		l-2.5,0.6v1.1l-1.6,0.6l-0.9,1.4l-1-2.3l-0.9,0.5l0.1-1l-2.7,0.3l-2-1.3l-1-2.2l-1.6-0.1l-1.9,0.6l0,0l-3.1-0.6l-0.4-1.8l-0.2,0.5
		l-0.8,0.1l-1.3-0.8l-1.1,1h-3.8l-1.1-1.1l2.1-1.8l-0.1-2.9h-0.8l-0.3-0.9l-0.6,0.7l-0.9-0.1l0.2-1.3l-0.6-0.5l-1.2,0.3l-0.5-0.8
		l0.3-0.7l-1.7-1.3l0.3-2.2l1.3-0.6l0.1-1l2-0.4l-0.1-1.2l0.6-0.6l-0.2-2h-1.2l-0.3-1.6h4.2l-0.2,0.5l1.1,0.8l0.7-0.1l0.7,0.9
		l0.8-0.6l0.4-1.6l0.4,0.4l0.2-0.5l-0.6-3.3l-1,0.1l-1.1-1.2v-0.8h-2.1l-0.5,1.5l-0.9,0.1l0.1,1.6l-0.5,0.3l-0.9-0.4l-3.4,0.4V798
		l-0.8-0.1l-0.2-1.2l-0.5,0.2l-0.2-1.2l1-0.5l-0.9-0.5l-0.5-3.1l-0.4-0.2l-0.3,0.6l-1.2,0.6l-0.7-1.3h-0.6l1.3-3.8h0.9v-2.1l0.9-1.9
		l-2.8-0.3l-0.3,0.5h-2.6l0.3-2.4h-0.7l-1-2.1l-0.6,0.7l-0.8-1.2l-1.2,0.5l-0.8-1l-2,0.3l-0.8-0.4l-1.3-1.2l0.4-1l-1.1-0.6l-0.1-1.7
		l-1.7,0.1l-0.8-1.1l-2.4-0.4l0.2-0.3l-2.1-2.2L271,769.8z"/>
	<path id="CN-36" class="st0" d="M268,841.4l0.9-0.1l0.7,0.7l2.6-1.7h0.9l0.7-2.3l1-0.3l2.9,1.8l-1.1,2l-2,1.7l0.3,0.3l-0.4,0.6
		l0.9,1l0.5-0.5l1,0.4l2-1.6l1.5-0.4l0.3-1l-0.8-0.7l1.8-1.4l0.5,0.3l0.1,1.1l1-0.3l0.3,0.5l0.8-0.5l0.4,2.3l1,0.5l0.1,0.8l1.5-0.2
		l0.6,0.9l3.9-0.4l1.6,1l-0.1,1.2l0.8,0.4l0,0l0.2,0.6l-0.5,0.8l-1.2,0.1l-0.4,2.8l0.7,1.5l1.1,0.2l0.4,0.6l-0.3,0.5l0.8-0.2
		l0.5,1.3l1,0.7l0.7,1.6l-0.2,2.5l0.6,0.3l-0.4,0.9l0.5,1l-0.7,0.8l0,0l-1.4,0.9l0.7,0.5l-0.3,1.3l-2.8,0.6l-0.4,1.3l-0.8-0.4
		l-2.2,0.6l-1.6,2l-1.6-1l-1-1.7l-2.3,1.9l-0.2-0.6l-0.5,0.4l0.2,1.4l-1.2,1.3h-1.2l-0.1,0.8l-0.5-0.6l-0.5,0.3v1.2h0.8l0.4,1
		l-0.1,2.3l0.8,0.8l-1.3,1.4l-0.2,1l-1.4,1.1l-3.1,0.5l-1.9,2.1l0.1,1l-0.6,0.8l0.7,0.9l-0.4,1.1l1.2,1.4l-0.5,1.3l-1-0.4l-1.5,1.9
		v1.2l0.9,0.1l0.3,0.9l-1.2,1l-0.3,1.1l-3,1.5l0.6,1.2l-1.6,1.2v1.7l-0.8,1.5l0.2,1.9l-2,1.6l1,2.2l-0.7,0.4l0.4,0.5l-0.3,0.7l0,0
		l0.2,0.8l-1.1-0.3l-0.8,2.2l1,2.5l-1.5,0.4l-0.5-0.8l-1.3-0.3l-1.2-1.9l-0.8-0.3l-3.8,1.6l-0.6-0.6l-2,0.6l-0.5,1.4l-1.6-0.7
		l-0.5,1.1l-0.6-0.7l-2.9,1.3l-0.9-1.4l-0.6,0.2l-0.4-0.8l-1.3-0.6l2-1l0.9-1.8l-0.1-1l1.8-1l0.4-0.9l1.1,0.1l1-0.6l-0.6-0.7
		l0.7-1.5l-2.6-1.9l-1.9,1.4l-3.3,0.1l-1.1,0.8l0.1-1.5l-0.9-1.3l0,0l-0.3-0.3l0.6-1.1l-1-2.3l1.5-2.8l-0.2-1.3l0.4-0.8l0.7,0.1
		l1.7-1.1l-0.8-0.8l-1.1,0.6l-0.6-0.3l-1.2,0.3l1.2-2v-1l0.7-0.4l0.5-2.5l-2.7-0.4l-0.6-0.6l-0.4-2.3l1.1-2.1l-2-2.1l1.3-2.6
		l0.1-1.4l-2.2,0.7l-1-0.2l-0.3-1.7l0.5-0.6l-0.6-0.4l0.4-1.4l1.9-2.4l-0.4-1.2l0.4-0.8l1.2-1l0.8,0.2l1.5-0.8l-0.5-1.8l1.2-0.1
		l2.1-2.1v-0.9l-1-0.6l0.5-0.7l-1.6-0.9l0.6-0.8l0.3-3.1l-1-0.3l-0.8-1.6l-0.5,0.1l-0.2-1.4l0,0l1.5-2.4l2.3-0.4l0.2-1.7l3.1,0.4
		l2-1.1l1,0.5l1.7-0.4l0.7-1.1l-0.6,0.3l-0.3-0.5l0.4-0.7l0.7,0.4l-0.5-0.3l0.7-0.5l2,0.8l0.2-1.1l-0.5-0.1l-0.4-1.1l2,0.3l0.3,0.5
		l2.3-1.7l0.5-1.4l2.1-0.2l3.2,1.9l1.5-0.4L268,841.4z"/>
	<path id="CN-21" class="st0" d="M338.7,693.7h-0.4v0.8l-1.2-0.2l-0.8,0.8l-1.2-2.1l-0.8-0.3l-0.9,0.7l-1-0.4l1-1.4l2-0.5l1.1,0.6
		l-0.3-1.7l-0.3,0.3l-0.5-0.9l0.5-0.6l-0.2-0.5l2.8-2l0.9,0.3l1.6-1.4l-1-0.7l2.2-1.7v-0.9l1.2-0.9l-0.2-1l1.4-1.1l0.1-1l1.7-1
		l-0.1-0.8h-0.7l-1.5-1.3l0.1-1.3l-2.7-1.6l-0.4-0.9l-0.8,0.1l-0.6-2.3l-1,1.9l-2.2,0.1l-0.9-0.8l-3.9-0.6l-1.3,1v0.7l-1.2-0.6
		l-0.4,0.9l0.5,0.2l-0.7,0.8l1,0.3l-2.2,0.7l-0.4,1.3l-1.6,1.1v0.9l-1,0.4l0.1,1.5l-1.2,0.6v1.2l-0.7,0.9l-1.8,0.2l-5.8,3.2l0,0
		v-0.9l-0.9,0.1l-0.4-2.4l-1.5-0.7l0.3-0.6l-0.7-1.2l-0.3-3.2l-3.8,0.1l-0.7-0.6l0.1-0.6h-1l0.3-1.5l-1.6,0.4l-2.6-2.2l0.6-2.7h1.2
		l0.4-0.7l-1.1-0.5l0.1-0.6l1.6-0.3l0.1-0.8l1.3-0.9l-0.2-0.6l0.9-0.6v-1l0,0l0.9-0.6l0.2,0.3l-0.3-1.2l1.2-1.2l-0.5-1.2l0.7-0.6
		l-0.7-0.3l-0.7-1.7l0.4-3.9l0,0l0.4-1.1l0,0l0.3-1.6l-1.8-2.1l0.6-0.9l2.2-1.1l0.5-0.9l1.3,2.2l1.8,0.8l1.2-0.1l-0.1,1.9l2.5,4.9
		l-0.2,1.6l0.9,0.4l2.5-4.2l2.3-1.3l-0.1-1.4l1.5-1.1l0.5,0.2l3.3-1.9l2,0.3l2.9-2.1l0.8-1.4l1.9-0.7l1.4-0.4l0.9,1.4l0.7-0.2
		l1.8-1.4l1-2.7l1.5-0.6l1.4,0.6l0.5-0.7l2.3,0.8l0.8-1.4l-1.1-0.2l-0.3-0.8l0.4-0.4l2.2,0.3l0.9,0.9l1.3-0.2l1.4,1l0.7-0.7l2.3-0.1
		l2.2-1l-0.7-0.4v-1.2l0.8-1.1l3-0.9l1.3,0.7l1.1-3.3l-0.2-1.1l0.6-0.4v-1.6l0,0v-0.2l0,0l1.2-2l2.8,3.6l0.8-0.1l0.4,0.8l1.2-0.1
		l0.8,0.6l0.1,1l1.6,1.4l-1,1.4l1.2,0.6l-0.8,1.2l1,0.5l0.2,0.7l2.4-2.5l0.5-1.6l2.5-1.2l-0.7,1.9l0.4,0.7l-0.1,3.1l1.4,0.1v2l0.6,1
		l1,0.1l-0.3,1.8l1.3,1.4l-0.1,1.9h1.1l0.4,0.5l0.2,2.5l0.7-0.6l1.5,0.6l-2.4,2.9l0.6,0.6l-0.6,1.5l0.7,1.4l-0.3,1.3l1.7,0.2
		l-0.1,1.2l1.1,2.1l-0.1,0.8l1.4,1.5l0.1,1.2l1.4,0.5l-0.2,0.9l0.7,0.2l-1.1,1.1l0.3,0.5l-0.8,1.6l-1.3,1.2l1.1-0.2l0.7,0.8l1-0.6
		l0.4,0.6l1.3-0.7l0,0l-1.4,0.8l-0.4-0.4l-0.8,0.5l-0.9,0.8l0.6,0.8h-1.6l-0.2,0.7l-1.6,0.9l0.1,0.6l-1.9-0.4l-0.4,0.7l-2.8,1.2
		l0.3,1.2l-1.4,0.1l-0.3-0.5l-2,1.8l-0.1,0.8l-1.6,0.8l-2.8,2.5l-0.7,1l0.5,1l-1.8,1.4l-0.8,1.6l-2,0.2l-0.5-0.6l-1.1,0.1l-0.1-0.5
		l-1.9,0.5l-1.4-0.3l-2.5,1.9l-0.1-1.4h-1.6l-0.5,1.2l0.5,0.8l-3.4,0.2l-0.5,0.9l-2,0.6l-0.7-0.3l0.3,0.6l-1.2,0.8l-0.3-0.6
		l-1.1,1.5l-2.3,0.3l-1.8,1.8v0.9l-1.6,1l0.3,1.1l-0.8,0.7l-0.6-0.2l0.4,1l-0.8-0.2l-0.5,0.7l-0.7-0.7l-1,0.5l0.9,0.7l-0.3,0.8
		l-1.4-1.4h-0.6l0.1,0.5l-0.7-0.4l-0.1,0.8l-1,0.5l1.7,0.7l-0.2,0.6l-1.4-0.2l-1.4,1l-3.1,0.2l-0.4,1.3l-0.8-0.1l-0.3-2l0.8-0.6
		l-1.1-0.1l0.1-0.6l0.6-0.4l1,0.4l1.5-0.7l-0.2-0.6l0.6-0.8l0.9,0.7l2.8-1.1l0.3-0.9l-1.3-1l1-0.5l-1-0.7h1.7l0.3-1.3h1.5l1.1-0.7
		l-0.3-0.7l-0.5,0.2l0.2,0.5l-1.8,0.2L338.7,693.7z"/>
	<path id="CN-92" class="st0" d="M235.6,948.6l0.4,0.5l-0.4,0.3V948.6z"/>
	<path id="CN-15" class="st0" d="M335.7,438.4l2.2,1.8l-0.2,1.4l1.2,0.7l0.8,1.8l-2.7,3.6l-0.1,1.1l-5.2,5l1.7,0.5l2.5,2.4l1.6,0.3
		l0.8,2.6l1.5,0.7l1.4-0.3l2.8-4.5l0.5,0.9l1.3-0.1l1.2,2l0.5-0.3l0.4,2l3.9,0.9l-0.6,2l-1.3,0.4l-0.1,1.4l0.7,1.8h0.6l-0.2,1.8
		l0.8,2.3l-0.3,0.7l1.7,4.1l-0.4,1.3l1.4,1.7l0.5,1.6l0.9-0.2l2.8,1.4l4.7-1.4l0.7-1.6l1,0.8l0.6-0.1l1.1,1.3l3.8-1l1.5,1.6h0.7
		l0.4-1.7l0.7-0.5l1.1,0.2l0.7,0.9l1.2-0.4l0.5-0.9l1.3,0.1l0.8-1.3l-0.2-1l1.7-0.8l0.2-1.9l0.6-0.6l0.2,0.5l2.7,0.2l4.4,5.9l0.7,2
		l1.3,0.4l0.1,1.3l0.9,0.7l0.7-0.2l-0.2,0.8l1,1l-0.3,0.6l0.6,0.7l-1,1.9l-0.5-0.5l-0.1,0.8h-0.8l0.3,0.5l-1.2,0.9l0.2,0.6l-0.7-0.3
		l-0.4,0.4l0.9,1l-0.5,0.5l0.5,2.6l-1.9,1l0.3,0.3l-0.6,1l-0.9,0.1l0.2,0.8l-0.8-0.1l0.5,1l-0.3,0.9l-0.8,0.3l0.1,1.3l-1.7,1.2
		l0.5,0.5l-1.2,0.2l-0.1,1l0.8,0.4l-1.1,0.2l0.5,0.9l-1.4,0.9l0.8,1.7l-0.2,0.7l-0.6,0.1l0.6,0.6l-0.1,2.6l-0.3,0.7l-0.5-0.9
		l-0.4,0.6l1.3,1v1.1h-0.4l0.8,1.6l-0.6,5.1l-1.3,1.2l-1-1l-1.8-0.1l-1.2,1.3l0.2,1.3l-0.9,2.4h-0.5l-0.1,1.5l-0.6,0.3l-0.5,1.4
		l-0.2,2.2l-1,1.6l0.4,1.6l-0.5,1.7l0.8,1.4l-0.9,3.3l-1.1,0.7l0.7-1.5l-0.8-0.5l0.2-1l-0.9-0.8l-0.5-1.5l0.1-2.3l-0.6-0.9l-3.4,2.9
		l-5.3,6.3l-3.4,1.5l-1.6,3.1l-7.7,5l-0.9,2.4l-1.3,1.2l2.7,4.1l3,1.3l-1,1.4l0.3,0.7l1.2-0.3v2.6l1.5,1.8l1.9-0.5l0.7-1.9l1.9-0.3
		l0.2-1.3l-0.8-0.6v-0.8l1.2,1.1l1.5-0.1l-0.7,1.9l0.3,0.5h0.7l0.2-1.2l0.4,0.1l0.2,0.9l-0.5,0.4l0.7,0.3l-0.5,2.2l-4.1,0.5
		l-0.7,1.3l-2.2-0.5v0.7l-0.6,0.2l0.2,2.8l2,3.1l0,0l-0.9,1.4l0.1,0.7l-0.9,0.7l-3.3,0.5l0.5,3.5l-0.2,1.7l-1.1,1.6l-2.2-1.5
		l-1.5-2.5h-0.6l-0.1,0.7l-1.5,1.2l-2-1.4l-1.2-2l-0.5,0.2l-1.5-0.8l-0.8,0.5l0.6,1.3l-1,2.4l-1.5,0.7l1.2,1.3l1.6-0.6l1.5,0.4
		l0.4,1l-0.4,1.4l0.7,1.4l1.7,0.9l-0.2,2.4l1.2,0.6v0.8l-1.5,1.2l-0.4,4.3l-0.7,0.3l0.9,2l0.8,0.1l-1.1,0.5l0.5,0.4l-0.1,2.6
		l1.2,0.6l0.3,1.3l0.8,0.1l-0.3,3.6l2.7,0.5l4.9-2.9l1.9-1.8l1.5-0.3l-0.1,2.7l1,0.6l1.1,2.5l1,0.5l-0.7,1.6l1.9,3.7l-0.2,1.8l1,2.2
		l-0.4,0.5l-1.2-0.1l0.2,0.9l-1.3-0.2l-0.1,1.1l1.4,1.3l0.6-0.8l1.4,1.7h1.4l0,0v0.1l0,0v1.6l-0.6,0.4l0.2,1.1l-1.1,3.3l-1.3-0.7
		l-3,0.9l-0.8,1.1v1.2l0.7,0.4l-2.2,1l-2.3,0.1l-0.7,0.7l-1.4-1l-1.3,0.2l-0.5-1l-2.2-0.3l-0.4,0.4l0.3,0.8l1.1,0.2L347,640
		l-2.3-0.8l-0.5,0.7l-1.4-0.6l-1.5,0.6l-1,2.7l-1.8,1.4l-0.7,0.2l-0.9-1.4l-1.4,0.4l-1.9,0.7l-0.8,1.4l-2.9,2.1l-2-0.3l-3.3,1.9
		l-0.5-0.2l-1.5,1.1l0.1,1.4l-2.3,1.3l-2.5,4.2l-0.9-0.4l0.2-1.6l-2.5-4.9l0.1-1.9l-1.2,0.1l-1.8-0.8l-1.3-2.2L310,646l-2.2,1.1
		l-0.6,0.9l1.8,2.1l-0.3,1.6l0,0l-0.4,1.1l0,0l-0.4,3.9l0.7,1.7l0.7,0.3l-0.7,0.6l0.5,1.2l-1.2,1.2l0.3,1.2l-0.2-0.3l-0.9,0.6l0,0
		l-0.5,0.5l-3.2-0.6l-0.7,0.3l-0.6-1.2L301,663l-2.9-0.5l-2.1,0.6l-0.2-1.8l-1-0.8l0.6-0.6V659l-1.2-0.4L293,656l0.5-1.2l1.4,0.8
		l0.7-1.4l-0.9-1.2l0.6-1l-0.9-0.7l0.6-0.2l-0.3-0.8l-0.6,0.1l-0.2,0.8l-1.1-0.1l0.5-0.8l-0.8-0.5l0.2-1.1l-1.7-1.2l1.2-0.9
		l-0.6-0.8l0.1-0.8l-2.8-3.7l-2.5,0.8l-0.7-0.8l-0.2,0.4h-0.8l-0.1,1l-1.1,1.1l-3.6-0.4l-2.2,1.3l-0.1,3.6H276l1.2,1.5l-0.1,1.6
		l-1.7,0.6l-0.2,0.8l-2.2,0.1l-0.7-0.9l-1.3,0.6l0.2-0.9l-1-0.2l-1.4,1.2l-0.3,1.1l-1.1,0.2l-0.1,1.1l-0.7,0.2l-0.7-0.1l-0.9-2.7
		l-1.2,0.1l-2.3,1.9l-4,2l-0.3,0.6l0.7,1l-0.8,0.3l-0.3-0.5l-0.5,0.8l-1.6-0.9l-3.2,0.6l0.5-1.6l-0.4-1.8l0.9-0.5l-0.6-2.8l-1-0.9
		l0.6-1.2l-0.6-0.7l-0.8,1l-2.4-0.5l-0.8,0.4l-0.1,2.4l-2,0.8l-1.6,2.1l0.5,4.9l-2.8-0.2l-2,1.4l0.9,0.9l-0.2,1.6l1.2,0.9l-0.4,0.9
		l-0.9,0.2l-1.2,1.2l1.9,1.9l1.3,2.1l-0.4,0.5l1.2,1.5l0,0l0,0l0,0l-0.9,0.4l-0.1,3.1l-1.3,0.1l-1.2,1l-0.9-1l-3,2.8l-3.1,0.4
		l-0.8-1.5l-3.3,0.9l-1.2,0.5l-0.6,2l-1.2,0.6l-3.6-2.2l-1.9,0.8l-4.1,7.3l-0.6,3.1l-2.1,0.4l-1.4-0.8l-2.7-0.1l-0.1,2.1l-1,1.4
		l-2.4,0.2l-0.3,0.8l0,0l-0.5,0.1l-0.5-0.9l1.1-2.1l-0.2-0.6l-3.2,1.4l-2,3.4l-1.2,0.6l-1.2-2.2l-1.3,0.4l-0.4,0.8l-1.8-2.1
		l-1.2-0.3l-0.2,1l1.1,1.9l-3.3,1.6l-1.1,1.5l-1.9,0.5l-0.5,2.2l-1.4,1.9l-0.7-0.3l-1.1,0.4l-0.3,1.5l-0.9,0.1l0.2,1.4l-0.9-0.1
		l-1.4,1.1l-0.3,1.3l-1,0.6l-1,1.7l-0.5,2.5l1.5,1.5v0.9l-1.4,1.8l-1.2-1.5h-0.7l0.4,0.5l-0.6,0.7v4.1l-2.6,0.5v-0.5l-0.6-0.1
		l-2,0.3l-0.6,0.6l-0.8-0.5l-1.5,0.8l-1.5-0.8l-0.6-2l-4-1.3l0,0l-3.1-1.2l0.2-0.8l-1.3-1.5l-2-1.1l-2.1,0.6l-2.5-0.6l-4-2.6
		l2.3-3.6l0.4-3l3.4-4.2l-0.2-1.2l-1.4-0.5l-0.7-4.4h-2.4l-1.3,1.1l-2.5,0.3v2l-1.8-0.1l-0.8,2.8l-1.4,1.2l0.2,0.7l-1,1.3l-0.7,2.4
		l-0.3,3.5l0.5,2.3l-1,1.1l-0.2,1.1l0.9,2.1l-1,3.3l-1.5,0.3l-0.5,1.3l-2.5-0.2l-2.2,0.5l-2.9,2.1l-3.5,0.6l-1.7-0.5L120,725
		l-0.2,0.8l-1.5,0.6l0,0l-1.3,0.3l-6.4-6l-3.3-1l-0.6-3.9l2.3-1l-0.8-2.8l-0.9-1.3l5.9-3.8l2-4l1.8-0.8l0.4-2.5l-1.9-3.3l0.5-2
		l-1.9-0.8l-1.3,0.1l-6,1.8l-4.5,4l-5-1.3l-1.9-1.2l-3.4,1.6l-4.9,1.1l3.4,3.3l-2.7,2.8l-0.1,0.7l-1,0.2l-1.3-0.5l-0.8,0.5l-1.1-1
		l-2.6-0.9v-1.1l-1.1-0.4l-0.9-1.3l0.5-1.1l-2.6,1.1l-1-1.5l-1.1,0.6l-0.1-6.3h-4.4v-1.3l-2.3-0.6L67,690l-3-0.9l-3.1-2.4L57,687
		l2.1-3.1l3.6-2.4l1.4-3.1l2.8-3.4l-0.2-2l-1.7-2.7l-5.3-0.8l-1.4,1.4l-4.9-0.3l-3.9,1.9l-2.8,3.5l-5,0.3l1.4-5.2l-0.2-0.8l-4.4-3.7
		l-0.4,0.2l-4.6-6.1l2.9-3.4l-8.3-18.9l0,0l13.4,2.3l15.8,1.2l6.3-1.3l3.6,0.3l0.5-0.9l7.4,0.6l11.4,2.9l3.1,4.3L94,649l4.1,0.1
		l7.4,3.8l6.8,1.7l8.6-1.3l-0.1,3.7l5.2,0.3l1.1,1.3l2.9-2.9l6.8-3.7l11.1-5.1l7.4-1.7l0.4-0.9l2-0.9l0.9-0.1l0.4,0.7l4.5,0.2
		l4.1-0.9l0.7,0.4l3-0.3l3.6,1.2l2-1.2l3.8,0.6l3.5-0.8l3.6-2.6l4-0.2l2.3-1.5l1.5-1.2v-1.1l2.1-1.2l1-2.2l4.3-4.9l4.8-2.2l1.9-0.3
		l2.4-3.6l2.5-0.6l0.6-0.7v-0.9l-1.9-3l-2.8-1.3l-3.1-5l2.2-6.6l2.3-4.2l1.9-2l6.7,0.2l4.1,3.3l2,0.2l2.8,1.2l4.3,0.1l2,0.9l5.4-3.7
		l4.2-3.8l1.4-2.2l0.3-1.6l1.7-1l1.4-0.4l3.1,0.9v0.7l9.1-1.3l2.7-3.1l1.7-1.1l2-0.5l0.8-2.2l-0.3-2.2l4.1-6.1l2.3-0.5l1.2-1.2
		l1.5,0.6h4.8l0.9-4.2l2-0.1l0.9,1.3l1.8-0.1l0.8-1.1l4.8-2.9l0.2-0.9l2.3,0.1l0.8-0.5l1,0.8l1-0.8l1.7,0.4l2.2-0.7l-0.1,0.6
		l1.5,0.1l0.4,1.1l1.1-0.2l2.4,1.9l0.7,1.3l-0.7,0.4l-0.2,1.1l1.6,1l1.1-2.4l2.2-1.3l1.9-2.4l-1.5-3.1l-0.2-2.1l0.6,0.1l0.1-1.7
		l-1.8-1.3l0.8-0.5l0.6,1.2l0.7-0.1l-0.5-1.8l-1.5-1.2l-3-0.3l-1.9-1.8l-0.1-2.1l-1.4,0.5l-0.7-0.4l-0.3-3.1l-4.4-1.9l-3.8-3.6h-2.8
		l-0.8-0.6l-1,0.2l0.1-0.3l-3.5,0.2l-4.7,5.2l-1.2,2.1l-3.4-3.2l-3.8-1.7l-2,0.2l-1.9,0.9l-3.6-0.4l-3.5,3.6l-6-6l1.2-0.1l-0.5-3.4
		l4-1.7v-4.9l3.7-5l-0.7-1.7l8.1-18.5l3.1,2.3l4.1,1.7l2.6,0.1l4.8,2.4l3.2-3h0.6l1-1.4l1.8-0.8l0.1-0.9l1-0.2l1.2-1.8l8-1.7
		l1.3-1.7l0.8-1.6l-0.6-2l0.7-0.8l-0.3-0.6h-2.1l-0.8-0.8l0.5-0.7l0.6,0.2l0.9-3.8l2.6-2.7l0.4-3.3l2.9-3.7l0.2-2.6h0.6v-1.3
		l1.5-1.5l-0.3-0.6l1.1-1.4l-0.2-0.8l0.9-1.2l0.6-2.5l1-0.1l3.5-3.3l0.2-0.8l0.8,0.1l0.2-0.7l1.1-0.3l0.8-1.4l-0.4-0.9l0.8-0.7
		l0.5-1.6l-0.5-1l0.2-0.9l-1.7-1.3l-0.1-0.6l1.4-4.1l-3.4-2l-2.3,0.5l-1.1,0.9l-1.5-0.1l-0.5-1l0.4-1.5l-0.4-1.4l3.2-2l3.1-4.3
		l1.1-0.6l0.8-1.6l1.8-1.4l0.1-0.7l3-0.6l0.7,0.6l1.2-0.2l1.3-0.9L335.7,438.4z"/>
	<path id="CN-64" class="st0" d="M118.2,726.4l1.5-0.6l0.2-0.8l2.1-0.4l1.7,0.5l3.4-0.6l2.9-2.1l2.2-0.5l2.5,0.2l0.5-1.2l1.5-0.3
		l1-3.3l-0.9-2.1l0.2-1.1l1-1.1l-0.5-2.3l0.3-3.5l0.7-2.4l1-1.3l-0.2-0.7l1.4-1.2l0.8-2.8l1.8,0.1v-2.1l2.5-0.3l1.5-1.2h2.3l0.7,4.4
		l1.4,0.5l0.2,1.2l-3.4,4.2l-0.4,3l-2.3,3.6l4,2.6l2.5,0.6l2.1-0.6l2,1.1l1.3,1.5l-0.2,0.8l3.1,1.2l0,0l-0.3,1.5l-1.6,0.3l-0.3,1.1
		l-1.2,0.1v0.6l-1,0.6l0.8,0.9l-1,1.2l-0.3,1.8l0.6,2.1l-0.4,0.1l0.7,0.9l-0.4,1l-0.4-0.4v0.8l0,0l-1.4-1.1l-1.9,0.6L151,731
		l-0.1,0.7l-1.4-0.8l-0.4,1l-1.8-0.7l0.4,2.7l-0.7,0.3l-0.5-0.6l0.7,1.3l0.6,0.1v2.6L147,737l-0.8,0.3l-1,1.7l0.2,0.9l-1.2-0.1
		l2,1.4l-0.3,3.2l0.7,0.2l0.2-0.6l2.4,1.2l0.8-0.2l1.1,1.7l0.4-0.2v2.2l-0.7,0.6l0.5,0.3l-1.1,0.7l1,1.3l-1.4,1.4l-0.8-0.2l-0.2,0.7
		l-2.5-1l-1.3,0.8l0.8,5.2l-1.7,1.9l-1.4-1.6l-0.2-1.1l-0.8-0.4l-0.8,1.2l-0.7-1.1l0.3-0.5l-2.2,0.7v-0.8l1.9-0.4l-0.1,0.5l0.5-0.7
		l-2.5-0.8l-0.6,0.9l-0.3-1.2l-1.6-1.8l0.7-0.7l-1.3-0.1l-1,0.9l-0.2-0.6l-1.3-0.4l-0.4-1l-0.6,0.2l0.3-0.8l-0.8-0.5l-0.1-1.9
		l1.2-1.3h0.8l0.2-0.7l-0.4-2.3l-0.9-1.1l-0.7-2.3l-1.3-0.5l0.2-0.5l-0.8-2.2l1.6-1.2l-0.7-1.2l-1.1-0.3l-0.2-1.6l-1.8-0.7l-1.6-2.7
		l-0.8-0.5l-1,0.8l-1-0.4l-0.4-0.8l1.5-1l-0.5-0.4l0.8-0.9L118.2,726.4z"/>
	<path id="CN-63" class="st0" d="M-24.9,698.5l1.1,0.3l5-1.2l0.7-1.1l2.6,0.6l1.7-0.5l0.5,0.4l1.6-0.1l3.2-1.2l0.3,0.5h4.4l1.3,1.1
		h2.4l3,1.1l1.7-0.4l1.6,2.1l1.9,0.9l1.5,2.1l0.9,0.4l0.1-0.4l1.6,1.7l1.8,0.4l0.6,1.5l0.6-0.4l1.1,0.9l1.2-0.3l2.6,1.6l0.2,1.4
		l5.3,1.7l0.4-4l-0.7-0.5v-0.9l0.6-0.4l0.1-2.4l-0.4-0.5l0.5-2.8l-0.7-0.8l1-1.6l4,0.6l4.2,2.5l0.3,0.8l4,1.7l0.9,1l2.3-2.6l0.2-1.3
		l1.2,0.1l0.9,1.2L46,702l2.3-2.4H49l2.2,2l0.3-0.4l1.1,0.5l-0.5,0.9l3.7,2.9l1.1,1.8l0.8-0.1l0.3,1.1l1.9,1.8l6.3,3.5l-0.2-1.8
		l-1-1.3l0.4-1.3l1.3,0.6l1.4,2.2l3.3,1.2l0.5,2.3l5.9,2.5l1.3,1.5l6.6,4.2l0.5,1l1,0.2l0.4-2.5L89,721l0.3,2.5l1,0.6l-0.8,1.6
		l2.5,0.8l1.8,1.5l0.2,0.8l0.9-0.1l2,1.9l-1.3,1.2l-0.4,1.8l3.4,3.3l-1.6,1l0.5,0.9l1.1,0.5l1.4,4.3l2.9,2.1l-0.9,0.2l-1.4,1.7
		l1.1,0.7l-0.2,3.2l-2.1-0.4l-1.2,0.9l0.9,2.8l-0.5,1.4l-2.3-0.6l-1.4,2.1h-1.7l0.2,1.4l-0.4,0.5l0.9,0.4l0.6,1.7l-0.7,0.2l-0.7,1.6
		l-1.9,0.6l-2.7,2.1v2.1l-0.9-0.5l-1.6,1.1l1.4,1.2l1.1-0.7l0.2,1.3l2.8,1.3l1.2,2.3h-0.9l-0.5,1.4l-1-0.3l-1.5,2.7l-1.2-0.7
		l-1.4,1.1l-1.1-0.7l-0.4-1l-3.8-1l-0.8-0.8l-2.6-0.4l-0.9-0.8l-1.1-0.1l-1,0.9l-0.7,2.1l2.8,4.2l2.1,0.9l0.5,0.8l-0.3,2l0.9-0.4
		l2,0.5l0.4-0.7l0.9-0.1l1.1,0.5l0.5,2.6H86l0.5-0.7l0,0v1.4l-0.8,0.1L85,789l-0.1,0.6l1.1,0.7l-1.1,2.5l-2.2-1.7l-1,0.1l-0.1,1.1
		l-0.6-0.9l-2.3,0.9l-0.5,3.6l1.5,1.3l-0.5,2.1l-1,0.8v-0.6l-0.6-0.1l-1.7,1.1l-3.2-1.1l0.5,1l-0.7-0.1l0.1,1.5l-1.9,1.7l-0.9-1
		l1.5-1.3l-1.3-2l-0.9-0.9l-0.8,0.5l-1-0.3l-0.6,2.1l-1.2-0.5l-0.4-0.5l0.6-0.9l-0.3-1.9l-1-0.6v-0.7h-0.8l-0.9-1.7l-0.4,1.8
		l-1.2-0.1l0.3,1.1l-0.6,2.3L56,796l-1.1,0.3l-1-2.2l-4.2-1.8l-0.5-1.6l-0.6-0.3l0.3-1.2l-0.6-0.8l0.1-1l-1.1-0.9l-0.4-1.2l0.5-0.4
		l-2.5-3l-0.7-0.3l-1.9,0.4v-1l-3-0.6l-3.2,1.3l-0.3-0.4l0.5-1.2l-1.5-0.6l-0.4,1.4l-3.1,0.4l-0.2,0.9l0.7,2.2l-0.3,1l1.4,0.6
		l0.5,1.8l2.7,0.7l-1.8,1.1l-0.3,1.3l-1.4,1.4l0.7,1.8l-0.5,0.3l0.2,0.5l-1.6,0.4l-0.4,0.8l0.9,3.1l3.8,2.6l0,0l-0.7,0.8l-3.8-0.8
		l-0.4,1.2l1,1.4l-0.7,0.2l0.7,0.4l-1.6,0.4l-0.3,1.5l0.6,1.5l-1.1-0.4l0.2,0.8l-0.9,0.4l-2.7-0.5l0.1,1l-0.8-0.3l-0.5,0.6l-1.7-0.7
		l1.1,2l-0.6,0.6l1,1.9l-0.4,0.8l-0.9-0.1l-0.7-0.8l-1.7,0.1l-1.3-0.9l-1.6-2.3l-1.6,0.7l0.2,0.6h-0.7l-0.2,0.6l1.1,0.9l0.4,1
		l-0.4,1.2l0.5,0.2l-0.7,0.7l-1.2-2.5l-2.9-0.1l-0.6,0.6l-0.8-1.2L9.5,813l-1.4,0.5l-1.9-3.1l0.9-0.7l-0.4-0.5l0.5-0.4L7,807.5
		l-1-0.2l-0.6-1.2l-2.9,0.1l-0.8-1l-1.4-0.6l0.4-0.5L0.2,803l-1-0.3l-0.7-0.7l0.3-0.3l-2.1-1.8l-2.1,1.6l-0.7-0.5l-0.4,1.2l-2,0.1
		l-0.9,1.2l-1-0.5l-0.6,0.4l-0.6-0.6l-1.3,0.2l-0.6-1.2l-1.1-0.4l-0.9,0.1l-1.7,1.4l-0.8-1.2l-1,0.4l-1.7-2l-2.3,0.5l-0.6-1.7
		l-1.8,0.7l-2.3-1l-0.6,0.7l-2.4-0.6l-2.4,0.7l-0.8-0.5l0.3-1.3l-1.1-0.7l-2.2,1l-1.6-1.9l-2-0.7l-2.6-1.8l-1.3-2l0.5-0.6l-0.3-0.5
		l-2.1-0.1l-0.7,1.3h-2.3l-1.8,2l-1.7-0.5l-2.6-1.9l-1.5-0.1l-1.7-2l-0.1-1.5l-3.1-1.9l0.3-0.9l-1.2-0.7l0.2-1l-1.7-1l-1.9-2.8
		l0.6-1.1l1.5-0.6l0.2-2l0.5-0.6l-0.9-1l-0.1-3.4l-0.7-0.3l-0.2-1.2l1.8-1.4l-0.8-1.5l-2.7,0.3v-3.3l-0.9-0.3l-0.8-1.5l1-0.8
		l-0.4-0.1v-1.2l2.4-0.9l0.9-0.9l-0.8-1l0.8-0.7l-0.5-1l0.9-3.1l-3.4-0.2l-1.4-0.9l-0.2-1.2l0.3-0.7l0.9,0.2l2.9-0.9l0,0l2.8,0.1
		l0.7-3.1l1.6,0.5l-0.1,0.5l1.3,0.7l5.7,0.5l2.1,1.7l1.1-0.3l0.6-1l1.6,0.2l-0.1-1.9l-0.7-0.7l0.4-0.6l-0.6-0.5l0.1-3.2l-3.8-0.9
		l-0.3-1.5l0.5-0.7l-0.4-1l1.7-2l2.1-0.1l2-1.6h1.7l-0.4-1.9l-1.2-0.9l-1.3-4.1L-50,726l-1.8-2.5l-4.7-2.3l0.3-0.4l-0.5-1.2l1-1.1
		l-4.2-6.9v-0.8l3.4-1l0.4-1l1.9-0.7l0.2-1.2l1.8,0.2l4.4-0.8l4.1-1.6l5.4-1.1l2.5-1.2l4.1-0.7l1.4-1.7L-24.9,698.5z"/>
	<path id="CN-61" class="st0" d="M160.9,719.3l4,1.3l0.6,2l1.5,0.8l1.5-0.8l0.8,0.5l0.6-0.6l2-0.3l0.6,0.1v0.6l2.6-0.5v-4.1l0.6-0.7
		l-0.4-0.5h0.7l1.2,1.5l1.4-1.8v-0.9l-1.5-1.5l0.5-2.5l1-1.7l1-0.6l0.3-1.2l1.4-1.1l0.9,0.1L182,706l0.9-0.1l0.3-1.5l1.1-0.4
		l0.7,0.3l1.4-1.9l0.5-2.2l1.9-0.5l1.2-1.5l3.3-1.6l-1.1-1.9l0.2-1l1.2,0.3l1.8,2.1l0.4-0.8l1.3-0.4l1.2,2.2l1.2-0.6l2-3.4l3.2-1.4
		l0.2,0.6l-1.1,2.1l0.5,0.9l0.5-0.1l0,0l1.4,1.1l-0.5,0.4l-1.1,3.6l-1.8,1.2l0.5,1.6l-1.6,3.7l0.4,1.1l-0.6,1.9l-1.2,0.2l-1.6,2.3
		h-1l-0.2,1.3l-0.7,0.6l0.1,3.5l3,3.3l-0.6,0.7l1.2,0.9l-0.5,0.2l0.4,1.4l-0.5,1.5l-1.3,0.5l-0.1,1l0.9,0.4l-0.2,1l-2,2.8l-1.4,1.1
		l0.5,0.4l-1-0.1l0.7,0.8l-0.6,1.4l0.6,0.2v0.9l-0.5,0.5l0.9,0.6l-0.2,0.7l-0.6,0.1l1.4,1.5l-0.7,6.5l2.1,8.3l-4.3,10.2l0.1,2.8
		l-0.5,1.4l0.6,1.2l1.1,0.2l0,0l0.2,0.6l-0.5,0.8l0.8,1.5l0.6-0.1l0.2,1.2l-0.9,0.7l0.2,0.6l2.5,1.2l-0.7,2l1.1,1.2l-1,0.8l0.1,0.6
		l2.1,0.9l0.7,1.9l2.2,1.5l0.3,3.5l-0.6,1.2l0,0l-0.7,1.3h-1l-0.2,0.9l-0.9,0.1l-0.4,0.8l-0.7-0.9h-0.7l-0.5-1.5l-1.7,1.2l-2.4,0.2
		l-0.9-0.8l-1.7,0.3l-2.3-0.8l-1.7,0.2l-1-0.6l-0.4,0.6h-1.2l-0.9,1.2l4.4,1.2l-0.3,2.4l0.4,0.4l0.9-0.5l2,0.6l1.5,1l0.2,1.8
		l0.7,0.9l-0.5,0.6l-0.9-0.3l-0.9,1l-1.4-0.7h-3.7l0.2,0.8l-1.4,1.6l-0.4,2l1.4,1.4l0.2,1.5l-0.4,1.1l0.6,1.2l-0.6,0.6l0.7,1.3
		l-0.7,1.2l0,0l-3.7,0.2l-0.2-1.3l-1-0.3l-2-2.1l-1.9-0.4l-1.8-1.7h-1l-1.9-1.5l0,0l-0.5-0.9l-1.9,0.5l-1.1-0.6l-0.6,0.8l-2.1,0.1
		l-0.6,1.1l-1.6-0.9l-2.4-2.9l-1.7,0.3l-0.9-0.5l-0.3-1.7l-0.6-0.1l-1.4,2l-0.5-0.1l-1.8-1.7l0.2-1.8l-1-1.1l-3,0.5v-0.7h-0.5
		l-4.1,1.8l-0.9-0.8l-2.9-0.9l-0.6-0.6l0.4-0.7l-0.6-0.8l-0.5,0.6l-2.3,0.1l-0.4,1.1l-0.5-0.3l-2,1l-1.2-3.1l0,0l1.8,0.4l2.8-0.9
		l0.7-0.8l0.2-2.2l-0.4-0.1l0.5-0.7l0.4,0.7v-0.9l-2.1-0.8l-1.1-1.8h1.5l0.2-1.7l1.5-1.7h1.8l0.1,0.6l1,0.3l1.3-0.8l1.8-0.3l0.3,1.3
		l0.9,0.5l0.8-1.2l-0.6-1.6l-0.7-0.2l-0.3-1.3l0.4-0.8l-0.9-0.7l1-3.2l1.1-0.5l-0.5-1.6l-0.7-0.2l0.4-0.6l1.9,0.7l0.6-1.9l-0.9-0.3
		l-0.9-1.5l-1.3-0.6l-1.6,0.1l-0.4-0.9l1.9-0.9l-0.2-0.9l1.3-0.9l0.2-1l-1-2.9l0.8-1.3l4.7-0.1l2.1,1.1l0.1,0.8l1,0.5l0.4,0.8
		l1.2-0.8l3,0.4l0.5-0.9l0.9,0.7l2.1-0.4l0.7-0.6l-2.6-3.8l0.8-0.1l0.2-0.8l2.9,1l2.7-1l0.8,0.7l1.3-0.7l1.8,0.4l1.5-0.9l0.2-3.2
		l-1.2-1.4l-0.3-3.7l1-1h0.9l0.5-1.1l0.3-1.8l-0.8-1.9l0.8-1.7l-2.5-1.7l-1,0.6l-1.1-1.9l-1.7-0.2v-1l-0.8,1.1l-1.4-0.6l-0.6-0.6
		l0.2-0.7l-0.8,0.4l-0.6-1.6l-2.8-1.1l-1.8,0.1l-0.7-1.2l-2.2-0.2l-0.4-2.6l0,0v-0.8l0.4,0.4l0.4-1L157,730l0.4-0.1l-0.6-2.1
		l0.3-1.8l1-1.2l-0.8-0.9l1-0.6v-0.6l1.2-0.1l0.3-1.1l1.6-0.3L160.9,719.3z"/>
	<path id="CN-51" class="st0" d="M86.6,786.4l0.3-1.1l0.5,0.1l1.3,2.5l-0.9,2l-1.3,0.9l0.8,0.8l-0.2,1.2l0.6,0.2l1.4-1.4l1.1,0.1
		l0.5-1.1l1.2,0.7l0.2-1.3l-0.5-0.4l1-1.3l1.2,0.4l1.5-1.1l-0.4-1.7l-1.4-0.6v-1.7l-0.6,0.3l0.3-0.7l-1-0.4l0.2-0.9l-0.9-1.5
		l1.1-0.6l1.5,0.3l0.5-1.8l2.9,0.1l-0.6-1.2l1.1-0.6l0.5-1l1.4-0.1l0.6-0.6l0.7,0.3l0.4,1.5l1.6,0.3l0.8,1.3l-0.6,0.5l0.4,0.8
		l-0.5,0.6l0.8,0.9l-0.4,1.4l2.5,1l1-0.1l0.9-0.9v2l1.1-0.5l2.3,0.8l3.5-0.4l1.6,1.2l-0.2,1l0.8,2.1l1,1l1.7,0.2l-0.4,0.5l-1.2-0.3
		l0.9,2.9l-0.5,1l1.1,0.4l-0.8,1.1h-1l0.2,1.6l3.4,1.5l0.8,1l0.8-0.2l0.5,0.5l1.2-0.4l0.7,1l2-0.7l0.9,0.8l4.3-2.2l-1-2l0.7-0.8
		l0.8,0.3l0,0l1.2,3.1l2-1l0.5,0.3l0.4-1.1l2.3-0.1l0.5-0.6l0.6,0.8l-0.4,0.7l0.6,0.6l2.9,0.9l0.9,0.8l4.1-1.8h0.5v0.7l3-0.5l1,1.1
		l-0.2,1.8l1.8,1.7l0.5,0.1l1.4-2l0.6,0.1l0.3,1.7l0.9,0.5l1.7-0.3l2.4,2.9l1.6,0.9l0.6-1.1l2.1-0.1l0.6-0.8l1.1,0.6l1.9-0.5
		l0.5,0.9l0,0l-1.8,0.3l0.9,1.8l-1.3-0.1l0.2,1.3l-1.3,0.3l1.1,1.6l2.3,1.5l0.1,1.3l-0.7,0.8l-0.6-0.1l-1.3,1.8l-1.7,0.2l0.4,0.5
		l-0.9,1.3l0.3,0.6l-2,1.2v0.4l0.8,0.2l-1,1.5l0.6,0.9l-1.4,1l-0.1,0.8l0.6,0.3L163,827l-1.4-0.1l-0.6-1l-1,1.1l-0.7-0.6l-0.9,0.2
		l-1.1,1.4l1.1,1.5l-3.5,6l-2,2.4l-0.7,0.3l-0.6-0.7l-0.6,0.7l-2.2,0.1l-1.7-2.8l0.3-0.7l-1-0.5l-1.5,0.1l-0.2,0.7l-1.6,0.2
		l-0.8,0.7l-1.2-1.9l-3.2-1.3l-0.6,0.2l-0.2-0.6l-1.1,1.1l-0.2,1.5l-1.4-0.3l0.4,1l-1.5,0.5l2.6,2.1l-0.2,2.5l-1.5,0.3l-0.6,1.5
		l-1.1,0.2l-0.1,0.6l-0.7-0.1l-0.9,1.3l-0.3-0.2l0.1,2.3l0.8-0.1l0.6,0.6l-0.2,0.9l0.5,0.8l2.5,0.5l0.5-0.5l0.3,2.7l1,2.3l1.3,0.5
		l1-1.1l0.8,0.4v0.6l2.1,0.2l1.5,3.7l-0.1,1.2l0.6,0.4l0,0v0.7l-0.7-0.2l-4.4-3.7l-1,1.4v0.8l-1.9-0.2l-1.5,1.8l0.2,2.4l1.1,0.6
		l0.6-0.9l0.5,0.4l0.9,0.9v1.7l0.9-0.2l1,0.5l0.2-0.5l1.4-0.3l1.2,1l0.1,1.1l0.8,0.6l0.2,2.1l-1.8,1l-1.5-0.4l-5.6,1.7l-1.9-1.7
		l-2.3,1l0,0l0.1-1.5l-0.7-0.2l-0.2-0.8l0.6-0.6l-0.2-1l-0.9,0.1l-0.1-1l-1.7-0.5l-0.9,0.5l-1.2,2.1l-3.8,0.9l-1-0.6l-2.5-2.3l1-0.2
		l0.7-0.9l0.2-0.9l-0.7-0.2l0.8-0.8l-0.8-0.3l-0.3-0.9l-1,0.2l-0.5-1l-0.1-1.9l1.4-0.4l0.8-1l-1.4,0.1l-0.8-0.7l-1.9,0.9l-1.9,0.1
		l-1.4-0.9l-0.8,2.1l1,3.1l-2,1.4l-1-0.8l-2.3,1.9l-0.1,1.4h0.6l0.2,0.9l0.7-0.1l-0.7,0.8l-0.2,1.5l-2.7,2.6l0.2,0.9H104l-1.1,2.1
		l-1.9,0.7l-0.6-0.6l-0.7,1.6l0.3,2.5l-0.5,1.3l2.4,6.9l-0.8,0.7l-0.1,1.9l-1.4-0.2l-2.6,2.2l-0.9-0.6l0.4-1.2l-0.9-0.4l-3.8,2
		l-2,2.1l-2.2-0.6l-1.1,0.9l-1.2-2.4l-0.6-0.4l-0.9,0.5l-0.4-1l0.8-0.4l-0.3-1.2l-3-2.2V887l0.9-0.1l0.3-0.9l-0.4-0.4l0.8-0.8
		l-0.8-0.3l0.1,0.7l-0.9,0.2l-0.3-2.3l-1.2-0.3v-0.7l-1.6-1l0.3-2.5l-1.5-0.2l0.1-0.9l-1.5-2.6h-0.7V873l-0.6-0.1l0.2-0.8l-0.7-0.1
		l-1-1.7l-0.3-1.6h-0.6l-1.1,1.5l-1.5-0.8l-1.3,2.1l-0.2-2l-1.7-0.6l0.2-0.7l-1.3-1.2l-0.7-1.6l0.1-0.5l1.7-0.5l0.1-1.5l-1.5-0.7
		l0.2-0.9l-1-0.6l-0.6-1.5l-0.7-0.3l-0.7,0.4V858l-1.1-0.7l-0.3-1.8l-1.2,0.5l-1.3,3.3l-1.8,0.7l0.5,3.7l-0.3,1.6l-1.1-0.8l-1.8-2.8
		l0.1-2.5l-0.9-3.1l0.1-6.4l0,0l-1.5-6.1l1-3.7l-0.4-2.2l-0.7-1.1l-1-7.8l0.7-1l-2.3-1.9l0.2-1.7l-2.5-2.7l0.4-2.2H47l1.2,1.2
		l1.3-1.8l-3.3-3.1l-2.6-3.6l0.2-2.7l-2.6-3.3l-0.4-1.9l-2.9-1.7l-3-0.8l0,0l-3.8-2.6l-0.9-3.1l0.4-0.8l1.6-0.4l-0.2-0.5l0.5-0.3
		l-0.7-1.8l1.4-1.4l0.3-1.3l1.8-1.1l-2.7-0.7l-0.5-1.8l-1.4-0.6l0.3-1l-0.7-2.2l0.2-0.9l3.1-0.4l0.4-1.4l1.5,0.6l-0.5,1.2l0.3,0.4
		l3.2-1.3l3,0.6v1l1.9-0.4l0.7,0.3l2.5,3l-0.5,0.4l0.4,1.2l1.1,0.9l-0.1,1l0.6,0.8l-0.3,1.2l0.6,0.3l0.5,1.6l4.2,1.8l1,2.2l1.1-0.3
		l4.8,2.9l0.6-2.3l-0.3-1.1l1.2,0.1l0.4-1.8l0.9,1.7h0.8v0.7l1,0.6l0.3,1.9l-0.6,0.9l0.4,0.5l1.2,0.5l0.6-2.1l1,0.3l0.8-0.5l0.9,0.9
		l1.3,2l-1.5,1.3l0.9,1l1.9-1.7l-0.1-1.5l0.7,0.1l-0.5-1l3.2,1.1l1.7-1.1l0.6,0.1v0.6l1-0.8l0.5-2.1l-1.5-1.3l0.5-3.6l2.3-0.9
		l0.6,0.9l0.1-1.1l1-0.1l2.2,1.7l1.1-2.5l-1.1-0.7l0.1-0.6l0.7-1.3l0.8-0.1L86.6,786.4z"/>
	<path id="CN-37" class="st0" d="M290,713.2l2.1,1.2l0.2,0.8l5.3,0.3l0.7,0.7l1.1-1.2l2.9-0.1l1.3,0.8l0.6,2.2l1.1,0.7v1.2l1.2,0.7
		l-0.2,0.5l1.2-0.8l0.1,0.4l-0.8,0.4l1.3,1.9l-2.4-0.9l-0.8,0.2l-1.5,2.5l0.5,3.9l1.9,1.3l0.3,1.2l0.1-0.5l0.6,0.7l0.8-0.1l-0.1,1.1
		l3.6-1l0.5,1.1l0.2-0.9l2-0.2l1.8-2l0.1-0.8l-0.8-1.1l3.1-1.1l2.6-2.2l0.3-1.2l-1.3-0.5l1.8-0.1l4.8-2.2l2.6,0.3l-0.2,0.6l0.9,1
		l1.7,0.1l-0.1,1.6l0.5,0.5h2l0.4-0.4l-0.3-0.4l1.1,0.5l-0.8,0.4l1.1,1.5l1.5,0.8h1.2l0.1-0.4l1.2,0.7l-0.1-0.6l2.2-0.3v0.8h0.6
		l-0.3-1l1.4-1.1h0.9l0.2,0.6l-0.5,0.2l0.6,1.2l0.9-0.5l1,0.9l2-0.4l-0.2,0.7l0.5,0.2l-0.1-0.5l1.7-0.3l1,0.4L349,728l0.4,0.3
		l-0.5-0.1v0.9l1,1.3l-0.8,0.2l0.2,0.6l-1.1-0.1l-1.1,2v0.4l1.6-0.3l-0.3,2.1H348l0.2-0.6l-0.9,0.1l-0.1,1l-0.8,0.4H344l0.3-1
		l-0.7-0.7l-1.3,0.7l-0.4-1l-0.6,0.1l-4.2,2.4l0.1,1.2l-0.5-0.6h-1.5l1.5-1.1l-1.4,0.5l0.1-0.5l-0.6,1.3l-3.6,1.3l-1.9,1.5l-1.1-0.1
		l-0.4-0.9h-0.5l-0.6,0.7l1.9,0.7v1.3l-0.7,0.4l-0.3,1.2l-0.9-1.5l-0.9,0.1l-0.7,1l0.5,1l-0.9-0.1l-0.2,0.8l0.5,0.2l0.4,2.2
		l-2.1,0.3l-2.6,1.1l-0.7-0.3l0.9-2.2l-0.5-0.5l-0.5,0.2l0.3,0.5l-1.7-0.2l-0.8,1.6l0.9,0.6l-0.1,0.5l0.8-0.5l-0.7,1.3l0.7-0.5v0.6
		l0.7-0.8l0.1,0.7l-1.5,1.2l0.4-0.9l-2,1.1l-0.5,2.4l-1.2-0.6l0.4,0.7l-0.9,1.6l-0.6-0.1l0.3-0.6l-0.4-0.2l-0.8,1.3l-0.3-1.2l-0.8,1
		l-0.6-0.1l-0.8,3.1l-2,2.1l-0.5,2.5h-0.9l0,0l-1.3-0.3l-1.1,0.9l-2.4-0.1l-0.7,0.5v1.3l-1.8,2.9l0.7,0.5l-1.1,0.7l-2.1-0.5
		l-1.2,1.6l-0.3,2.6l-2.5,0.8l-0.5-0.1l0.1-0.9l-0.5-0.5l0.5-1l-1.2-0.1l0.2-1.4l-1.8-0.4l-1.8,0.4l-0.1,2l-1.5-0.3l-1.5,1.2
		l-1.2-0.4l-1.4-1.5l-1.1,0.9l-0.2,1.1L281,773l-1-2.8l-0.8-0.2l0.3-0.8l-1.4-2.5l-2.4-1.1l-0.2,0.4l-1.8-0.3l-2.2,0.6l-0.6,2.2
		l-0.5,0.2l0.1,1.6l0,0l0,0l0,0l-1.7,1.4l-0.6-0.4l0,0l-0.7,0.3l-0.4-0.7l-0.8,0.2l-0.4-0.5l0.1,0l-1.8,0.4l-1.7-0.6l-0.3,0.6
		l-1.8-0.3l-1.2-1.4l-0.2-1.9l-1.7-1.1l-0.7,0.2l0.1-0.9l-0.7-0.2l0.2-0.6l-1.3-0.7l-2.5,0.5l-1.4-0.8l0.5-2.3l1.1-0.5l1.2-2.6
		l1.9-1.1l0.5,0.5l1.7-1.1l-0.3-1.4l0.5,0.2l1.6-2.5l2-0.2l0.8-1.6l2-0.3l-0.2-0.6l0.7-1l1.5,0.1l0.9-1.8l-0.1-0.5l-0.5,0.1
		l-0.7,0.8l-2.5,0.6l-3.3,1.8l-0.8-0.3v0.6l-1.6,1.5l-0.1-2.8l1.2-0.7l0.4-2.4l0,0l-0.1-1.4l-0.6-1l-0.8,0.2l-1-2.9l0.7-1.9l1.8-2.3
		l2.5-0.8l1.2-2.8l1.1-1.2l0.5-2l0.7-0.5l0.2-1.6l2.3-0.7l1,0.3l0.5-0.6l-0.7-0.4V726l0.6,0.1l0.7-1.8l1.4,1.6l4.5-5.7l8-0.3
		l1.8-3.5l1.6-0.1l2.1-2.9l0,0L290,713.2z"/>
	<path id="CN-31" class="st0" d="M347.8,827.8l1,0.9h-1.3L347.8,827.8z M339.6,818.7l1,0.4l-0.2,0.9l-0.7-0.4L339.6,818.7z M336,817
		l3.2,1.6l0.3,1L336,817z M333.7,816.9l1.1,0.3l4.2,3.2l1.5,2.2l0.9,2.7l-0.5,1.2l-4.6,0.4l-3.3,2l0,0l-0.1-0.8l-0.6-0.6h-1.1
		l-0.3-1l-1.5,0.4l0.1-2.6l-1.3-0.1l0,0l-0.2-1.8l2.2-0.1l0.2-1.9l1.1-0.2l-0.5-1.4l0.6-0.2v-0.7L333.7,816.9L333.7,816.9
		L333.7,816.9z M333.3,811.5l4.7,3.3l2.9,0.9l0.9,0.7l-0.1,0.8l-1.7,0.7l-5.7-2.7l-2.8-2.5L333.3,811.5z"/>
	<path id="CN-14" class="st0" d="M242.7,672.8l0.8,1.8l1,0.6l-0.2,1.7l0.6,1.9l1.7-0.1l1,0.7l-1,1.2l-2.5,0.4l-0.3,0.7l-1.3,0.4
		l-0.6-0.2v1.9l-0.6,0.2l-0.5-1.2l-0.3,1.4l-0.8,0.5l1.4,0.3l0.5,1.2l2,0.8h2.2l0.6,1.2l-0.4,2.3l1.8,1.7l-1.7,4.1v0.9l0.6,0.5
		l-1,0.7l-0.4,1.3l-0.9-0.6l-1,1.2h-1.1l-0.8-1.4l-2,1.2l-1.5,1.5l0.1,1.4l1,0.9l-0.2,1.1l-0.5-0.1l-0.5,1l-0.6-0.1v0.9l-1.2,0.1
		l-0.6,1.4l0.3,1.5l-0.7,1.3l0.2,1.8l0.5,0.7l3.2,1.1l-0.2,0.7l0.8,0.8l1.2,3.9l0.9,0.8l-0.6,1l0.9-0.2l0.9,0.7l-3.2,6.9l-1.5,1.5
		l0.3,4.2l-0.5,0.4l-0.7-0.5l-0.3,1.7l-2.7,1.3h0.5l-0.4,1l0.8,0.3l0.5,0.9l-0.4,1l1.9,1.1l0.3,1l0,0l-0.7,2.5l0.3,0.3l-0.5,0.2
		l0.6,0.4l-0.7,0.2l0.1,1.4l0.5,0.2l-0.2,0.6h-0.6l0.2,2.3l-1,0.3l0.6,2.8l-0.9-0.2l-0.7,1.8l-2.5,0.8v0.8l-1,0l-1.2,1.7l-1.6-0.3
		l0.1,0.7l-0.9,0.8l-1.4-0.1l-0.8,0.8l-1-0.3l-0.3-0.7l-0.4,0.7l-2.8-0.4l-0.8,0.5l-0.6-0.1v-0.5l-0.9,0.4l-2-0.8l-0.4,3.8l-1-0.7
		l-1.6,0.1l-0.3,0.6l-1.7,0.6v0.7l-1.3,1.5l-4.1,1l-0.9-0.2l-2.4,1.6l-0.5-0.4l-0.4,1.1l-1.8-0.1l-0.9,1l-3.8-0.2l0,0l-1.1-0.2
		l-0.6-1.2l0.5-1.4l-0.1-2.8l4.3-10.2l-2.1-8.3l0.7-6.5l-1.4-1.5l0.6-0.1l0.2-0.7l-0.9-0.6l0.5-0.5v-0.9l-0.6-0.2l0.6-1.4l-0.7-0.8
		l1,0.1l-0.5-0.4l1.4-1.1l2-2.8l0.2-1l-0.9-0.4l0.1-1l1.3-0.5l0.5-1.5l-0.4-1.4l0.5-0.2l-1.2-0.9l0.6-0.7l-3-3.3l-0.1-3.5l0.7-0.6
		l0.2-1.3h1l1.6-2.3l1.2-0.2l0.6-1.9l-0.4-1.1l1.6-3.7l-0.5-1.6l1.8-1.2l1.1-3.6l0.5-0.4l-1.4-1.1l0,0l0.3-0.8l2.4-0.2l1-1.4
		l0.1-2.1l2.7,0.1l1.4,0.8l2.1-0.4l0.6-3.1l4.2-7.3l1.9-0.8l3.6,2.2l1.2-0.6l0.6-2l1.2-0.5l3.3-0.9l0.8,1.5l3.1-0.4l3-2.8l0.9,1
		l1.2-1l1.3-0.2l0.1-3.1L242.7,672.8z"/>
	<path id="CN-12" class="st0" d="M283.8,681.2h2.1l1.2,2.1l1.3,0.4l-0.1,0.9l0.7,0.2l-0.4,0.8l-0.7-0.4l-2.1,0.1l-0.4,1.6l0.5,1.9
		l1.5,1.7l-0.6,1.2l0.9,0.2l0.2,0.7l0.7-0.9l2.1,0.4l-0.8,3l0.9-0.2l0.9,0.7l0.7,2.3l0,0l-1.9,0.2l-2.3,1.9l0.7,1.9L288,702
		l-1.1,1.7l-0.8,3.4l0,0l-0.2,0.8l-3.7,0.6l-0.4-0.9l-1.6,0.7l-1-1.9l-1.3,0.2l-1-0.8h-1.1l-0.6-3.1l0.6-1.5l1.8-0.6l0.4-1.2l-1-1
		l0.4-2.1l-0.4-0.5l-0.4,0.3l0.4-1.4l-0.8-0.5v-2.5l0,0l1.2-1.4l0,0l0.7-0.2l0.3,1.1l2.3,0.2l0.5-2.4l-0.5-0.8l1.3-0.4l-1.3-0.5
		l-0.3-0.7l0.8-2.6l0,0l2.3-1.5v-1.3H283.8z"/>
	<path id="CN-71" class="st0" d="M336.7,949.7l0.3,1.2l-1.2-1.1L336.7,949.7z M312.5,928.9l0.6,0.8l-1.6,0.6l-0.4-0.4l0.3-0.6
		L312.5,928.9z M311.6,928l0.3,0.6l-0.5-0.4l-0.7,0.5v0.9l-0.6,0.1l0.6-1.3L311.6,928z M297,916.3l0.4,1.4l-2.1,0.4V917l1.1,0.2
		L297,916.3z M319.9,940.7l-1-3l-1.7-1.5l0.7-0.7l0.2-2.3l0.8-1.3l-0.1-1.4l-0.5-0.1l0.8-4.2l1.2-0.4l-0.3-0.4l2.1-3.1l-0.5-0.2
		l1.3-1.4v-0.8l2.9-4.7l2.4-2.1l0.2-1.4l1.7-2.6l4.3-1.5l0.8-1.4l1.9-0.6l1.6,1.8l2.5,0.7l0.2,1.2l0.8,0.2l-2.3,2.3l0.6,4.2
		l-3.3,6.2l0.4,1.1l-0.5,0.6l-1.2,6.6l-1.5,3.8l0.1,1.2l-2.7,3.6l-0.2,1.2l-1.8,1.2l-1.7,4.5l0.1,4l-0.7,0.6l0.3,1.2l-1.3-0.8
		l-0.7,0.3l-0.3-1.3l0.4-1l-0.9-2.7l-3.6-2.8l-1.4-2L319.9,940.7z"/>
	<path id="CN-65" class="st0" d="M-89.6,522.2l0.4,1.1l-0.4,1.4l1,1.2l-1.9,1l-0.2,1l0.9,0.7l-0.2,0.7l1.5,1h0.9l1.1,1.1l-0.9,1
		l-0.4,2.8l0.3-1.2l4.3,1.8l0.9,1.6l1.3-0.4l1.1,1.5l-0.2,2l2.2,1.8l2.8,1.1l0.7,0.9v1.6l2.1-0.1l2.1-1.7l2.5-0.1l0.7,1.9l2.3,2.4
		h1.9l0.2-1.3l1.3,0.4l0.1,1.8l3.3,2L-58,552l1.6,2.4l0.8,4.5l2.7,4.5l2.3,0.9l0.6,2.5l1.3,2.1l-0.4,2l0.6,0.5l-2.1,4.7l0.3,1.9
		l1.1,1.6v1.6l-4,5.7l-0.5,3.5l1.7,2.5l0.2,1.7l1,0.4l-0.2,1.3l3.2-0.2l3.1,1.7l1.1-0.7l1.7,1.5l5.4-0.1l2,0.7l2.6-0.3l1.8,0.7
		l7-0.2l5.5,0.9l8.7,5.4l1.4,1.3l0.2,1.1l3.2,1.4l1.5,1.8l3.7,1.6l5.5-0.6l-1,4.3l2.6,1L10,623l2.4,4.8l0.2,2.4l5.4,6.6l0.5,2.8l0,0
		l-3.4,2l-0.9,8.3l0.4,1.7l-0.8,2l-1.6,0.9l-2.2,0.3l-1.9-0.5l-5.8,1.3l-5.1,2.6l-8.6,8.9l-2.5,3.5L-16,675l-3.6,2.3l-5.6-0.4
		l0.1,6.5l-1.9,3.7l1.4,5.4l0.9,1.5l0.1,4.6l0,0l-5.7,1l-1.4,1.7l-4.1,0.7l-2.5,1.2l-5.4,1.1l-4.1,1.6l-4.4,0.8l-1.8-0.2l-0.2,1.2
		l-1.9,0.7l-0.4,1l-3.4,1v0.8l4.2,6.9l-1,1.1l0.5,1.2l-0.3,0.4l4.7,2.3l1.8,2.5l1.9,0.2l1.3,4.1l1.2,0.9l0.4,1.9h-1.7l-2,1.6
		l-2.1,0.1l-1.7,2l0.4,1l-0.5,0.7l0.3,1.5l3.8,0.9l-0.1,3.2l0.6,0.5l-0.4,0.6l0.7,0.7l0.1,1.9l-1.6-0.2l-0.6,1l-1.1,0.3l-2.1-1.7
		l-5.7-0.5l-1.3-0.7l0.1-0.5l-1.6-0.5l-0.7,3.1l-2.8-0.1l0,0l-3.1-1l-3.2-2.2l-1.3,0.6l-2.6-1.7l-2,1l-1.8-1.4l-0.4-1l-1.1,0.1
		l-0.4-0.6l-2.8,0.2l-1.4,0.7l-1.9-0.2l-1.1,1l-2-0.2l-2,0.7l-1.2-0.3l-0.2-0.8h-1l-0.9,0.8l-1.4,0.2l-0.6,0.8l-1.9-0.2l-1.2,0.7
		l-0.4-0.6l-1.4,0.2l-1.1,0.9l-2.1,0.5l-0.7-0.3l-2.6,1l-0.7,0.5l-0.2,1.5l-1.6,2.9l-1.2,1l-3.2,0.5l-1.3,1.6l-0.9-0.2v-0.8
		l-3.3-1.1l-3,0.5l-2.5,1.6l-4.9,1.4v1.1l-3.4,1.9l-2.4-1l-1.5,0.9l-3.2,0.4l-1-0.1l-0.6-0.8l-1.3,0.2l-1.9-0.6l-1.5,0.3l-1.6-1.3
		l-0.5-2.9l-2.1-0.3l-0.8,0.8l-1.3-0.9l-2.2-0.4l-0.8,1l-0.7,0.1l-0.2,1.5l-3.4,1.6l-0.4,1.9l-1.1,0.1l0.2,0.4l-1,0.5l-2.4,0.4
		l-1.5-0.2l-1.5-1.8l-2.8,0.6l-1.5-1.4l-0.8,0.4l-0.1,1.1l-3.9-0.4l-0.8-0.9h-1.2l-0.3-0.8l-0.9-0.2l-2.2,1.5l-0.3,2l-1.5,2
		l-1.2,0.6l-0.7,3l-1.3,0.2l-0.2,1.6l0.7,0.8l-0.7,0.5v2.1l-0.8,0.8l-2,0.5l-1.3-0.5l-4,1l-1-0.4l-0.9,0.4l-0.5,1.2l-1-0.8l-0.4,0.2
		l0,0l-4.5-3.7l-1.9,0.1l-0.2-0.7l-1.5-0.3l-0.7-0.8l-1.9-5.6l0.5-0.8l-1-1l-0.6-2.2l1.4-2.1l-1.8,0.1l-0.7,0.8l-1.1-1.4l-1.5,0.6
		l-3.7,0.2l-1.1-1h-1.6l-4.2-2.2h-1.3l-2-1.7l-0.4-2.1l-2.8,1.3h-2.2l-0.2-1.5l-0.9-1.3l-1.1-0.1l-0.7-0.8l-0.1-1l1-0.5l-0.2-0.8
		l0.6-0.1l-0.9-1l0.3-2.5l-2-3.5l-2.5-1.5h-1.3l-0.7,0.8h-1l-0.7-3.5l-2.1-0.2l-1.1-1l-1.5,0.1l-1.3,1.2l-0.9-0.8l-0.2-1.2l-1.1,0.6
		l-0.7-1.1h-0.5l-0.9,0.9l-1.7-1.3l0.7-0.8v-1.2l2,0.3l1-0.7l0.8,1l1.1-0.1l0.6-1.1l2.3-0.5l0.3-1.8l-1-1.5l-1.6-0.5l-0.4-1.6
		l1.3-1.7l-1.1-1.1l0.1-2.8l-0.7-0.3l-0.9-2.5l-0.1-2.6l1.1-0.7v-1.9l-0.5,0.3l-2.4-1.6l-3.3-1.2l-3.1-0.2l-0.7,2.2l-1.8-0.1l-2.1-1
		l0.3-0.6l-1.3-3.5l0.6-1.1l1.1-0.1l0.1-0.6l-0.3-0.9h-0.9l-0.9-2.2l-1.6-1.5l1.4-1.6l-0.1-1.7h2.3l1.2-2.1l-0.3-2.2l-1-0.7l1.9-3.8
		l-0.5-0.4l1.2-1.1l0.9,0.2l1.5-0.8l1.4,0.7l3.1-3.1l1.2,0.1l0.2-1.3l1.2-0.1l0.7,0.6l0.5-0.3l-1.4-1.8l0.5-1.3l2,1.2l2.9,0.1
		l3.1-2.8l1.7-0.8l0.6,2.5l1,0.5l-1,1.6l0.7,1.8l1.6-1l1.2,0.9l0.6-1.5l1.6-0.5l1.2,0.4l1.3-1.3l0.5,1.7l2.4-1.7l0.2-1.2l1.4-1.6
		l-0.2-2.1l1.9-1.6v-1.8l1-1l2.3-0.6l1.3,0.7l2.6-0.3l2.4,0.7l5.5-1.4l1,0.8l1.7-0.8l1-2.2l1.4-1l0.1-2.3l3.1-1l0.9-1.4l1.6-0.4
		l7.3-4.5h0.8l0.1,1.1l2.4-0.2l2.7-4.2l5.1-0.4l-0.5-2.7l0.5-0.9l-1-2.7l0.1-0.9l0.8-0.6l-1.1-0.9l-0.2-1.5l1.1-2.9h1.8l2.4-1.2
		l-2.4-1.6l-0.1-1.1l2.5-1.5l2.3-0.3l0.3-0.5l-0.5-2l-1.2-0.3l1.1-2.5l-2.9-6.5l-2.2-11.4l0.8-2.3l-0.5-0.8l1.6-0.9l-0.1-0.5
		l-2.6-1.9l-3.2,0.7l-0.9-1.4l-1.4-0.4l3-2v-0.7l1.7,0.3l1.1-0.6l0.9,0.4l1.1-1.3l1.7,0.1l1.5-1.1l2.1,0.8l0.8-0.7l1.6-0.1l0.4-0.8
		l0.8,0.2l3.2-1.4l0.9,0.2l2.6-1.6l1.2,1.1l0.4,1.8l1-0.1l0.7,0.9l3.8-1.4l2.9,2.1l1.3-2l0.5-2.3l-0.3-1.3l-2.4-0.7l-1.8-1.8
		l2.9-7.4l0.3-3.6l2.7-6.1l0.9-4.2l1.6-4.9l0.7-0.8l0.5-2.9l1.8-0.2l0.9,0.9l1.3,0.1l0.7,1l0.6-0.2l1.5,1.4l5.8,1.7l2.2-0.6l2.7-0.2
		l1,0.6l2.3-0.5l1.3,1.8l-1.2,1.3l1.4,0.2l2-0.8l0.2-0.8l1.2-0.3l1.9-2.2l3.9-0.1l0.6-2.4l1.5-0.8l0.1-2.7l-1.3-2.7l0.2-1.6l-1-6.2
		l0.9-4.1l1.6-4l1.4-1.1l2.1-0.4l2.5,0.3l1.3-1.2l1.5,0.1l2-0.9l0.6-1.6l1.6-1.7l-0.2-1.3l0.8-1.2l-1-1.4l-0.1-1.5l1.3-1.2l0.5-1.2
		l1.3,0.2l2.1-1l3.6,1.3l1.1-0.4l0.1-0.7l0.7,0.3l1.7-0.8L-89.6,522.2z"/>
	<path id="CN-54" class="st0" d="M-202.1,773.9l0.4-0.2l1,0.8l0.5-1.2l0.9-0.4l1,0.4l4-1l1.3,0.5l2-0.5l0.8-0.8v-2.1l0.7-0.5
		l-0.7-0.8l0.2-1.6l1.3-0.2l0.7-3l1.2-0.6l1.5-2l0.3-2l2.2-1.5l0.9,0.2l0.3,0.8h1.2l0.8,0.9l3.9,0.4l0.1-1.1l0.8-0.4l1.5,1.4
		l2.8-0.6l1.5,1.8l1.5,0.2l2.4-0.4l1-0.5l-0.2-0.4l1.1-0.1l0.4-1.9l3.4-1.6l0.2-1.5l0.7-0.1l0.8-1l2.2,0.4l1.3,0.9l0.8-0.8l2.1,0.3
		l0.5,2.9l1.6,1.3l1.5-0.3l1.9,0.6l1.3-0.2l0.6,0.8l1,0.1l3.2-0.4l1.5-0.9l2.4,1l3.4-1.9V756l4.9-1.4l2.5-1.6l3-0.5l3.3,1.1v0.8
		l0.9,0.2l1.3-1.6l3.2-0.5l1.2-1l1.6-2.9l0.2-1.5l0.7-0.5l2.6-1l0.7,0.3l2.1-0.5l1.1-0.9l1.4-0.2l0.4,0.6l1.2-0.7l1.9,0.2l0.6-0.8
		l1.4-0.2l0.9-0.8h1l0.2,0.8l1.2,0.3l2-0.7l2,0.2l1.1-1l1.9,0.2l1.4-0.7l2.8-0.2l0.4,0.6l1.1-0.1l0.4,1l1.8,1.4l2-1l2.6,1.7l1.3-0.6
		l3.2,2.2l3.1,1l0,0l-2.9,0.9l-0.9-0.2l-0.3,0.7l0.2,1.2l1.4,0.9l3.4,0.2l-0.9,3.1l0.5,1l-0.8,0.7l0.8,1l-0.9,0.9l-2.4,0.9v1.2
		l0.4,0.1l-1,0.8l0.8,1.5l0.9,0.3v3.3l2.7-0.3l0.8,1.5l-1.8,1.4l0.2,1.2l0.7,0.3l0.1,3.4l0.9,1l-0.5,0.6l-0.2,2l-1.5,0.6l-0.6,1.1
		l1.9,2.8l1.7,1l-0.2,1l1.2,0.7l-0.3,0.9l3.1,1.9l0.1,1.5l1.7,2l1.5,0.1l2.6,1.9l1.7,0.5l1.8-2h2.3l0.7-1.3l2.1,0.1l0.3,0.5
		l-0.5,0.6l1.3,2l2.6,1.8l2,0.7l1.6,1.9l2.2-1l1.1,0.7l-0.3,1.3l0.8,0.5l2.4-0.7l2.4,0.6l0.6-0.7l2.3,1l1.8-0.7l0.6,1.7l2.3-0.5
		l1.7,2l1-0.4l0.8,1.2l1.7-1.4l0.9-0.1l1.1,0.4l0.6,1.2l1.3-0.2l0.6,0.6l0.6-0.4l1,0.5l0.9-1.2l2-0.1l0.4-1.2l0.7,0.5l2.1-1.6
		l2.1,1.8l-0.3,0.3l0.7,0.7l1,0.3l0.5,1.1l-0.4,0.5l1.4,0.6l0.8,1l2.9-0.1l0.6,1.2l1,0.2l0.2,1.3l-0.5,0.4l0.4,0.5l-0.9,0.7l1.9,3.1
		l1.4-0.5l1.6,0.3l0.8,1.2l0.6-0.6l2.9,0.1l1.2,2.5l0.7-0.7l-0.5-0.2l0.4-1.2l-0.4-1l-1.1-0.9l0.2-0.6H16l-0.2-0.6l1.6-0.7l1.6,2.3
		l1.3,0.9l1.7-0.1l0.7,0.8l0.9,0.1l0.4-0.8l-1-1.9l0.6-0.6l-1.1-2l1.7,0.7l0.5-0.6l0.8,0.3l-0.1-1l2.7,0.5l0.9-0.4l-0.2-0.8l1.1,0.4
		l-0.6-1.5l0.3-1.5l1.6-0.4l-0.7-0.4l0.7-0.2l-1-1.4l0.4-1.2l3.8,0.8l0.7-0.8l0,0l3,0.8L41,804l0.4,1.9l2.6,3.3l-0.2,2.7l2.6,3.6
		l3.3,3.1l-1.3,1.8l-1.2-1.2h-0.7l-0.4,2.2l2.5,2.7l-0.2,1.7l2.3,1.9l-0.7,1l1,7.8l0.7,1.1l0.4,2.2l-1,3.7l1.5,6.1l0,0l-1.9,0.9
		l0.7,1.9l-1.2,1.1l0.5,2.1l-1.5,0.3l-0.8-2.8l-1.9,0.4l0.7,3.4l-1.2,0.9l0.4,2.4l0.8,0.4l0.9,1.9l-0.6,1.5l-1.1,1l-0.9-0.3
		l-1.8,1.1l-0.6-2.7l-0.9-1.5l-1,0.6l0.8,1.6l-1.2,0.5l-0.4,0.9l0,0l-0.9-0.9l-0.7,0.1l0.1-0.9l-1.6-1.6l-1.2,0.6L35,860l-1,0.6
		l-0.7-1l-1.2,2.3l-0.1,1.5l-0.6-0.3l-0.8,0.9l-2.3-0.9l-1-1l-1.2,0.8l-1.2-1l-1.5,0.2l-1.5-1.4l-2.6,0.7l-0.7,1.1l-0.4-0.7
		l-1.3-0.2l1.3-1.1l-0.6-0.7l1-0.4l-0.1-0.4l1.2-0.6l-0.3-0.7l1.4-0.5l0.4-0.8l-1.8-3.1l0.6-1.2l-2.3,0.7l-2.3,1.8l-0.3-0.5l0.5-0.7
		l-0.9-1.3l2.9-1.3l0.6-1.2l-0.4-0.4l-1.5,0.7l-2.1-3.3l-1.6,1.2l-1-0.1l-3.1,2L8,849.5l-0.2,0.6l-0.6,0.1l0.1,1.2l-0.6-0.2
		l-0.6,1.5l-2.3-0.3l-0.2-0.8L2,851.5l-1.6-0.8l0.3,0.6l-1.9-0.8l-0.9,0.3l-0.3-1.1l-1.9-1.5l-0.9,1.7h-1.6l-2.7,2.1l-0.8,1.9
		l-2,1.6l0.1,0.9l-1,1.5l-1-0.5l-0.9,0.6l-3.6-0.2l-0.2,0.4l-0.4-0.3l-0.7,0.6l-0.8,1.9l-1.2,0.9l0.6,0.6l-0.2,1l-2.5,0.4l-0.3,1
		l-0.5-0.4l-3.5,1.9l-0.3,0.9l1,1l-2.3,2.4l-0.8-0.3l-2.3,0.9l-0.7-1.1h-0.7l-3.7,2l-0.7-0.3l-0.5-1l-1,0.1l-1.4-0.7l0.4-1.2
		l-2.3-0.5l-2.1-1.6l-2.8,1.7l-1-0.1l-1.1-1l-2.1-0.1l-0.5-0.6l-3.4,0.8l2-2.6l-3.4-0.5l-1.8-1l-0.9,0.5l-1.7-0.6l-1.2,0.3l-1.2,1.1
		L-65,865l-2.4,0.3l-1.7,1.5l-0.4,1l-1.1,0.2l0.1,1.5l-1.2,0.4l-1.7,3l-2,1.7v3.2l-2.4-2.5l-0.2-1.6l1-1.4l0.5-2.7l-0.7-2.2l-1-0.9
		h-1.1l-0.6-0.8l-1,1.3l-3.7,1.3l-1.4-0.2l0,1.4l-1.4-0.7l-1.6,1.6l-2.2-0.5l-1.2,0.4l-0.2-0.8l-1.5,0.6l-0.6-0.4l-3.6,0.4l0.1-0.5
		l-1.3-1.1l-1.4-0.3l-1.1-1l-0.7,0.1l-1.2-1.3l-2.4,1.2l0.1,1.5l-1.3,0.2l0.1-0.8l-0.9,0.3l-1.8-0.6l-0.6-2.6l-1.1,1.1l0.6,2.1
		l-1.6,0.3l-0.7-0.3l-0.7-2.5l-4.2-2.8l-1.5-0.2l-0.8,0.7h-1.6l-0.6-0.8l-1.1,0.1l1-4.1l-0.8-0.8l-3.4,1.6l-2.1-0.6l-0.4-1.6l-3-0.1
		l0.2-1.1l-0.4-0.6l-1.8-0.9l-1.4,0.4l0.2-1.5l-0.6-0.9l1-2.3l-1.3-0.9l-2.2-0.5l-1.7,1.1l-0.9-0.1l-1,1l-1.2-0.6l-3.7-5.4l-5-1.8
		l-4.3-4.3l-3.8-1.2l0.1-1.2l-0.8-2.2l-6.5-1.5l-0.6,0.1l-0.1,0.8l-1.2-0.8l-1,0.1l-0.3,3.1l-0.6,0.8l-0.9,0.1l-0.1,1.3l-0.7,0.4
		l-1.3-0.7l0.1-1l-1.2-1.6l-2.5-0.8l-2.9-2.4l-0.7,0.5l-4-1.9l-0.4-1.4l0.7-1l-0.9-1l-0.8,0.4l-0.8-0.9l-1.6-0.7l-0.8-1.3l-1.4-0.4
		l-2.1,0.8l-0.9-1.2h-1.1l-0.4-1.2l-1-0.4l-0.8-1.5l0.2-0.6l-1.5-2.1l-1-0.5l-0.7,1.6l-0.8,0.4l-0.1,1l-0.4-0.1l-0.6-1.5l-0.7-0.4
		l0.2-0.8l-1.1-1l1.6-1.4l-0.7-1.1h-0.6l-0.5-1.5l1-3.1l-2.2-1.8l-0.1-1.4l-1.9-0.4l1-2.6l-1-0.6l-0.3-1.5l1.7-0.8l1,0.1l1.5-1.3
		l0.4,3.3l2.5,2l0.9-0.6l0.7,0.2l0.3-1.4l1-0.7l0.7-0.2l0.7,0.5l1.7-1.5l1.2-0.3l0.2-0.9l-1.5-3.3l-1.2-1.4l0.7-3l-4.2-0.8l-0.1-1
		l-3.1-2.8l-1.4-2.6l0.9-1.8l-0.9-2.3l0.8-1.5l-0.8-0.8l3.4-2.6l0.2-1.1L-202.1,773.9z"/>
	<path id="CN-53" class="st0" d="M53,849.7l-0.1,6.4l0.9,3.1l-0.1,2.5l1.8,2.8l1.1,0.8l0.3-1.6l-0.5-3.7l1.8-0.7l1.3-3.3l1.2-0.5
		l0.3,1.8l1.1,0.7v1.3l0.7-0.4l0.7,0.3l0.6,1.5l1,0.6l-0.2,0.9l1.5,0.7l-0.1,1.5l-1.7,0.5l-0.1,0.5l0.7,1.6l1.3,1.2l-0.2,0.7
		l1.7,0.6l0.2,2l1.3-2.1l1.5,0.8l1.1-1.5h0.6l0.3,1.6l1,1.7l0.7,0.1l-0.2,0.8l0.6,0.1v1.9h0.7l1.5,2.6l-0.1,0.9l1.5,0.2l-0.3,2.5
		l1.6,1v0.7l1.2,0.3l0.3,2.3l0.9-0.2l-0.1-0.7l0.8,0.3l-0.8,0.8l0.4,0.4l-0.3,0.9l-0.9,0.1v0.6l3,2.2l0.3,1.2l-0.8,0.4l0.4,1
		l0.9-0.5l0.6,0.4l1.2,2.4l1.1-0.9l2.2,0.6l2-2.1l3.8-2l0.9,0.4l-0.4,1.2l0.9,0.6l2.6-2.2l1.4,0.2l0.1-1.9l0.8-0.7l-2.4-6.9l0.5-1.3
		l-0.3-2.5l0.7-1.6l0.6,0.6l1.9-0.7l1.1-2.1h0.8l-0.2-0.9l2.7-2.6l0.2-1.5l0.7-0.8l-0.7,0.1l-0.2-0.9h-0.6l0.1-1.4l2.3-1.9l1,0.8
		l2-1.4l-1-3.1l0.8-2.1l1.4,0.9l1.9-0.1l1.9-0.9l0.8,0.7l1.4-0.1l-0.8,1l-1.4,0.4l0.1,1.9l0.5,1l1-0.2l0.3,0.9l0.8,0.3l-0.8,0.8
		l0.7,0.2l-0.2,0.9l-0.7,0.9l-1,0.2l2.5,2.3l1,0.6l3.8-0.9l1.2-2.1l0.9-0.5l1.7,0.5l0.1,1l0.9-0.1l0.2,1l-0.6,0.6l0.2,0.8l0.7,0.2
		l-0.1,1.5l0,0v1.2l-1,1.1l0.4,0.4l-0.9,2l-1.5-0.6l-2.6,1.8l-0.6-0.9l-0.5,0.5l-0.5-0.4l-1.5,0.5l-1-0.4l-0.3-0.9l-1.9-0.9
		l-1.3,2.3l-0.9,0.5l-2.1-1.5v-0.8l-1-0.1l-0.8,1.9l-2.1,2.4l-1,0.3l0.4,0.6l-0.7,0.1l0.2,0.9l1.1-0.6l1,1.4v1.1l-0.9,0.9l0.4,1.1
		l0.4-0.1l-0.3,1.5l0.8,1.2l2.5,0.3l1.5-1.8l2.7,0.3l0.8-1.3l0.6,1.5l1.4,0.3l0.1,0.8l1.2,1.3l0.2,0.8l-1.8,1.7l-0.3,2.2l-0.8,0.3
		l-0.2,2.8l-0.8,1.9l-0.7-0.2l-0.1,1.3l0.2,0.7l1.3,0.3l0.1,1.4l1.6-0.6l-0.2,1.6l1.2,0.6l0.1,0.9l2.1,0.6l-0.1,1.2l-0.9-0.7l-0.9,2
		l-0.6,0.1l0.7,0.1l0.4,0.9l-2.1,2.4l-0.2,1.3l0,0l-0.6,1.1l0.3,1.1l1.3,2.7l1.1,0.8l0.3-1.7l2.9,0.5l1.3-0.5l1.9,1.4l-0.2,0.7
		l0.6,1.3l-0.7,0.7l1,1l0.8-0.7l2.1,1.3l0.6-1.5l0.9-0.1l0.7,1.3l1.4-0.4l0.9,0.6l0.7-0.3l0.2-1l1-0.1l1.2,1.4l1.3,2.2l-0.8,1
		l0.1,3.1l-1.8,1.7l-0.2-0.6l-2-0.4l-0.2,0.7l-2,0.9l0.5,0.9l-0.5-0.3l-0.8,0.5l-0.8,0.9l0.2,0.7l0,0l-2.7-2.7l-1.3,1.7h-1.8
		l-1.7,1.3h-0.7l-0.2,0.7h-1l0.8,2.5l-1.6,1.7l-2-0.4l-2.7,2.2l-1.2-0.7l0.1-1.4l-2.1,0.4l-1,1.2l-0.8,3l-4-3.8l-1.2,1.2l-0.4,1.5
		l-1.3-1.7l0.1-0.6l-1.5-0.8l-0.5,1.9l-1.2,0.5v1.2l-1.3,0.6l-0.1,0.8l-1.8-0.5l-0.9-1.7l-3.2-1.7l-0.5,0.4l-0.9-1l-1.5,1.3l0.2,0.7
		l-1.6,1.8l-0.1,1.2l-0.9-0.3l-0.5,0.5l-1.5-0.8l-1.3,0.3l-0.4,0.7l-1.2-1.6l-1.3,0.3l-0.7,2.5l-1.1,0.5l0.7,1.2l-0.3,0.6l0.6,1.9
		l1,0.3v0.7l0.9,0.8l-0.4,1.5l0.9,1.6l-0.8,0.3l-0.3,3.5l1.3,0.8l-0.1,0.5l-0.8,0.1l0.1,0.9l-1-0.1l-0.4-0.7l-0.9,0.3l0.1-0.7
		l-0.6-0.2l-3.5,0.9l-0.7-1.8l0.5-0.8l-0.9-0.5l0.3-1.9l-0.8-0.1l0.2-1l-0.7-0.3l0.1-1.5l-3.7,1.7l-2,2.2l-2.4,0.3l-1.4-1.1
		l-2.3,1.3l-1.1-1.9l0.7-1.1l-0.4-0.5h-1.6l-0.5-0.6l-0.4-1.1l0.7-2.1l-0.4-1l-1.1-0.2l-0.4,0.6l-1.3-0.7l-0.6,0.5l-0.6-0.8h-1.6
		l-0.7-0.5l-1.8,0.5l-2.2-0.8l1.4-2.6l-0.3-0.5l1.7-1.5l-0.8-3.4l1.5-1.4V937l0.8,0.5l0.7-0.4l-0.7-2l-2.1-0.7l-3,0.6l-0.8-0.5
		l0.1-0.5l-2.2-0.3l0.7-1.4l-0.7-0.5l0.5-1.3l-0.6-0.9l-0.6,0.2l-0.3-0.9l1.1-1l-0.9-2l-1.8-0.7l0.4-1.8l-0.4-0.3l2-1.2l0.5-1.4
		l-3.4,0.8l-0.9-0.5l-5,0.4l-3.2,1.3l-3,2.3l-1.4-1.3l1.2-0.9l1.6-2.3l-0.4-0.5l0.4-1l-1.2-0.4l-0.1-0.5l0.7-0.2l-0.5-1.2l-1.8,0.1
		l0.2-4.2l3-1.5l-0.9-1.9l1.6-4l1.3,0.6l2.4-2.3l-0.2-1.7l0.7-0.6l-0.1-1l1.8,1.1l0.6-0.2l1.5-3.4l0.9-0.6l1.1,0.6l0.9-0.9l0.1-0.5
		l-1.3-1.2l-0.5-1.8l1-0.4l0.2,0.8l0.6-0.6l0.2-0.7l-0.8-0.9v-0.9l0.8-1l0.5-3.3l-0.5-3.4l0.3-2.7l-0.8-0.8l-0.2-1.5l0.6-1.5
		l-0.6-2.1l0.2-1.4l-0.5-0.7l-0.9,0.2l-0.5-0.8l-0.4,0.3l-1.3-0.8l-0.1,1.6l-1.1,0.7l-1.4-2.9l0.1-1.4l-0.8-0.4l0.5-0.7l-0.9-0.8
		v-2.5l0,0l0.4-0.9l1.2-0.5l-0.8-1.6l1-0.6l0.9,1.5l0.6,2.7l1.8-1.1l0.9,0.3l1.1-1l0.6-1.5l-0.9-1.9l-0.8-0.4l-0.4-2.4l1.2-0.9
		l-0.7-3.4l1.9-0.4l0.8,2.8l1.5-0.3l-0.5-2.1l1.2-1.1l-0.7-1.9L53,849.7z"/>
	<path id="CN-33" class="st0" d="M340.4,839.3l-0.3-1.2l0.5-0.5l0.7,1.2L340.4,839.3z M344.3,839l1.6,1l0.6-1.4l-3-2l-1.6,0.1
		l-0.4-0.5l1,2.8H344.3z M346.8,831.9l-1.2,0.1v0.8l2,0.1L346.8,831.9z M347.4,835l-1.7,0.4l1.7,0.1V835z M344.9,834l-2.2,0.5l2.2,1
		V834z M343,842.1l-0.3,0.9h0.8l0.9,1l0.3-0.6l-1.1-1.5L343,842.1z M347.3,841.3l0.2-1.6l-1.2,0.1L347.3,841.3z M346.1,842.2l-0.2-1
		l-1,0.1L346.1,842.2z M332.5,864.5l-1.3,1.2l0.3,1.4l1.8-0.8l-0.3-1.4L332.5,864.5z M341.8,849.4l0.3,0.2l-0.8,1l-1.6,0.5v-3.2
		l-0.5,0.3l-0.1,2.5l-1.7-0.1l-0.4-0.9l-0.9,0.9l1,0.7l-1.8-0.2v0.7h2.4l-0.1,0.8l0.9,0.6l-0.6,0.5l0.8,0.4l-1.1,0.6l-1.6-0.6
		l1.7,0.9l0.5,1.4l-0.8,1.2l-2.1,0.3l0.7,0.3l0.5,1.8h0.9l-0.6,1.4l0.4,1.6l0.8-0.4l-0.4,1l-0.7,0.5v-0.9l-1.5-0.3l-1.5,2.7
		l-1.4-1.8L332,862l-1.1,3.2l-1,0.4l-0.7,2.2l-2-0.1L326,867l0.4,0.8l1.6,0.7v1l-3.3,3.9l0.3,1.3l0.8,0.3l-0.6,0.7l0.1,0.9l-1.3-0.5
		l-0.4,1l0.5,0.2l-0.5,0.6l0.3,0.4l-0.9,1.2l-0.9-1.1l0,0l0.3-0.2l-0.9-1.2l0,0l-0.1-0.7h-0.9l0,0l-0.4-0.5l-1.4,0.2l-1.3,1.1
		l-0.4-0.5l-0.8,0.9l-2.2,0.1l0.2-0.3l0,0l-1.2-1.5l0.3-1l0,0l-1-1.2l0.1-1.1l-1-0.1l-0.2,0.5l-0.6-0.2l-0.5,2l-1-0.3l-1.7,1.6
		l-1.4-0.2l-0.1-0.7l-1.4-0.2l-0.6,0.5l0,0h-0.6l-0.4-0.8l0,0l0.2-2.8l-1-2.8l-1.1-1l-0.1-1.1l1-1l-0.4-0.8l0.5-0.9l-1.2-0.9
		l-1.3,0.8l-0.4-0.5l-1,0.1l-0.1,0.6l-1-0.8l0,0l0.7-0.6l-0.5-1l0.4-0.9l-0.6-0.3l0.2-2.5l-0.7-1.6l-1-0.7l-0.5-1.3l-0.8,0.2
		l0.3-0.5l-0.4-0.5l-1.1-0.2l-0.7-1.5l0.4-2.8l1.2-0.1l0.5-0.8l-0.2-0.6l0,0l0.6-0.6l0.8,0.1l0.1-1l1.1,0.2l1.1-0.5l0.8-1.5l2.4-1.7
		l0.2-1.6l1.8-1.5v-3l-0.6-0.1l0.9-0.8l-0.5-1.5l0.9-0.6l1.1,0.8l2.3,0.2l0.3-0.7l1.9-0.4l-0.9-2.4l-1.1-0.1V830l0.9-0.1l0.9-0.9
		l0.7,0.5l0.6-1.9l1.1-0.8l0.8-4.4l0,0l1.9-0.6l1.6,0.1l1,2.2l2,1.3l2.7-0.3l-0.1,1l0.9-0.5l1,2.3l0.9-1.4l1.6-0.6v-1.1l2.5-0.6l0,0
		l1.3,0.1l-0.1,2.6l1.5-0.4l0.3,1h1.1l0.6,0.6l0.1,0.8l0,0l-3.5,1.9l-1,2.7l-1.8,0.8l-0.4-0.9l-1-0.4l0.5,2l0.5,0.6h1l0.7,1l3.9-2.5
		h2l2.2,1.8l2.2,3.3l1.4,0.2l1.7,1.1l2.5-0.2l0.1,0.4l-3.4,1.8l-0.2,0.9l-1.9,2l-2.2,0.6l-0.4-0.4l-0.8,1l0.3,0.9l0.8-1.1l-0.3,1.5
		l1-1.3l2-1l1,0.9l0.3-1l-1.1-0.2l2.2-1.2l1,0.6l-0.9,0.9l0.8,1.2l-0.8,0.5l-0.1,1.1l0.5,0.1l-0.6,0.6L341.8,849.4z M339.4,851.3
		v0.4h1.6l0.3,0.8l0.7-0.4l-0.5-1.4l-1,0.6H339.4z"/>
</g>
</svg>
